<svg width="375" height="378" viewBox="0 0 375 378" fill="none" xmlns="http://www.w3.org/2000/svg">
<path d="M68.5553 184.43C66.1386 184.735 64.6754 182.932 62.8952 181.898C62.6344 181.747 62.4305 181.056 62.5295 180.722C63.1146 178.749 63.6943 176.761 64.4851 174.875C64.9591 173.744 65.9407 173.588 66.9689 174.352C67.6416 174.851 68.3631 175.277 69.0551 175.749C71.2842 177.268 71.5482 178.181 70.4214 180.686C69.8699 181.912 69.2528 183.106 68.5553 184.43ZM65.5816 177.368C65.2089 178.52 64.8362 179.672 64.4636 180.824C65.5511 181.081 66.9944 181.901 67.6356 181.453C68.4262 180.901 69.0751 179.136 68.8175 178.184C68.5408 177.162 67.2917 175.954 65.5816 177.368Z" fill="#FFB61D"/>
<path d="M310.475 93.7095C308.059 94.0155 306.595 92.2116 304.815 91.1782C304.554 91.0268 304.351 90.3357 304.449 90.0022C305.035 88.0294 305.614 86.041 306.405 84.1547C306.879 83.024 307.861 82.8681 308.889 83.6317C309.562 84.1312 310.283 84.5575 310.975 85.029C313.204 86.5476 313.468 87.4611 312.341 89.966C311.79 91.1921 311.173 92.3856 310.475 93.7095ZM307.502 86.6483C307.129 87.8 306.756 88.9518 306.384 90.1036C307.471 90.3613 308.914 91.1814 309.556 90.7334C310.346 90.1811 310.995 88.4157 310.737 87.464C310.461 86.4422 309.212 85.2337 307.502 86.6483Z" fill="#FFB61D"/>
<path d="M137.396 327.087C103.198 325.522 61.8544 251.245 99.8119 225.438C137.769 199.632 126.553 125.075 126.553 125.075C131.241 94.6239 134.469 64.7243 167.558 49.5191C185.676 41.1937 211.917 54.1663 227.961 47.2179C264.908 31.2169 275.027 25.4367 289.957 49.2029C333.281 118.166 265.063 172.635 280.166 228.998C288.302 259.365 298.385 289.571 287.586 312.17C276.788 334.77 272.158 322.924 242.103 330.978C227.102 334.997 210.571 343.793 192.846 344.85C175.121 345.908 180.106 337.811 164.365 330.873C154.511 326.529 145.415 335.587 137.396 327.087Z" fill="#6200EE"/>
<path fill-rule="evenodd" clip-rule="evenodd" d="M168.092 287.28C164.942 285.642 162.372 282.211 161.971 278.604C161.586 275.141 163.947 271.321 165.698 268.506C166.123 267.823 166.586 267.179 167.047 266.537C167.763 265.54 168.475 264.548 169.038 263.422C169.148 263.202 169.261 262.973 169.377 262.738C170.08 261.311 170.885 259.677 171.819 258.51C172.972 257.069 173.964 255.571 174.975 254.046L174.978 254.042L174.984 254.034C175.155 253.775 175.327 253.515 175.501 253.255C175.966 252.558 176.484 251.885 177.003 251.212C177.795 250.184 178.588 249.156 179.194 248.035C180.06 246.432 181.401 244.801 182.579 243.418C183.383 242.474 184.054 241.447 184.726 240.419C185.31 239.525 185.895 238.63 186.568 237.788C187.299 236.874 187.884 235.86 188.468 234.846C188.898 234.099 189.328 233.353 189.817 232.647C190.768 231.273 191.795 229.303 192.165 227.678C192.325 226.971 192.562 226.314 192.795 225.664C193.141 224.705 193.481 223.76 193.567 222.685C193.727 220.687 193.568 219.315 192.849 217.465C192.742 217.191 192.653 216.902 192.564 216.611C192.416 216.13 192.267 215.643 192.032 215.208C191.907 214.671 191.545 214.986 191.019 215.444C189.921 216.398 188.109 217.974 186.237 213.758C185.813 212.912 185.577 211.907 185.353 210.956C185.298 210.723 185.244 210.494 185.189 210.272C184.604 207.931 184.601 205.157 185.156 202.813C185.346 202.013 185.481 201.182 185.615 200.355C185.684 199.93 185.753 199.505 185.829 199.086C186.028 197.991 186.347 195.658 186.236 194.544C185.746 191.728 184.007 187.721 182.174 183.499C180.234 179.032 178.19 174.323 177.41 170.527C176.737 167.971 175.695 165.863 174.512 163.496C171.486 162.271 168.418 161.238 165.326 160.207C161.382 158.892 158.591 156.794 156.14 153.39C154.21 150.71 152.834 147.234 152.108 144.041C151.86 142.95 151.766 141.855 151.672 140.758C151.607 140.005 151.543 139.251 151.428 138.497C151.243 137.285 151.622 135.802 151.969 134.438C152.109 133.89 152.244 133.361 152.335 132.877C152.953 129.604 154.782 126.647 156.542 123.802C156.941 123.155 157.338 122.514 157.715 121.877C159.251 119.286 161.468 116.935 163.613 114.662C164.314 113.919 165.007 113.184 165.666 112.452C166.037 112.039 166.348 111.581 166.66 111.121C166.954 110.688 167.248 110.254 167.594 109.856C168.167 109.198 168.769 108.625 169.378 108.044C169.685 107.751 169.994 107.456 170.303 107.147C171.047 106.403 171.715 105.59 172.382 104.777C173.095 103.91 173.807 103.042 174.612 102.258C176.39 100.528 184.724 88.704 186.152 84.6002C186.813 83.1315 187.527 81.6779 188.24 80.2246C189.099 78.4737 189.958 76.7232 190.725 74.9474C191.023 74.257 191.447 73.6285 191.872 72.9999C192.363 72.2714 192.855 71.5427 193.151 70.7172C193.532 69.6555 194.101 68.6873 194.671 67.719C195.015 67.1355 195.358 66.5519 195.66 65.9478C197.493 62.2812 199.927 58.8801 202.493 55.6729C204.984 52.5585 209.126 50.3313 212.934 49.3794C214.055 49.0991 214.503 49.1082 215.45 49.1274C215.736 49.1332 216.067 49.14 216.476 49.14C218.725 48.6537 219.905 49.026 220.95 49.3556C221.31 49.4691 221.654 49.5776 222.02 49.6441C223.447 49.9037 225.108 50.7961 226.304 51.66C228.757 53.4317 233.246 59.3033 232.604 66.276C232.146 71.2538 228.144 83.5812 227.06 86.184C226.766 86.8901 226.608 88.0246 226.467 89.0432C226.393 89.5757 226.323 90.0766 226.241 90.468C226.071 91.2754 225.891 92.4181 225.8 93.24C225.596 95.0797 225.81 96.2233 226.241 98.0428C226.322 98.3855 226.406 98.7279 226.491 99.0703L226.491 99.0724C226.624 99.6089 226.756 100.145 226.876 100.684C227.011 101.29 227.364 101.952 227.69 102.563L227.69 102.564C227.794 102.758 227.894 102.946 227.985 103.127C228.017 103.192 228.05 103.258 228.083 103.325C228.106 103.372 228.13 103.42 228.154 103.468L228.212 103.586C228.936 105.06 229.849 106.916 231.226 107.703C231.813 107.849 232.258 108.006 232.708 108.165C233.131 108.314 233.559 108.466 234.116 108.612L234.375 108.68C235.379 108.942 236.357 109.198 237.277 109.667C240.103 111.107 242.176 113.416 243.885 116.046C244.191 116.517 244.45 117.088 244.659 117.611C244.938 118.307 245.22 118.697 245.742 119.239C245.811 119.31 245.883 119.382 245.955 119.455C246.39 119.892 246.862 120.367 247.009 120.969C247.123 121.435 247.319 121.777 247.536 122.157L247.536 122.158L247.537 122.16C247.589 122.251 247.643 122.344 247.697 122.442C247.832 122.688 247.897 122.931 247.962 123.171C248.047 123.488 248.131 123.801 248.373 124.11C248.737 124.576 248.842 125.052 248.962 125.6C248.972 125.646 248.982 125.692 248.992 125.738C249.109 126.262 249.284 126.781 249.46 127.302C249.62 127.775 249.781 128.249 249.898 128.73C250.038 129.308 250.304 129.834 250.569 130.358C250.844 130.903 251.118 131.447 251.252 132.048C251.306 132.289 251.913 133.698 252.339 133.155C252.57 132.862 252.669 132.38 252.761 131.935C252.808 131.707 252.853 131.488 252.913 131.309C252.98 131.106 253.08 130.912 253.18 130.718C253.336 130.414 253.491 130.112 253.52 129.78C253.69 129.071 253.942 128.538 254.188 128.018C254.306 127.768 254.423 127.522 254.528 127.26C254.795 126.595 254.981 126.177 255.265 125.538L255.284 125.496C255.601 124.782 255.976 124.05 256.343 123.334C256.497 123.033 256.65 122.735 256.796 122.442C256.924 122.187 257.056 121.918 257.192 121.644L257.192 121.643C257.556 120.905 257.94 120.128 258.308 119.448C258.6 118.908 258.91 118.41 259.222 117.907C259.422 117.587 259.622 117.264 259.82 116.928C260.025 116.579 260.13 116.111 260.228 115.679C260.258 115.546 260.287 115.417 260.318 115.295C260.482 115.051 260.554 114.843 260.621 114.647C260.659 114.536 260.696 114.428 260.748 114.32C261.109 113.57 261.429 112.825 261.745 112.056C262.349 110.591 263.075 109.224 263.817 107.826C263.9 107.668 263.984 107.51 264.068 107.352C264.151 107.196 264.236 107.048 264.321 106.901C264.565 106.477 264.8 106.069 264.916 105.558C264.96 105.366 264.986 105.174 265.012 104.985C265.072 104.547 265.13 104.125 265.396 103.763C264.536 103.901 263.269 103.845 262.398 103.758C261.701 103.688 257.722 103.228 257.048 103.068C256.926 103.039 256.818 103.028 256.722 103.018C256.597 103.006 256.493 102.995 256.409 102.949C256.004 102.732 256.03 101.715 256.179 95.8443C256.236 93.5969 256.31 90.638 256.386 86.7406C256.853 86.1756 257.551 86.0262 258.228 85.8812C258.398 85.8448 258.567 85.8086 258.73 85.7662C259.656 85.5261 259.942 85.578 260.37 85.6556C260.646 85.7055 260.981 85.7662 261.584 85.7662C262.017 85.7662 262.469 85.8083 262.918 85.8502C263.32 85.8876 263.72 85.9249 264.104 85.932C264.88 85.9464 267.056 87.1062 267.38 87.696L278.113 88.7039C279.535 88.9883 283.004 92.232 281.472 97.4591C281.201 98.1277 280.782 98.6907 280.334 99.2506C280.057 99.5974 279.725 99.8822 279.392 100.168C279.151 100.375 278.909 100.582 278.688 100.814C278.332 101.185 278.04 101.603 277.746 102.022C277.584 102.254 277.421 102.486 277.248 102.71C276.2 104.58 271.867 110.119 271.16 110.88C270.889 111.436 269.889 113.131 268.998 114.642L268.997 114.643L268.997 114.644C268.222 115.956 267.53 117.129 267.47 117.295C267.237 117.935 266.839 118.552 266.456 119.145C266.327 119.345 266.2 119.542 266.081 119.736C266.031 119.818 265.978 119.901 265.924 119.987L265.923 119.987C265.639 120.435 265.325 120.928 265.301 121.451C265.283 121.861 265.175 122.298 265.056 122.69C264.881 123.262 264.626 123.806 264.371 124.351C264.082 124.966 263.793 125.583 263.619 126.242C263.49 126.727 263.275 127.159 263.056 127.596L263.056 127.597C262.943 127.823 262.829 128.05 262.727 128.287C262.515 128.777 262.387 129.282 262.258 129.791C262.226 129.916 262.194 130.042 262.161 130.167C262.037 130.636 261.884 131.105 261.731 131.572L261.731 131.573C261.635 131.867 261.539 132.16 261.451 132.453C261.342 132.812 261.274 133.175 261.206 133.537C261.148 133.846 261.09 134.155 261.007 134.461C260.482 136.399 260.056 138.398 259.725 140.379C259.482 141.839 259.352 143.313 259.222 144.785C259.061 146.609 258.9 148.432 258.524 150.228C258.34 151.108 258.117 151.961 257.856 152.819C257.747 153.176 257.585 153.389 257.389 153.644C257.33 153.721 257.269 153.802 257.204 153.892C257.09 154.052 256.987 154.217 256.885 154.382C256.621 154.804 256.363 155.218 255.933 155.51C255.894 155.537 255.857 155.563 255.822 155.587C255.778 155.618 255.737 155.647 255.698 155.675C255.419 155.873 255.231 156.007 254.822 156.135C254.671 156.183 254.521 156.236 254.371 156.289C254.074 156.394 253.777 156.5 253.471 156.563C253.053 156.649 252.6 156.636 252.163 156.624L252.162 156.624C252.054 156.621 251.947 156.618 251.842 156.616C249.915 156.271 247.967 153.046 247.252 151.861C247.187 151.753 247.132 151.662 247.088 151.592C246.606 150.816 246.207 149.984 245.808 149.151C245.274 148.034 244.739 146.916 243.999 145.929C243.117 144.754 242.427 143.449 241.735 142.143C240.986 140.728 240.236 139.311 239.242 138.058C238.336 136.915 237.585 135.348 236.837 133.788C236.136 132.326 235.438 130.871 234.62 129.78C233.455 130.805 232.765 133.478 232.545 134.993C232.378 136.148 232.107 137.206 231.664 138.294C231.142 139.576 230.782 141.009 230.451 142.348C230.296 142.977 230.084 143.598 229.873 144.218C229.723 144.658 229.572 145.098 229.443 145.54C229.299 146.031 229.188 146.527 229.077 147.023C228.956 147.564 228.835 148.106 228.67 148.643C227.987 150.869 227.442 153.011 227.355 155.359C227.339 155.793 227.311 156.236 227.282 156.683C227.177 158.333 227.069 160.039 227.553 161.59C227.732 162.162 227.808 162.805 227.808 163.403C227.808 163.941 227.919 164.466 228.029 164.992C228.095 165.306 228.161 165.62 228.204 165.937C228.425 167.58 228.823 170.341 229.111 171.378C229.141 171.487 229.173 171.598 229.206 171.711C229.384 172.332 229.58 173.012 229.58 173.628C229.58 174.552 229.71 175.426 229.84 176.294C229.945 176.997 230.049 177.696 230.084 178.416C230.248 179.255 230.353 180.137 230.459 181.02C230.557 181.844 230.655 182.667 230.801 183.456C230.917 184.083 230.917 184.71 230.916 185.336C230.915 186.057 230.914 186.776 231.092 187.488C231.333 188.451 231.631 195.577 231.856 200.962C231.955 203.333 232.04 205.367 232.1 206.388C232.166 207.511 232.034 208.475 231.908 209.397C231.813 210.097 231.72 210.774 231.72 211.478V222.746C231.72 227.353 231.716 231.938 231.502 236.535C231.458 237.481 231.368 238.424 231.278 239.366C231.152 240.684 231.026 242.001 231.026 243.326C231.026 245.204 230.892 247.083 230.563 248.934C229.884 252.75 229.868 256.467 229.868 260.331C229.868 261.754 229.81 263.169 229.752 264.585C229.695 266.002 229.637 267.42 229.637 268.846L229.627 286.105C229.59 286.477 229.57 286.862 229.551 287.25C229.504 288.18 229.457 289.124 229.161 289.923C229.155 290.215 229.129 290.505 229.104 290.794C229.074 291.13 229.045 291.465 229.045 291.805C229.045 291.921 229.049 292.04 229.053 292.161C229.065 292.514 229.078 292.879 228.986 293.209C228.899 293.525 228.828 293.829 228.76 294.125C228.567 294.959 228.389 295.73 227.874 296.535C227.77 296.696 227.671 296.854 227.574 297.009C226.919 298.054 226.354 298.955 225.296 299.628C222.922 301.139 219.872 301.343 217.029 301.155C217.544 301.998 217.418 304.527 217.316 306.589C217.222 308.492 217.147 309.997 217.613 309.412C217.743 309.249 217.885 309.091 218.028 308.932L218.029 308.932C218.274 308.659 218.521 308.386 218.708 308.081C218.954 307.68 219.189 307.306 219.58 307.021C220.521 306.335 221.621 307.036 222.018 307.975C222.179 308.358 222.416 308.708 222.651 309.057C222.939 309.484 223.226 309.91 223.372 310.39C223.631 311.235 224.403 312.171 225.01 312.804C226.553 314.417 228.174 315.694 230.18 316.697C231.687 317.45 233.352 317.862 234.995 318.269C235.44 318.379 235.884 318.489 236.322 318.605C236.743 318.716 237.159 318.859 237.576 319.001L237.577 319.002C238.144 319.196 238.712 319.39 239.291 319.506C240.172 319.682 240.78 320.266 240.78 321.202C240.78 322.974 239.418 324.897 237.918 325.754C236.619 326.497 235.189 326.722 233.747 326.95L233.744 326.951C233.412 327.003 233.079 327.056 232.748 327.115C231.063 327.414 229.289 327.389 227.552 327.364C227.074 327.357 226.598 327.35 226.128 327.35C225.612 327.35 225.092 327.346 224.57 327.342C222.383 327.325 220.165 327.308 218.013 327.586C215.322 327.933 212.641 327.689 209.956 327.444C209.172 327.372 208.387 327.301 207.601 327.244C207.467 327.278 207.394 327.307 207.357 327.329C207.331 327.3 207.266 327.257 207.13 327.197C206.929 327.108 206.723 327.073 206.518 327.037C206.31 327.001 206.102 326.964 205.899 326.873L205.815 326.835C205.315 326.611 204.809 326.384 204.433 325.966C204.262 325.776 204.122 325.517 203.984 325.261C203.887 325.082 203.791 324.905 203.685 324.753C202.733 323.385 202.937 321.644 203.128 320.008C203.182 319.544 203.235 319.088 203.261 318.652C203.332 317.44 203.777 316.083 204.256 314.995C204.446 314.563 204.501 314.105 204.556 313.646C204.604 313.243 204.653 312.839 204.792 312.451C205.084 311.639 205.809 309.832 206.648 309.412C209.039 310.979 208.634 306.515 208.373 303.626C208.248 302.253 208.156 301.236 208.412 301.392C209.672 300.888 211.733 300.311 212.696 300.888C213.107 300.888 213.561 300.893 214.023 300.899C214.216 300.901 214.409 300.903 214.602 300.905C213.965 300.813 213.332 300.702 212.699 300.59C212.015 300.47 211.332 300.35 210.645 300.255C209.352 300.075 207.989 300.077 206.672 300.079H206.67C206.528 300.08 206.386 300.08 206.246 300.08C205.745 300.08 205.271 300.124 204.786 300.169L204.785 300.169C204.662 300.181 204.539 300.192 204.415 300.203C204.319 300.211 204.163 300.29 203.994 300.375C203.635 300.556 203.217 300.767 203.192 300.403C203.125 299.443 203.148 298.41 203.17 297.4C203.181 296.904 203.192 296.414 203.192 295.942C203.192 292.621 203.192 289.258 202.817 285.963C202.562 283.73 202.316 281.532 202.137 279.299C201.943 276.867 201.724 274.404 201.212 272.015C199.598 272.937 198.412 273.918 197.227 275.33C196.678 275.983 196.106 276.623 195.533 277.265C194.597 278.312 193.659 279.363 192.818 280.473C190.358 283.724 187.857 286.637 184.692 289.226C184.426 289.444 184.144 289.687 183.849 289.942C182.545 291.07 180.988 292.416 179.44 292.684C178.441 292.857 177.109 292.747 175.965 292.456C174.853 293.424 173.756 294.408 172.661 295.39L172.657 295.394C172.046 295.943 171.436 296.49 170.824 297.034C170.769 297.083 170.677 297.157 170.561 297.249C169.871 297.8 168.356 299.009 169.142 299.425C169.634 299.686 170.247 299.712 170.849 299.738C171.23 299.754 171.606 299.77 171.945 299.845C172.93 300.064 173.212 300.934 173.486 301.78C173.551 301.981 173.616 302.18 173.689 302.369C174.417 304.241 173.903 306.243 173.423 308.11C173.373 308.303 173.324 308.494 173.277 308.684C173.009 309.756 172.786 311.077 172.786 312.18C172.786 312.989 173.165 313.799 173.524 314.569C173.662 314.865 173.797 315.154 173.907 315.436C174.433 316.78 175.114 318.048 175.796 319.318C176.245 320.155 176.695 320.992 177.1 321.852C177.562 322.831 177.972 324.13 177.972 325.216C177.972 326.545 177.754 327.349 176.711 328.16C175.133 329.387 171.945 328.664 170.551 327.348C168.689 327.01 167.049 325.618 165.491 324.295C164.782 323.693 164.09 323.106 163.402 322.639C162.842 321.3 161.698 320.274 160.434 319.485C159.047 318.618 157.979 317.401 156.921 316.195C156.697 315.94 156.474 315.686 156.248 315.436C155.88 315.027 155.454 314.364 155.036 313.711C154.664 313.131 154.297 312.558 153.98 312.18C153.681 311.825 153.413 311.227 153.137 310.612C152.796 309.854 152.444 309.07 152.01 308.684C151.613 308.331 151.325 307.914 151.036 307.495C150.783 307.129 150.529 306.761 150.2 306.432C149.822 306.054 149.693 305.746 149.545 305.393C149.455 305.177 149.358 304.944 149.192 304.668C149.04 304.415 148.97 304.341 148.889 304.254C148.751 304.108 148.581 303.927 147.932 302.797C147.733 302.45 147.539 302.356 147.372 302.275C147.175 302.18 147.014 302.102 146.924 301.644C146.55 300.832 146.325 300.496 146.212 300.327C146.15 300.235 146.122 300.193 146.121 300.151C146.121 300.115 146.14 300.079 146.174 300.013C146.225 299.915 146.311 299.751 146.42 299.425C146.712 298.55 147.172 298.433 147.752 298.286C148.175 298.178 148.661 298.055 149.192 297.612C149.507 297.349 149.76 297.098 149.995 296.864C150.568 296.295 151.031 295.835 152.01 295.596C152.224 295.544 152.421 295.496 152.603 295.453L152.613 295.45L152.615 295.45C154.527 294.991 154.736 294.941 154.736 293.832C155.746 293.832 155.851 293.346 155.939 292.938C155.99 292.701 156.035 292.491 156.248 292.416C156.689 292.262 156.986 292.235 157.26 292.209C157.613 292.177 157.927 292.148 158.458 291.856C158.744 291.698 159.045 291.467 159.358 291.227C160.008 290.728 160.709 290.189 161.432 290.189C161.701 290.189 161.921 290.353 162.145 290.52C162.358 290.679 162.575 290.84 162.842 290.867C163.417 290.924 163.794 290.517 164.157 290.124C164.233 290.043 164.308 289.962 164.384 289.886C164.978 289.291 165.718 288.787 166.44 288.295L166.441 288.294C166.741 288.09 167.038 287.887 167.319 287.682C167.616 287.466 167.905 287.363 168.187 287.338C168.154 287.315 168.122 287.296 168.092 287.28ZM186.986 175.683C186.373 173.912 185.899 172.543 185.732 172.116C185.314 171.334 185.088 170.241 184.871 169.191C184.728 168.5 184.588 167.827 184.401 167.274C184.019 166.151 185.566 166.382 186.576 166.533C186.852 166.574 187.088 166.61 187.234 166.61C188.702 166.61 190.132 166.316 191.564 166.023C192.585 165.813 193.607 165.604 194.646 165.5C195.224 165.442 195.796 165.316 196.364 165.19C196.604 165.137 196.854 165.109 197.104 165.081C197.405 165.048 197.705 165.015 197.986 164.937C198.285 164.854 198.626 164.601 198.966 164.35C199.742 163.775 200.509 163.207 200.746 164.683C200.911 165.712 200.879 166.653 200.846 167.642C200.838 167.877 200.83 168.114 200.825 168.356C200.806 169.192 200.597 169.954 200.384 170.73C200.29 171.075 200.194 171.422 200.115 171.78C199.935 172.59 199.547 173.276 199.157 173.965C198.941 174.346 198.725 174.727 198.544 175.131C198.29 175.695 197.945 176.177 197.594 176.667C197.49 176.812 197.385 176.959 197.282 177.108C197.037 177.463 196.818 177.837 196.599 178.21C196.386 178.573 196.172 178.936 195.936 179.282C195.771 179.522 195.591 179.764 195.409 180.007C195.067 180.464 194.719 180.929 194.46 181.411C194.395 181.533 194.329 181.657 194.263 181.781C193.993 182.287 193.719 182.802 193.424 183.287C193.335 183.433 193.24 183.579 193.145 183.727C192.84 184.199 192.526 184.684 192.365 185.213C192.321 185.356 192.257 185.563 192.182 185.803C191.956 186.529 191.638 187.553 191.528 187.992C190.813 186.74 188.484 180.011 186.986 175.683Z" fill="white"/>
<path fill-rule="evenodd" clip-rule="evenodd" d="M168.515 331.631C153.757 331.631 139.1 331.631 124.443 331.632C123.683 331.632 122.908 331.615 122.53 330.915C122.267 330.428 123.093 329.58 123.73 329.617C124.252 329.648 124.775 329.696 125.298 329.696C162.209 329.699 259.6 329.698 296.511 329.709C296.837 329.709 297.292 329.778 297.459 329.968C297.707 330.249 297.961 330.903 297.842 330.985C297.396 331.291 296.799 331.603 296.258 331.605C286.219 331.64 215.7 331.631 205.66 331.631C193.312 331.631 180.964 331.631 168.515 331.631Z" fill="black"/>
<path fill-rule="evenodd" clip-rule="evenodd" d="M94.6339 332.129C85.5303 332.129 76.5271 332.13 67.5238 332.126C66.9589 332.126 66.333 332.265 66.1045 331.519C65.8759 330.773 66.1893 330.23 67.0219 330.133C67.2524 330.106 67.4899 330.129 67.7242 330.129C83.3209 330.129 98.9175 330.13 114.514 330.126C115.234 330.126 115.957 330.061 115.927 331.03C115.903 331.785 115.456 332.129 114.414 332.129C107.854 332.129 101.294 332.129 94.6339 332.129Z" fill="black"/>
<path d="M210.726 71.8055C210.074 72.1499 209.421 72.4944 208.769 72.8388C208.493 72.9844 208.142 72.708 208.109 72.3981C208.076 72.0882 208.259 71.7969 208.466 71.5636C209.051 70.9024 209.899 70.4794 210.78 70.4087C210.98 70.3927 211.2 70.4005 211.353 70.5301C211.568 70.7121 211.551 71.0672 211.393 71.3003C211.235 71.5335 210.975 71.6739 210.726 71.8055Z" fill="black"/>
<path d="M214.077 82.5535C214.443 82.1898 215.154 82.4363 215.51 82.0626C215.814 81.7425 215.633 81.2067 215.36 80.8591C215.087 80.5116 214.723 80.1884 214.674 79.7494C214.625 79.3103 215.206 78.8547 215.496 79.1879C215.964 79.7252 216.39 80.3316 216.533 81.0294C216.676 81.7272 216.478 82.5325 215.899 82.9482C215.321 83.3639 214.36 83.2071 214.077 82.5535Z" fill="black"/>
<path d="M220.118 76.09C219.981 75.8065 219.963 75.4669 220.071 75.1708C220.14 74.9822 220.258 74.8118 220.411 74.681C220.905 74.2569 221.756 74.3583 222.136 74.8866C222.517 75.4149 222.343 76.2538 221.783 76.5873C221.224 76.9208 220.403 76.6755 220.118 76.09Z" fill="black"/>
<path d="M211.507 74.1257C211.907 74.0293 212.348 74.1152 212.683 74.3549C212.95 74.5461 213.148 74.8314 213.233 75.1482C213.432 75.8795 212.941 76.7248 212.207 76.916C211.474 77.1071 210.633 76.6089 210.448 75.874C210.264 75.1392 210.77 74.3031 211.507 74.1257Z" fill="black"/>
<path d="M271.24 92.8796C271.25 92.52 271.263 92.1493 271.412 91.822C271.562 91.4948 271.885 91.2191 272.244 91.2396C272.603 91.26 272.914 91.6779 272.746 91.9961C272.173 93.0825 272.087 94.415 272.517 95.5658C272.686 96.019 271.919 96.334 271.554 96.016C271.19 95.698 271.175 95.1462 271.189 94.6627C271.206 94.0683 271.223 93.474 271.24 92.8796Z" fill="black"/>
<path d="M215.823 89.2534C214.639 90.4239 212.764 90.8362 211.198 90.2705C209.631 89.7047 208.453 88.1894 208.291 86.5327C208.232 85.9334 208.352 85.2319 208.87 84.9243C209.586 84.499 210.446 85.094 211.146 85.5444C212.194 86.2181 213.421 86.6102 214.666 86.6691C215.218 86.6952 215.843 86.6841 216.229 87.0802C216.802 87.6674 216.407 88.6769 215.823 89.2534ZM215.743 87.9988C215.483 87.6328 214.964 87.5997 214.516 87.5656C212.967 87.4479 211.454 86.8967 210.192 85.9911C209.931 85.8035 209.532 85.9871 209.4 86.2803C209.268 86.5734 209.334 86.9172 209.444 87.2195C209.888 88.4468 211.058 89.3796 212.354 89.5399C213.65 89.7002 215.013 89.0807 215.743 87.9988Z" fill="black"/>
<path d="M234.692 130.504C232.121 139.026 229.534 147.641 228.981 156.525C228.422 165.496 229.957 174.446 230.941 183.38C234.628 216.854 230.604 250.638 230.22 284.311C230.172 288.488 230.137 292.848 228.215 296.556C226.293 300.265 221.819 303.025 217.909 301.552C217.808 303.703 217.708 305.854 217.607 308.004C218.348 306.98 219.558 306.31 220.819 306.225C223.994 313.078 230.96 318.023 238.48 318.763C240.975 319.008 241.581 322.812 239.895 324.667C238.209 326.521 235.464 326.869 232.964 327.065C224.949 327.695 216.906 327.976 208.867 327.907C205.548 327.879 202.973 324.644 202.497 321.362C202.022 318.079 203.11 314.794 204.182 311.656C204.825 309.773 207.649 307.823 208.169 309.743C207.923 306.965 207.676 304.187 207.43 301.409C206.004 301.275 204.579 301.142 203.153 301.009C202.572 291.691 201.991 282.374 201.41 273.057C194.103 277.9 189.917 286.65 182.247 290.895C177.859 293.324 172.216 294.428 169.741 298.788C172.984 298.942 174.676 302.853 174.586 306.097C174.496 309.34 173.42 312.657 174.358 315.763C175.573 319.788 179.992 323.713 177.803 327.303C175.655 330.826 170.195 328.824 166.974 326.243C157.976 319.033 150.531 309.896 145.289 299.629C150.355 295.461 156.042 292.046 162.103 289.533C163.98 290.514 166.637 288.978 166.72 286.863C162.822 284.783 161.347 279.706 162.127 275.359C162.907 271.013 165.449 267.218 167.932 263.565C174.031 254.592 180.13 245.619 186.228 236.646C190.617 230.189 195.172 222.091 191.807 215.046C163.628 251.392 135.45 287.738 107.271 324.084C105.23 326.717 100.249 325.04 99.7434 321.749C99.2375 318.457 102.649 315.404 105.968 315.702C99.1274 310.599 92.2869 305.496 85.4463 300.393C84.1198 299.404 82.6922 298.256 82.4119 296.625C82.1173 294.912 83.1934 293.293 84.222 291.891C93.4678 279.287 103.23 267.062 113.477 255.257C116.462 251.818 119.585 248.338 123.629 246.243C127.674 244.149 132.891 243.705 136.628 246.308C142.175 250.172 147.722 254.035 153.27 257.899C164.23 243.664 175.189 229.429 186.149 215.194C182.092 209.074 186.239 200.885 185.359 193.596C184.398 185.636 177.444 179.255 176.934 171.253C176.685 167.344 173.437 164.265 169.988 162.406C166.538 160.546 162.671 159.46 159.453 157.224C152.188 152.175 149.814 142.063 151.766 133.437C153.719 124.811 159.202 117.426 165.094 110.828C170.987 104.23 177.477 98.0595 182.142 90.5447C186.424 83.6485 189.018 75.8574 192.649 68.5978C196.279 61.3382 201.299 54.3072 208.642 50.8415C215.984 47.3757 226.014 48.6434 230.518 55.3963C234.151 60.8415 233.372 68.1019 231.422 74.3491C229.471 80.5962 226.474 86.6356 226.039 93.1655C225.605 99.6954 228.72 107.146 235.023 108.92C244.661 111.633 248.816 122.708 251.578 132.327C256.097 122.994 260.617 113.661 265.136 104.328C261.963 104.02 258.789 103.713 255.616 103.405C255.657 98.0695 255.93 92.7877 256.018 87.4627C256.035 86.4448 256.811 85.5853 257.826 85.5032C268.752 84.6191 265.276 88.9066 276.399 87.6864C277.942 87.9276 279.691 89.3788 280.884 90.3882C284.531 93.4769 281.08 99.2193 277.944 102.826C267.479 114.86 260.878 130.201 259.336 146.071C259.092 148.589 258.948 151.203 257.784 153.45C256.621 155.698 254.086 157.475 251.63 156.86C249.441 156.312 248.101 154.169 246.989 152.207C242.89 144.973 238.791 137.739 234.692 130.504ZM175.245 290.699C176.444 291.273 177.747 291.793 179.065 291.626C180.719 291.417 182.032 290.187 183.219 289.017C186.699 285.586 190.16 282.133 193.599 278.66C203.927 268.231 214.501 256.828 217.567 242.478C218.385 238.651 218.634 234.729 218.882 230.824C219.432 222.136 219.982 213.403 219.128 204.741C218.693 200.329 217.965 195.56 220.182 191.721C220.248 199.48 220.313 207.24 220.379 214.999C220.451 223.522 220.518 232.103 219.014 240.492C217.509 248.881 214.322 257.16 208.606 263.484C205.568 266.846 201.547 270.475 202.305 274.941C203.649 282.852 204.065 290.92 203.542 298.927C203.498 299.599 204.361 299.899 205.031 299.973C210.806 300.611 216.651 300.615 222.426 299.985C224.43 299.767 226.921 298.985 227.099 296.979C230.176 262.356 231.457 227.574 230.936 192.818C230.843 186.659 230.685 180.43 229.094 174.479C228.933 173.876 228.47 173.121 227.891 173.356C219.193 176.879 208.964 176.406 200.629 172.095C198.171 176.174 195.852 180.336 193.676 184.573C192.45 186.958 191.25 189.755 192.294 192.226C194.27 196.905 194.615 202.254 193.258 207.148C192.409 210.207 191.005 213.776 192.958 216.28C194.928 218.806 195.05 222.393 194.084 225.448C193.119 228.503 191.215 231.158 189.369 233.777C179.678 247.524 170.794 261.839 162.777 276.624C161.493 278.992 163.319 281.83 165.246 283.713C168.167 286.566 171.56 288.937 175.245 290.699ZM201.51 108.674C201.018 108.264 200.495 107.836 199.864 107.729C199.279 107.629 198.688 107.82 198.125 108.008C196.275 108.628 194.425 109.248 192.575 109.867C190.974 110.404 189.341 110.956 187.992 111.971C186.391 113.175 185.315 114.932 184.305 116.66C182.867 119.122 181.484 121.616 180.158 124.141C179.907 124.619 179.651 125.126 179.672 125.665C179.694 126.217 180.001 126.711 180.309 127.17C182.938 131.081 186.338 134.474 190.257 137.095C190.401 137.191 190.554 137.29 190.728 137.303C190.963 137.321 191.179 137.178 191.365 137.032C193.866 135.075 194.757 131.322 193.402 128.451C193.933 128.092 194.485 128.881 194.644 129.501C198.094 142.965 200.336 156.737 201.334 170.599C201.415 171.725 202.727 172.267 203.82 172.55C207.819 173.588 211.882 174.525 216.013 174.614C220.144 174.703 224.387 173.892 227.866 171.664C228.173 171.468 228.514 171.154 228.404 170.807C226.235 163.944 226.209 156.544 227.329 149.433C228.449 142.323 230.678 135.44 232.964 128.614C233.125 128.133 233.501 127.538 233.978 127.714C234.727 129.89 236.3 131.771 238.309 132.894C241.37 130.366 245.061 128.606 248.953 127.818C247.49 124.561 246.028 121.303 244.566 118.046C243.673 116.056 242.729 113.998 241.068 112.584C239.369 111.138 237.128 110.542 234.967 109.986C230.775 108.908 226.584 107.83 222.392 106.752C221.539 106.533 220.533 106.345 219.861 106.914C219.13 107.533 219.229 108.662 219.333 109.614C219.708 113.042 219.306 116.552 218.167 119.807C218.09 120.025 217.995 120.261 217.792 120.372C217.485 120.539 217.113 120.34 216.823 120.145C211.525 116.589 206.411 112.759 201.51 108.674ZM174.112 162.544C170.495 148.806 174.245 134.118 180.247 121.241C181.85 117.8 183.65 114.382 186.278 111.641C188.905 108.9 192.481 106.879 196.279 106.847C201.168 106.805 204.427 101.481 204.854 96.6135C205.281 91.7456 203.91 86.8523 204.342 81.9849C204.572 79.3981 205.306 76.8868 205.819 74.3409C206.234 72.2808 206.505 70.1917 206.629 68.0938C206.655 67.6646 206.661 67.192 206.39 66.8575C205.972 66.3398 205.178 66.4441 204.513 66.4206C203.847 66.3971 203.019 65.883 203.269 65.2661C210.827 66.6158 218.927 64.5588 224.923 59.7676C225.504 61.4646 221.888 62.4054 222.421 64.1184C224.107 69.5455 225.277 75.2414 224.705 80.8952C224.134 86.5491 221.637 92.1905 217.104 95.6215C216.644 95.9701 216.136 96.3335 215.962 96.8841C215.828 97.3083 215.919 97.7668 216.012 98.2019C216.692 101.395 218.007 105.23 221.23 105.759C223.886 106.195 226.543 106.631 229.199 107.067C227.013 105.124 225.486 102.451 224.923 99.5813C224.459 97.2181 224.636 94.7713 225.048 92.3985C225.991 86.9581 228.133 81.8099 229.705 76.5166C231.276 71.2233 232.276 65.5454 230.881 60.2028C229.487 54.8602 225.242 50.2574 219.752 49.644C217.913 49.4385 215.985 49.4261 214.203 49.9264C205.34 52.4154 198.992 60.2442 194.758 68.4151C190.525 76.586 187.769 85.5254 182.782 93.2595C178.538 99.8406 172.828 105.317 167.48 111.039C162.132 116.76 157.005 122.948 154.324 130.304C151.643 137.661 151.78 146.447 156.42 152.756C160.504 158.31 167.36 161.14 174.112 162.544ZM128.986 246.189C124.165 247.52 119.695 250.099 116.129 253.604C114.372 255.331 112.839 257.269 111.312 259.202C102.55 270.284 93.7887 281.367 85.0272 292.45C84.2731 293.404 83.4815 294.462 83.4927 295.677C83.5083 297.365 85.0226 298.602 86.3961 299.584C87.4967 300.37 88.5974 301.156 89.698 301.943C90.1717 302.281 90.8919 302.597 91.2627 302.148C105.937 284.391 120.61 266.633 135.284 248.876C135.655 248.428 136.249 247.935 136.743 248.242C137.328 248.607 136.933 249.507 136.494 250.039C121.866 267.718 107.239 285.397 92.6122 303.076C92.1818 303.596 92.7744 304.327 93.315 304.732C94.863 305.891 96.411 307.05 97.9589 308.208C98.2165 308.401 98.5142 308.605 98.8316 308.551C99.1151 308.504 99.3216 308.266 99.5027 308.043C114.365 289.751 129.227 271.459 144.088 253.167C141.018 250.961 137.948 248.754 134.878 246.548C133.224 245.359 130.95 245.646 128.986 246.189ZM100.868 310.405C103.755 312.602 106.642 314.8 109.529 316.997C109.738 317.157 109.974 317.324 110.236 317.305C110.545 317.281 110.769 317.01 110.953 316.761C125.106 297.727 139.258 278.692 153.41 259.658C150.988 257.945 148.566 256.232 146.144 254.519C145.957 254.387 145.744 254.249 145.518 254.288C145.313 254.323 145.164 254.496 145.033 254.657C130.264 272.816 115.494 290.976 100.725 309.135C100.561 309.337 100.387 309.572 100.422 309.83C100.456 310.077 100.67 310.254 100.868 310.405ZM183.909 150.762C184.616 148.54 185.655 146.437 186.76 144.383C187.838 142.382 188.984 140.416 190.194 138.492C185.96 135.096 181.638 131.6 178.825 126.959C176.738 132.903 174.776 138.952 174.113 145.216C172.621 159.321 177.798 173.253 183.881 186.067C185.228 188.903 186.651 191.823 186.768 194.96C186.88 197.948 185.794 200.841 185.413 203.807C184.928 207.596 185.629 211.528 187.395 214.915C187.689 215.479 188.05 216.063 188.636 216.31C189.221 216.556 190.061 216.256 190.124 215.624C190.368 213.153 191.353 210.823 191.965 208.416C193.588 202.037 192.553 195.264 190.691 188.95C188.829 182.636 186.156 176.578 184.419 170.228C182.681 163.879 181.914 157.036 183.909 150.762ZM217.65 93.8367C219.109 92.8298 220.031 91.2232 220.775 89.6146C222.549 85.7791 223.592 81.6069 223.829 77.388C223.88 76.4894 223.891 75.5642 223.582 74.7185C223.274 73.8728 222.583 73.1135 221.695 72.9654C221.189 72.8811 221.25 72.0302 221.712 71.8066C222.173 71.5829 222.719 71.7771 223.193 71.9721C223.047 69.5817 222.515 67.2153 221.624 64.992C221.402 64.4379 220.904 63.7817 220.357 64.0218C216.709 65.6242 212.752 66.5207 208.77 66.6472C208.047 66.6701 207.93 67.6822 207.978 68.403C208.375 74.3937 204.077 80.1944 205.37 86.0575C206.848 92.7562 206.285 100.254 202.173 105.746C201.905 106.103 201.607 106.532 201.744 106.957C201.825 107.206 202.039 107.385 202.244 107.548C207.129 111.464 212.094 115.279 217.135 118.992C218.212 116.123 218.266 112.987 218.306 109.923C218.332 108.014 218.336 106.015 217.449 104.325C216.89 103.26 216.001 102.373 215.588 101.244C215.245 100.308 215.26 99.2822 215.053 98.3069C214.847 97.3315 214.317 96.3118 213.368 96.0055C211.892 95.5293 210.49 94.8241 209.229 93.9231C208.8 93.6169 208.349 93.2159 208.34 92.6893C208.331 92.1628 209.112 91.7358 209.396 92.1792C211.086 94.8144 215.073 95.615 217.65 93.8367ZM249.7 142.569C248.934 141.733 249.445 140.415 249.897 139.376C251.275 136.206 251.685 132.314 249.767 129.437C249.603 129.192 249.403 128.941 249.117 128.863C248.888 128.8 248.644 128.862 248.414 128.926C245.282 129.802 242.301 131.217 239.641 133.088C239.248 133.365 238.815 133.837 239.05 134.256C242.243 139.941 245.201 145.759 247.914 151.688C248.444 152.848 248.983 154.038 249.874 154.951C250.766 155.864 252.1 156.457 253.331 156.12C255.141 155.624 255.889 153.517 256.363 151.702C258.612 143.081 260.862 134.46 263.111 125.84C263.994 122.455 264.885 119.05 266.352 115.875C267.818 112.699 269.909 109.733 272.785 107.741C275.012 106.199 276.567 103.721 276.987 101.046C273.938 100.374 270.653 100.84 267.912 102.333C267.261 102.688 266.614 103.126 266.272 103.783C265.959 104.382 265.94 105.084 265.87 105.756C265.334 110.927 261.574 115.073 258.833 119.491C255.383 125.053 253.431 131.393 251.602 137.677C251.112 139.363 250.618 141.073 249.7 142.569ZM199.525 162.513C198.378 153.437 197.226 144.328 194.856 135.492C192.111 139.708 189.353 143.946 187.322 148.547C185.29 153.149 184.001 158.171 184.347 163.188C184.398 163.932 184.531 164.758 185.125 165.209C185.49 165.486 185.964 165.565 186.418 165.623C190.564 166.148 194.847 165.552 198.691 163.916C198.998 163.785 199.326 163.626 199.471 163.326C199.591 163.078 199.559 162.787 199.525 162.513ZM169.066 304.447C167.443 303.455 167 300.702 165.1 300.596C163.166 300.488 161.885 298.451 161.606 296.536C161.327 294.621 161.7 292.652 161.389 290.742C161.368 290.616 161.337 290.477 161.231 290.405C161.07 290.295 160.855 290.406 160.693 290.516C157.544 292.665 154.395 294.814 151.246 296.963C154.984 298.333 156.883 302.361 158.709 305.897C160.486 309.34 162.534 312.642 164.829 315.765C165.241 316.326 165.844 316.949 166.514 316.757C168.743 316.121 171.186 316.259 173.328 317.143C173.238 315.451 171.667 313.976 169.971 313.991C169.521 313.995 169.518 313.214 169.923 313.019C170.329 312.823 170.804 313.012 171.224 313.175C171.643 313.338 172.162 313.462 172.509 313.176C172.484 312.683 172.459 312.19 172.435 311.697C171.17 311.635 169.934 311.101 169.023 310.221C169.651 308.983 172.155 311.27 172.741 310.011C171.974 308.929 170.698 308.223 169.373 308.149C169.104 307.613 169.974 307.183 170.545 307.37C171.115 307.557 171.671 307.998 172.248 307.831C173.236 307.544 172.882 305.929 171.98 305.432C171.079 304.935 169.945 304.984 169.066 304.447ZM226.326 315.057C226.169 314.296 225.097 313.915 224.495 314.407C224.146 314.691 223.982 315.166 223.604 315.41C223.226 315.653 222.528 315.296 222.77 314.917C223.496 314.673 223.883 313.802 223.746 313.049C223.608 312.296 223.051 311.674 222.402 311.266C221.371 312.049 220.028 312.406 218.744 312.239C217.541 312.083 216.585 313.151 215.561 313.801C213.782 314.93 211.284 314.777 209.656 313.441C208.345 312.364 207.614 310.66 206.183 309.748C205.084 312.974 204.366 316.33 204.05 319.723C204.014 320.108 204.165 320.666 204.542 320.577C210.885 319.08 217.477 320.904 223.795 322.507C224.824 322.769 226.196 322.881 226.673 321.932C227.5 320.282 228.992 318.977 230.737 318.375C230.708 317.691 229.69 317.545 229.102 317.897C228.515 318.249 228.081 318.868 227.423 319.06C226.991 318.921 227.132 318.241 227.479 317.949C227.826 317.657 228.314 317.461 228.444 317.027C228.647 316.346 227.826 315.837 227.156 315.599C226.844 316.539 225.814 317.183 224.832 317.054C225.33 316.388 225.828 315.723 226.326 315.057ZM184.744 166.623C184.922 168.791 185.643 170.872 186.358 172.926C188.046 177.772 189.733 182.618 191.42 187.464C192.424 183.413 194.975 179.957 197.071 176.348C199.166 172.738 200.883 168.547 199.974 164.474C195.224 166.569 189.889 167.321 184.744 166.623ZM174.699 328.104C175.254 328.184 176.019 328.077 176.079 327.519C170.986 325.266 167.196 320.852 163.963 316.32C161.145 312.368 158.608 308.217 156.378 303.907C155.383 301.985 154.373 299.942 152.575 298.735C150.778 297.529 147.923 297.596 146.829 299.463C146.644 299.778 146.851 300.169 147.052 300.472C151.406 307.033 155.782 313.623 161.088 319.441C164.787 323.496 169.265 327.322 174.699 328.104ZM264.809 102.33C264.898 102.326 264.991 102.321 265.071 102.281C265.298 102.169 265.318 101.858 265.306 101.605C265.087 96.9656 264.868 92.326 264.648 87.6864C264.63 87.2994 264.171 87.3966 263.803 87.2776C263.434 87.1586 263.073 87.2059 262.687 87.2414C261.071 87.3897 259.454 87.538 257.838 87.6864C257.369 87.7295 257.315 87.916 257.299 88.3867C257.148 92.6813 256.998 96.9759 256.847 101.27C256.837 101.56 256.831 101.866 256.972 102.119C257.26 102.631 257.972 102.667 258.559 102.638C260.642 102.535 262.726 102.433 264.809 102.33ZM237.876 324.181C235.286 323.122 232.365 323.868 229.572 324.034C221.874 324.493 214.373 320.412 206.706 321.239C205.798 321.337 204.812 321.553 204.252 322.274C203.39 323.383 204.075 325.126 205.27 325.864C206.465 326.602 207.954 326.617 209.358 326.609C215.795 326.574 222.233 326.538 228.67 326.502C231.911 326.484 235.469 326.35 237.876 324.181ZM168.255 287.81C168.17 287.761 168.081 287.711 167.983 287.708C167.815 287.703 167.678 287.838 167.564 287.962C166.332 289.302 165.1 290.642 163.869 291.982C163.589 292.286 163.306 292.595 163.114 292.961C162.889 293.39 162.799 293.877 162.747 294.359C162.609 295.62 162.72 296.954 163.363 298.048C164.005 299.142 165.265 299.932 166.521 299.75C168.086 299.524 169.069 298.018 170.16 296.875C171.822 295.136 174.139 293.983 175.328 291.892C172.97 290.532 170.612 289.171 168.255 287.81ZM216.214 311.698C216.458 311.385 216.659 311.032 216.752 310.647C216.906 310.01 216.755 309.345 216.653 308.697C216.341 306.717 216.491 304.697 216.604 302.695C216.633 302.173 216.472 301.449 215.95 301.482C213.768 301.62 211.57 301.512 209.412 301.162C209.107 301.112 208.829 301.39 208.76 301.69C208.691 301.991 208.774 302.302 208.849 302.601C209.449 304.979 209.625 307.464 209.365 309.903C209.322 310.303 209.268 310.711 209.349 311.105C209.482 311.759 209.972 312.291 210.532 312.655C212.301 313.806 214.92 313.364 216.214 311.698ZM276.399 99.774C276.912 99.8655 277.521 99.9644 277.886 99.5921C276.357 98.7954 275.224 97.2785 274.895 95.5869C274.565 93.8953 275.046 92.0644 276.164 90.7526C276.266 90.633 276.378 90.507 276.397 90.351C276.416 90.1951 276.286 90.0133 276.133 90.0478C273.975 90.5328 271.759 90.7646 269.547 90.7367C269.218 90.7326 268.865 90.7295 268.593 90.9144C268.105 91.2459 268.14 91.9623 268.228 92.545C268.599 94.987 268.466 96.925 268.837 99.3671C268.85 99.4546 268.864 99.5438 268.904 99.6229C269.093 99.9988 269.649 99.8928 270.045 99.7521C271.91 99.0909 274.451 99.427 276.399 99.774ZM177.24 325.478C177.019 323.257 176.229 321.096 174.966 319.255C174.805 319.019 174.633 318.786 174.412 318.604C174.144 318.382 173.816 318.246 173.489 318.127C171.645 317.458 169.638 317.24 167.693 317.497C167.301 317.549 166.808 317.74 166.83 318.135C166.839 318.288 166.931 318.423 167.021 318.547C169.363 321.783 172.44 324.483 175.952 326.385C176.248 326.545 176.607 326.7 176.904 326.543C177.254 326.358 177.279 325.872 177.24 325.478ZM103.698 324.473C105.653 324.996 107.903 323.615 108.321 321.636C108.739 319.658 107.239 317.485 105.239 317.174C104.446 317.051 103.614 317.191 102.906 317.568C101.642 318.242 100.836 319.694 100.935 321.123C101.042 322.663 102.205 324.074 103.698 324.473ZM240.315 321.372C240.272 321.038 240.202 320.697 240.015 320.417C239.476 319.617 238.309 319.676 237.345 319.72C235.723 319.795 234.087 319.568 232.546 319.056C231.633 318.752 230.663 319.27 229.877 319.825C228.888 320.524 227.926 321.364 227.498 322.496C228.507 322.959 229.677 322.801 230.781 322.68C232.587 322.484 234.405 322.415 236.22 322.473C237.095 322.501 237.989 322.564 238.793 322.909C238.986 322.992 239.18 323.092 239.39 323.101C239.764 323.116 240.098 322.825 240.238 322.478C240.379 322.131 240.362 321.742 240.315 321.372ZM279.798 98.7875C280.505 98.5932 280.872 97.8219 281.063 97.1148C281.536 95.3675 281.461 93.4113 280.535 91.8557C280.031 91.0086 279.1 90.2499 278.142 90.4845C277.528 90.6347 277.066 91.1706 276.843 91.7612C276.619 92.3519 276.597 92.9971 276.59 93.6285C276.579 94.6046 276.602 95.5987 276.908 96.5254C277.215 97.4521 277.847 98.3151 278.752 98.683C279.082 98.8175 279.454 98.8821 279.798 98.7875ZM173.163 302.075C173.167 301.855 173.169 301.626 173.073 301.428C172.884 301.042 172.403 300.917 171.98 300.836C171.091 300.664 170.202 300.493 169.313 300.321C168.668 300.196 167.772 300.221 167.623 300.861C167.543 301.204 167.751 301.544 167.968 301.822C168.932 303.058 170.285 303.987 171.786 304.443C172.216 304.574 172.781 304.619 173.019 304.238C173.123 304.07 173.129 303.862 173.133 303.665C173.143 303.135 173.153 302.605 173.163 302.075ZM221.528 310.823C221.666 310.757 221.806 310.683 221.897 310.561C222.109 310.276 221.97 309.872 221.805 309.557C221.406 308.794 220.893 308.09 220.288 307.478C220.2 307.389 220.097 307.296 219.972 307.298C219.821 307.3 219.712 307.438 219.628 307.564C218.996 308.516 218.496 309.556 218.148 310.644C218.04 310.982 217.983 311.431 218.283 311.621C219.404 311.583 220.517 311.31 221.528 310.823Z" fill="black"/>
<path d="M105.638 82.8648C106.759 81.5934 107.806 80.3621 108.904 79.1784C109.107 78.9591 109.517 78.9315 109.832 78.8155C109.722 79.1036 109.67 79.4369 109.491 79.6722C108.635 80.7933 107.697 81.8553 106.901 83.0149C106.707 83.297 106.764 84.05 107.001 84.2735C107.695 84.9282 108.518 85.4566 109.334 85.965C109.583 86.1201 110.081 86.1997 110.278 86.0564C111.016 85.5172 111.692 84.8875 112.345 84.2442C112.416 84.1739 112.251 83.7205 112.082 83.5751C111.428 83.0099 110.704 82.5245 110.06 81.9499C109.845 81.7586 109.789 81.3889 109.661 81.1007C109.971 81.119 110.352 81.0287 110.578 81.1758C111.271 81.6256 111.916 82.152 112.557 82.6754C113.778 83.6709 113.746 84.4859 112.485 85.507C111.974 85.9206 111.454 86.3287 110.987 86.7892C110.387 87.3811 109.801 87.3953 109.13 86.9279C108.228 86.2998 107.273 85.7434 106.404 85.0741C105.728 84.5533 105.185 83.8936 105.638 82.8648Z" fill="#FFB61D"/>
<path d="M310.219 205.899C309.354 205.789 307.967 204.621 307.791 203.845C307.415 202.19 307.861 200.834 309.2 200.23C309.952 199.891 310.857 199.827 311.7 199.785C311.966 199.772 312.255 200.233 312.534 200.477C312.163 200.577 311.752 200.831 311.429 200.747C310.662 200.546 310.046 200.652 309.426 201.144C308.516 201.865 308.533 203.247 308.921 204.016C309.458 205.081 310.463 205.009 311.384 204.912C312.108 204.836 313.147 203.783 313.015 202.768C312.974 202.461 313.28 202.109 313.427 201.777C313.581 202.102 313.857 202.422 313.869 202.753C313.945 204.766 312.275 206.23 310.219 205.899Z" fill="#FFB61D"/>
<path d="M226.713 187.236C226.209 171.864 231.536 204.863 231.596 205.884C231.662 207.007 231.53 207.971 231.404 208.893L231.404 208.893V208.893C231.309 209.593 231.216 210.27 231.216 210.974V222.242C231.216 226.849 231.212 231.434 230.998 236.031C230.954 236.977 230.864 237.92 230.774 238.862L230.774 238.863C230.648 240.18 230.522 241.497 230.522 242.822C230.522 244.7 230.388 246.579 230.059 248.43C229.38 252.246 229.364 255.963 229.364 259.827C229.364 261.249 229.306 262.665 229.248 264.081L229.248 264.081C229.191 265.498 229.133 266.916 229.133 268.342L229.123 285.601C229.086 285.973 229.066 286.358 229.047 286.746C229 287.676 228.953 288.62 228.657 289.419C228.651 289.711 228.625 290.001 228.6 290.29L228.6 290.29L228.6 290.291C228.57 290.626 228.541 290.961 228.541 291.301C228.541 291.417 228.545 291.536 228.549 291.657C228.561 292.01 228.574 292.375 228.482 292.705C228.395 293.021 228.324 293.325 228.256 293.621C228.063 294.455 227.885 295.225 227.37 296.031C227.267 296.191 227.167 296.349 227.07 296.504L227.07 296.505C226.415 297.55 225.85 298.451 224.792 299.124C222.418 300.635 219.744 299.977 216.476 300.132C193.866 301.204 225.548 292.068 222.272 255.78C229.047 245.952 226.959 194.748 226.713 187.236Z" fill="#E7EAEE"/>
</svg>
