<svg width="127" height="41" viewBox="0 0 127 41" fill="none" xmlns="http://www.w3.org/2000/svg">
<path d="M6.24555 22.0322C6.68962 25.2307 9.00681 27.2309 12.8399 27.2309C16.3156 27.2309 18.0986 25.5868 18.0986 23.3669C18.0986 21.5463 16.6262 20.1252 14.2656 19.5461L8.96341 18.2148C3.39414 16.7936 0.676287 13.9946 0.676287 9.33174C0.676287 3.6904 5.35406 0.0493164 11.4609 0.0493164C17.9216 0.0493164 22.4659 4.09312 23.3139 10.0007H17.4308C16.7631 6.93542 14.7564 5.02502 11.4141 5.02502C8.69629 5.02502 6.64622 6.44617 6.64622 8.88908C6.64622 10.8893 8.07193 12.0443 10.4793 12.6633L15.738 14.0412C21.5744 15.5522 24.0719 18.2148 24.0719 22.881C24.0719 28.1662 19.6612 32.21 12.7964 32.21C5.97844 32.21 0.899996 28.0796 0.40918 22.0389H6.24555V22.0322Z" fill="black"/>
<path d="M52.2752 40.9999H46.4388V29.5841C44.3887 31.2715 41.8478 32.2933 39.0431 32.2933C32.1817 32.2933 26.7427 26.8749 26.7427 20.2118C26.7427 13.592 32.1784 8.13037 39.0431 8.13037C41.8512 8.13037 44.4354 9.15214 46.4855 10.8828V8.70616H52.2785V40.9999H52.2752ZM39.5306 13.1926C35.6976 13.1926 32.5357 16.3478 32.5357 20.2118C32.5357 24.1192 35.7009 27.1845 39.5306 27.1845C43.4071 27.1845 46.5256 24.1192 46.5256 20.2118C46.5256 16.3444 43.4071 13.1926 39.5306 13.1926Z" fill="black"/>
<path d="M56.2851 8.70605H62.1214V22.1654C62.1214 25.0077 64.038 27.0945 66.8894 27.0945C69.7408 27.0945 71.7007 25.0942 71.7007 22.1654V8.70605H77.5371V31.6708H71.7007V29.6273C70.0947 31.2714 67.8677 32.2033 65.3735 32.2033C59.9812 32.2033 56.2817 28.2927 56.2817 23.3203V8.70605H56.2851Z" fill="black"/>
<path d="M93.4005 27.1378C95.8512 27.1378 97.8579 25.9829 99.1934 24.1623L103.337 27.1844C101.02 30.2064 97.9013 32.2466 93.4005 32.2466C86.2719 32.2466 80.7461 26.8282 80.7461 20.1651C80.7461 13.502 86.2719 8.12695 93.4005 8.12695C97.9013 8.12695 101.02 10.1705 103.337 13.1892L99.1934 16.2112C97.8579 14.3907 95.8512 13.2358 93.4005 13.2358C89.6142 13.2358 86.5391 16.3011 86.5391 20.1651C86.5391 24.0292 89.6142 27.1378 93.4005 27.1378Z" fill="black"/>
<path d="M111.581 31.6709H105.744V0.578613H111.581V10.7064C113.187 9.019 115.457 8.08377 117.998 8.08377C123.343 8.08377 126.999 12.0377 126.999 17.0567V31.6709H121.163V18.2116C121.163 15.2361 119.247 13.2825 116.395 13.2825C113.587 13.2825 111.581 15.1496 111.581 18.2116V31.6709Z" fill="black"/>
</svg>
