<svg width="22" height="22" viewBox="0 0 22 22" fill="none" xmlns="http://www.w3.org/2000/svg">
<path d="M11.8433 2.07165L17.8108 5.28915C18.5075 5.66498 18.5075 6.73748 17.8108 7.11331L11.8433 10.3308C11.3117 10.615 10.6883 10.615 10.1567 10.3308L4.18917 7.11331C3.49251 6.73748 3.49251 5.66498 4.18917 5.28915L10.1567 2.07165C10.6883 1.78748 11.3117 1.78748 11.8433 2.07165Z" stroke="#9B9B9B" stroke-width="1.5" stroke-linecap="round" stroke-linejoin="round"/>
<path d="M3.30916 9.28583L8.85499 12.0633C9.54249 12.4117 9.9825 13.1175 9.9825 13.8875V19.1308C9.9825 19.8917 9.18499 20.3775 8.50666 20.0383L2.96083 17.2608C2.27333 16.9125 1.83333 16.2067 1.83333 15.4367V10.1933C1.83333 9.43249 2.63083 8.94666 3.30916 9.28583Z" stroke="#9B9B9B" stroke-width="1.5" stroke-linecap="round" stroke-linejoin="round"/>
<path d="M18.6908 9.28583L13.145 12.0633C12.4575 12.4117 12.0175 13.1175 12.0175 13.8875V19.1308C12.0175 19.8917 12.815 20.3775 13.4933 20.0383L19.0392 17.2608C19.7267 16.9125 20.1667 16.2067 20.1667 15.4367V10.1933C20.1667 9.43249 19.3692 8.94666 18.6908 9.28583Z" stroke="#9B9B9B" stroke-width="1.5" stroke-linecap="round" stroke-linejoin="round"/>
</svg>
