<svg width="18" height="18" viewBox="0 0 18 18" fill="none" xmlns="http://www.w3.org/2000/svg">
<path d="M16.5 13.7475C16.5 14.0175 16.44 14.295 16.3125 14.565C16.185 14.835 16.02 15.09 15.8025 15.33C15.435 15.735 15.03 16.0275 14.5725 16.215C14.1225 16.4025 13.6275 16.5 13.1025 16.5C12.3375 16.5 11.52 16.32 10.6575 15.9525C9.79498 15.585 8.92498 15.09 8.06998 14.4675C7.63498 14.145 7.20748 13.815 6.79498 13.455L9.23998 11.01C9.24748 11.01 9.24748 11.01 9.25498 11.0175C9.64498 11.3475 9.96748 11.5725 10.2225 11.7075C10.26 11.7225 10.305 11.745 10.3575 11.7675C10.4175 11.79 10.4775 11.7975 10.545 11.7975C10.6725 11.7975 10.77 11.7525 10.8525 11.67L11.4225 11.1075C11.61 10.92 11.79 10.7775 11.9625 10.6875C12.135 10.5825 12.3075 10.53 12.495 10.53C12.6375 10.53 12.7875 10.56 12.9525 10.6275C13.1175 10.695 13.29 10.7925 13.4775 10.92L15.9675 12.6825C16.1625 12.8175 16.2975 12.975 16.38 13.1625C16.455 13.35 16.5 13.5375 16.5 13.7475Z" fill="#161925"/>
<path d="M8.07 9.93L5.625 12.375C5.6175 12.375 5.6175 12.375 5.61 12.3675C4.8375 11.5875 4.14 10.77 3.51 9.915C2.9025 9.075 2.415 8.2275 2.055 7.395C2.0475 7.38 2.0475 7.3725 2.04 7.3575C1.68 6.5025 1.5 5.685 1.5 4.905C1.5 4.395 1.59 3.9075 1.77 3.4575C1.92 3.075 2.145 2.715 2.4525 2.3925C2.505 2.3325 2.565 2.265 2.6325 2.205C2.7525 2.085 2.8725 1.98 3 1.8975C3.0075 1.8975 3.0075 1.8975 3.0075 1.8975C3.3825 1.6275 3.78 1.5 4.2 1.5C4.41 1.5 4.62 1.545 4.8075 1.635C4.9875 1.7175 5.145 1.8375 5.2725 2.01C5.2875 2.025 5.295 2.04 5.31 2.055L7.05 4.5075C7.185 4.695 7.2825 4.8675 7.35 5.0325C7.4175 5.19 7.455 5.3475 7.455 5.49C7.455 5.67 7.4025 5.85 7.2975 6.0225C7.2 6.195 7.0575 6.375 6.8775 6.555L6.3075 7.1475C6.225 7.23 6.1875 7.3275 6.1875 7.4475C6.1875 7.5075 6.195 7.56 6.21 7.62C6.2325 7.68 6.255 7.725 6.27 7.77C6.405 8.0175 6.6375 8.34 6.9675 8.73C7.305 9.12 7.665 9.5175 8.055 9.915C8.0625 9.9225 8.0625 9.9225 8.07 9.93Z" fill="#161925"/>
<path d="M16.3275 1.67253C16.1025 1.44753 15.735 1.44753 15.51 1.67253L1.67247 15.5175C1.44747 15.7425 1.44747 16.11 1.67247 16.335C1.78497 16.44 1.92747 16.5 2.07747 16.5C2.22747 16.5 2.36997 16.44 2.48247 16.3275L16.3275 2.48253C16.56 2.25753 16.56 1.89753 16.3275 1.67253Z" fill="#161925"/>
</svg>
