<svg width="18" height="18" viewBox="0 0 18 18" fill="none" xmlns="http://www.w3.org/2000/svg">
<path d="M15 6.55023C15 6.7961 14.7908 7 14.5385 7H3.46154C3.20923 7 3 6.7961 3 6.55023C3 6.30435 3.20923 6.10045 3.46154 6.10045H4.08923L4.32308 5.01499C4.54462 3.96552 5.00615 3 6.84 3H11.16C12.9938 3 13.4554 3.96552 13.6769 5.01499L13.9108 6.10045H14.5385C14.7908 6.10045 15 6.30435 15 6.55023Z" fill="#161925"/>
<path d="M15.6279 10.1824C15.5302 9.1264 15.2437 8 13.1538 8H4.84618C2.75625 8 2.47629 9.1264 2.37212 10.1824L2.00752 14.08C1.96195 14.5664 2.12471 15.0528 2.46327 15.4176C2.80834 15.7888 3.29664 16 3.81749 16H5.0415C6.09623 16 6.29806 15.4048 6.42828 15.0144L6.55849 14.6304C6.70824 14.1888 6.7473 14.08 7.33326 14.08H10.6667C11.2527 14.08 11.2722 14.144 11.4415 14.6304L11.5717 15.0144C11.7019 15.4048 11.9038 16 12.9585 16H14.1825C14.6969 16 15.1917 15.7888 15.5367 15.4176C15.8753 15.0528 16.0381 14.5664 15.9925 14.08L15.6279 10.1824ZM7.04679 11.52H5.09359C4.82665 11.52 4.60529 11.3024 4.60529 11.04C4.60529 10.7776 4.82665 10.56 5.09359 10.56H7.04679C7.31373 10.56 7.53509 10.7776 7.53509 11.04C7.53509 11.3024 7.31373 11.52 7.04679 11.52ZM12.9064 11.52H10.9532C10.6863 11.52 10.4649 11.3024 10.4649 11.04C10.4649 10.7776 10.6863 10.56 10.9532 10.56H12.9064C13.1734 10.56 13.3947 10.7776 13.3947 11.04C13.3947 11.3024 13.1734 11.52 12.9064 11.52Z" fill="#161925"/>
<circle cx="13.5" cy="4.5" r="4.5" fill="white"/>
<path d="M15.0118 6.01204L15.0119 6.01194C15.1642 5.85957 15.2498 5.65295 15.2498 5.4375C15.2498 5.22205 15.1642 5.01543 15.0119 4.86306L15.0118 4.86301L14.3123 4.16352V2.625C14.3123 2.40951 14.2267 2.20285 14.0743 2.05048C13.922 1.8981 13.7153 1.8125 13.4998 1.8125C13.2843 1.8125 13.0777 1.8981 12.9253 2.05048C12.7729 2.20285 12.6873 2.40951 12.6873 2.625V4.5V4.50011C12.6874 4.71555 12.773 4.92216 12.9253 5.07449C12.9253 5.07451 12.9254 5.07453 12.9254 5.07454L13.8628 6.01199L13.8629 6.01204C14.0152 6.16436 14.2219 6.24993 14.4373 6.24993C14.6528 6.24993 14.8594 6.16436 15.0118 6.01204ZM11.8678 2.05756C12.3508 1.73483 12.9186 1.56256 13.4995 1.5625C14.2784 1.5635 15.025 1.87333 15.5758 2.42406C16.1265 2.97477 16.4363 3.72139 16.4373 4.5002C16.4373 5.08111 16.265 5.64897 15.9423 6.13199C15.6195 6.61506 15.1607 6.99156 14.624 7.2139C14.0872 7.43623 13.4966 7.4944 12.9267 7.38106C12.3569 7.26771 11.8335 6.98794 11.4227 6.57713C11.0119 6.16631 10.7321 5.6429 10.6188 5.07308C10.5054 4.50326 10.5636 3.91263 10.7859 3.37587C11.0083 2.83911 11.3848 2.38033 11.8678 2.05756Z" fill="#161925" stroke="#161925"/>
</svg>
