<svg width="22" height="22" viewBox="0 0 22 22" fill="none" xmlns="http://www.w3.org/2000/svg">
<path d="M18.1097 7.72985V5.67651H3.89038V7.72985" fill="#52C392"/>
<path d="M18.1097 8.09697C17.908 8.09697 17.743 7.93197 17.743 7.7303V6.04364H4.25702V7.7303C4.25702 7.93197 4.09202 8.09697 3.89035 8.09697C3.68868 8.09697 3.52368 7.93197 3.52368 7.7303V5.67697C3.52368 5.4753 3.68868 5.3103 3.89035 5.3103H18.1097C18.3113 5.3103 18.4763 5.4753 18.4763 5.67697V7.7303C18.4763 7.93197 18.3113 8.09697 18.1097 8.09697Z" fill="#161925"/>
<path d="M2.70972 7.73022H19.2867V16.6402H2.70972V7.73022Z" fill="#52C392"/>
<path d="M19.2904 17.0073H2.70968C2.50802 17.0073 2.34302 16.8423 2.34302 16.6407V7.73068C2.34302 7.52901 2.50802 7.36401 2.70968 7.36401H19.2867C19.4884 7.36401 19.6534 7.52901 19.6534 7.73068V16.6407C19.657 16.8423 19.492 17.0073 19.2904 17.0073ZM3.07635 16.274H18.92V8.09735H3.07635V16.274Z" fill="#161925"/>
<path d="M16.8264 16.6402H5.17372C5.17372 15.2799 4.07005 14.1762 2.70972 14.1762V10.1942C4.07005 10.1942 5.17372 9.09056 5.17372 7.73022H16.8227C16.8227 9.09056 17.9264 10.1942 19.2867 10.1942V14.1762C17.9264 14.1762 16.8264 15.2799 16.8264 16.6402Z" fill="#52C392"/>
<path d="M16.8264 17.0073H5.17368C4.97202 17.0073 4.80702 16.8423 4.80702 16.6407C4.80702 15.482 3.86468 14.5433 2.70968 14.5433C2.50802 14.5433 2.34302 14.3783 2.34302 14.1767V10.1947C2.34302 9.99301 2.50802 9.82801 2.70968 9.82801C3.86468 9.82801 4.80702 8.88568 4.80702 7.73068C4.80702 7.52901 4.97202 7.36401 5.17368 7.36401H16.8227C17.0244 7.36401 17.1894 7.52901 17.1894 7.73068C17.1894 8.88935 18.1317 9.82801 19.2867 9.82801C19.4884 9.82801 19.6534 9.99301 19.6534 10.1947V14.1767C19.6534 14.3783 19.4884 14.5433 19.2867 14.5433C18.1317 14.5433 17.1894 15.4857 17.1894 16.6407C17.193 16.8423 17.028 17.0073 16.8264 17.0073ZM5.51835 16.274H16.4817C16.6467 15.0053 17.655 13.997 18.9237 13.832V10.5357C17.655 10.3707 16.6467 9.36235 16.4817 8.09368H5.51835C5.35335 9.36235 4.34502 10.3707 3.07635 10.5357V13.832C4.34502 13.997 5.35335 15.0053 5.51835 16.274Z" fill="#161925"/>
<path d="M11 14.9023C10.1493 14.9023 9.4563 14.2093 9.4563 13.3586C9.4563 13.1569 9.6213 12.9919 9.82297 12.9919C10.0246 12.9919 10.1896 13.1569 10.1896 13.3586C10.1896 13.8059 10.5526 14.1689 11 14.1689C11.4473 14.1689 11.8103 13.8059 11.8103 13.3586C11.8103 12.8599 11.242 12.6289 10.9046 12.5373C9.9733 12.2806 9.45996 11.7379 9.45996 11.0083C9.45996 10.1576 10.153 9.4646 11.0036 9.4646C11.8543 9.4646 12.5473 10.1576 12.5473 11.0083C12.5473 11.2099 12.3823 11.3749 12.1806 11.3749C11.979 11.3749 11.814 11.2099 11.814 11.0083C11.814 10.5609 11.451 10.1979 11.0036 10.1979C10.5563 10.1979 10.1933 10.5609 10.1933 11.0083C10.1933 11.3896 10.4976 11.6646 11.099 11.8296C12.0156 12.0826 12.5436 12.6399 12.5436 13.3586C12.5436 14.2129 11.8506 14.9023 11 14.9023Z" fill="#161925"/>
<path d="M11.0002 10.1975C10.7985 10.1975 10.6335 10.0325 10.6335 9.83082V9.21115C10.6335 9.00948 10.7985 8.84448 11.0002 8.84448C11.2019 8.84448 11.3669 9.00948 11.3669 9.21115V9.83082C11.3669 10.0361 11.2019 10.1975 11.0002 10.1975Z" fill="#161925"/>
<path d="M11.0002 15.5217C10.7985 15.5217 10.6335 15.3567 10.6335 15.155V14.5354C10.6335 14.3337 10.7985 14.1687 11.0002 14.1687C11.2019 14.1687 11.3669 14.3337 11.3669 14.5354V15.155C11.3669 15.3567 11.2019 15.5217 11.0002 15.5217Z" fill="#161925"/>
</svg>
