<svg width="22" height="22" viewBox="0 0 22 22" fill="none" xmlns="http://www.w3.org/2000/svg">
<path fill-rule="evenodd" clip-rule="evenodd" d="M4.85189 4.85188C5.02379 4.68002 5.25691 4.58349 5.49997 4.58349C5.74303 4.58349 5.97615 4.68002 6.14805 4.85188L10.9999 9.70379L15.8519 4.85188C15.9365 4.76432 16.0376 4.69449 16.1494 4.64644C16.2612 4.5984 16.3816 4.57312 16.5032 4.57206C16.625 4.571 16.7457 4.59419 16.8584 4.64028C16.971 4.68637 17.0733 4.75445 17.1594 4.84051C17.2455 4.92658 17.3136 5.02892 17.3597 5.14158C17.4057 5.25424 17.4289 5.37495 17.4279 5.49666C17.4268 5.61838 17.4015 5.73866 17.3535 5.85049C17.3054 5.96233 17.2356 6.06348 17.148 6.14803L12.2961 11L17.148 15.8519C17.315 16.0248 17.4074 16.2563 17.4053 16.4967C17.4032 16.737 17.3069 16.9669 17.1368 17.1369C16.9669 17.3068 16.737 17.4032 16.4966 17.4053C16.2563 17.4075 16.0247 17.3151 15.8519 17.148L10.9999 12.2961L6.14805 17.148C5.97517 17.3151 5.74362 17.4075 5.50327 17.4053C5.26292 17.4032 5.03301 17.3068 4.86305 17.1369C4.69309 16.9669 4.59669 16.737 4.59461 16.4967C4.59252 16.2563 4.68491 16.0248 4.85189 15.8519L9.70378 11L4.85189 6.14803C4.68004 5.97614 4.5835 5.74302 4.5835 5.49995C4.5835 5.25689 4.68004 5.02377 4.85189 4.85188Z" fill="black"/>
</svg>
