<svg width="24" height="24" viewBox="0 0 24 24" fill="none" xmlns="http://www.w3.org/2000/svg">
<path d="M3.83252 12C3.83252 12.7125 4.62002 13.3125 4.79627 13.9669C4.97252 14.6213 4.60877 15.5569 4.94252 16.1513C5.27627 16.7456 6.27377 16.8825 6.76314 17.3719C7.25252 17.8613 7.38002 18.8419 7.98189 19.1906C8.58377 19.5394 9.48189 19.1569 10.1681 19.3388C10.8544 19.5206 11.4225 20.3025 12.135 20.3025C12.8475 20.3025 13.4475 19.515 14.1019 19.3388C14.7563 19.1625 15.6919 19.5263 16.2863 19.1906C16.8806 18.855 17.0156 17.8613 17.5069 17.3719C17.9981 16.8825 18.9769 16.755 19.3256 16.1531C19.6744 15.5513 19.2919 14.6531 19.4738 13.9669C19.6556 13.2806 20.4375 12.7125 20.4375 12C20.4375 11.2875 19.65 10.6875 19.4738 10.0331C19.2975 9.37876 19.6613 8.44313 19.3256 7.84688C18.99 7.25063 18 7.12501 17.5069 6.62813C17.0138 6.13126 16.89 5.15813 16.2863 4.80938C15.6825 4.46063 14.7863 4.84313 14.1019 4.66126C13.4175 4.47939 12.8456 3.69751 12.135 3.69751C11.4244 3.69751 10.8225 4.48501 10.1681 4.66126C9.51377 4.83751 8.57627 4.46438 7.98189 4.80751C7.38752 5.15063 7.25252 6.13876 6.76314 6.62813C6.27377 7.11751 5.29314 7.24501 4.94252 7.84688C4.59189 8.44876 4.97627 9.34688 4.79627 10.0331C4.61627 10.7194 3.83252 11.2875 3.83252 12Z" fill="#10C36D"/>
<path d="M11.0626 15.1538C11.2862 15.1534 11.5006 15.0644 11.6588 14.9063L16.2769 10.2863C16.4351 10.1279 16.5238 9.91323 16.5236 9.68942C16.5235 9.4656 16.4344 9.25103 16.276 9.09289C16.1176 8.93476 15.9029 8.84602 15.6791 8.84619C15.4553 8.84637 15.2407 8.93545 15.0826 9.09383L11.0626 13.1251L8.91757 10.9726C8.83914 10.8942 8.74604 10.8319 8.64358 10.7895C8.54111 10.7471 8.43129 10.7252 8.32038 10.7252C8.20947 10.7252 8.09965 10.7471 7.99718 10.7895C7.89472 10.8319 7.80162 10.8942 7.72319 10.9726C7.64477 11.051 7.58256 11.1441 7.54012 11.2466C7.49767 11.349 7.47583 11.4589 7.47583 11.5698C7.47583 11.6807 7.49767 11.7905 7.54012 11.893C7.58256 11.9954 7.64477 12.0885 7.72319 12.167L10.4644 14.9063C10.543 14.9848 10.6363 15.0471 10.7389 15.0896C10.8415 15.132 10.9515 15.1539 11.0626 15.1538Z" fill="#FFF7ED"/>
</svg>
