<svg width="24" height="24" viewBox="0 0 24 24" fill="none" xmlns="http://www.w3.org/2000/svg">
<circle cx="12" cy="12" r="12" fill="#03DAC5" fill-opacity="0.1"/>
<path d="M12 5.33333C10.2533 5.33333 8.83331 6.75333 8.83331 8.49999C8.83331 10.2133 10.1733 11.6 11.92 11.66C11.9733 11.6533 12.0266 11.6533 12.0666 11.66C12.08 11.66 12.0866 11.66 12.1 11.66C12.1066 11.66 12.1066 11.66 12.1133 11.66C13.82 11.6 15.16 10.2133 15.1666 8.49999C15.1666 6.75333 13.7466 5.33333 12 5.33333Z" fill="#03DAC5"/>
<path d="M15.3866 13.4333C13.5266 12.1933 10.4933 12.1933 8.61997 13.4333C7.77331 14 7.30664 14.7667 7.30664 15.5867C7.30664 16.4067 7.77331 17.1667 8.61331 17.7267C9.54664 18.3533 10.7733 18.6667 12 18.6667C13.2266 18.6667 14.4533 18.3533 15.3866 17.7267C16.2266 17.16 16.6933 16.4 16.6933 15.5733C16.6866 14.7533 16.2266 13.9933 15.3866 13.4333ZM13.2933 16.1733C13.4866 16.3667 13.4866 16.6867 13.2933 16.88C13.1933 16.98 13.0666 17.0267 12.94 17.0267C12.8133 17.0267 12.6866 16.98 12.5866 16.88L12 16.2933L11.4133 16.88C11.3133 16.98 11.1866 17.0267 11.06 17.0267C10.9333 17.0267 10.8066 16.98 10.7066 16.88C10.5133 16.6867 10.5133 16.3667 10.7066 16.1733L11.2933 15.5867L10.7066 15C10.5133 14.8067 10.5133 14.4867 10.7066 14.2933C10.9 14.1 11.22 14.1 11.4133 14.2933L12 14.88L12.5866 14.2933C12.78 14.1 13.1 14.1 13.2933 14.2933C13.4866 14.4867 13.4866 14.8067 13.2933 15L12.7066 15.5867L13.2933 16.1733Z" fill="#03DAC5"/>
</svg>
