<svg width="20" height="20" viewBox="0 0 20 20" fill="none" xmlns="http://www.w3.org/2000/svg">
<path d="M10.625 13.2666H11.1667C11.7083 13.2666 12.1583 12.7833 12.1583 12.1999C12.1583 11.4749 11.9 11.3333 11.475 11.1833L10.6333 10.8916V13.2666H10.625Z" fill="#161925"/>
<path d="M9.97502 1.58327C5.37502 1.59993 1.65002 5.3416 1.66668 9.9416C1.68335 14.5416 5.42501 18.2666 10.025 18.2499C14.625 18.2333 18.35 14.4916 18.3333 9.8916C18.3167 5.2916 14.575 1.57493 9.97502 1.58327ZM11.8833 9.99993C12.5333 10.2249 13.4083 10.7083 13.4083 12.1999C13.4083 13.4833 12.4 14.5166 11.1667 14.5166H10.625V14.9999C10.625 15.3416 10.3417 15.6249 10 15.6249C9.65835 15.6249 9.37502 15.3416 9.37502 14.9999V14.5166H9.07502C7.70835 14.5166 6.60002 13.3666 6.60002 11.9499C6.60002 11.6083 6.88335 11.3249 7.22502 11.3249C7.56668 11.3249 7.85002 11.6083 7.85002 11.9499C7.85002 12.6749 8.40002 13.2666 9.07502 13.2666H9.37502V10.4499L8.11668 9.99993C7.46668 9.77493 6.59168 9.2916 6.59168 7.79993C6.59168 6.5166 7.60002 5.48327 8.83335 5.48327H9.37502V4.99993C9.37502 4.65827 9.65835 4.37493 10 4.37493C10.3417 4.37493 10.625 4.65827 10.625 4.99993V5.48327H10.925C12.2917 5.48327 13.4 6.63327 13.4 8.04993C13.4 8.3916 13.1167 8.67493 12.775 8.67493C12.4333 8.67493 12.15 8.3916 12.15 8.04993C12.15 7.32493 11.6 6.73327 10.925 6.73327H10.625V9.54993L11.8833 9.99993Z" fill="#161925"/>
<path d="M7.84998 7.8084C7.84998 8.5334 8.10831 8.67507 8.53331 8.82507L9.37498 9.11673V6.7334H8.83331C8.29164 6.7334 7.84998 7.21673 7.84998 7.8084Z" fill="#161925"/>
</svg>
