<svg width="100" height="100" viewBox="0 0 100 100" fill="none" xmlns="http://www.w3.org/2000/svg">
<g clip-path="url(#clip0_1_2)">
<mask id="mask0_1_2" style="mask-type:luminance" maskUnits="userSpaceOnUse" x="2" y="2" width="96" height="96">
<path d="M97.6462 50.0001C97.6462 76.3142 76.3142 97.6462 49.9999 97.6462C23.6855 97.6462 2.35352 76.3142 2.35352 50.0001C2.35352 23.6858 23.6855 2.3537 49.9999 2.3537C76.3142 2.3537 97.6462 23.6858 97.6462 50.0001Z" fill="white"/>
</mask>
<g mask="url(#mask0_1_2)">
<path d="M1.43872 101.775H99.0807V2.00314H1.43872V101.775Z" fill="#7B7593"/>
<path d="M25.2807 90.7408C12.7719 83.1355 4.04434 69.9324 2.57361 54.6087H25.2807V90.7408ZM75.3546 90.3474V62.9785L77.9929 65.0674C78.1642 65.203 78.3588 65.2641 78.5491 65.2641C79.0163 65.2641 79.4565 64.8959 79.4565 64.3595V54.6087H81.4606V66.2133C81.4606 67.3132 81.9635 68.3528 82.8259 69.0358L90.4996 75.1114C86.675 81.2667 81.4852 86.4867 75.3546 90.3474ZM96.6333 59.8197V54.6087H97.4262C97.2566 56.376 96.9906 58.1142 96.6333 59.8197Z" fill="#534D6B"/>
<path d="M81.4606 15.1821H79.4564V12.5481C80.1403 13.0867 80.8078 13.6427 81.4606 14.2171V15.1821ZM64.2835 15.1821H57.7552C55.4917 13.0817 52.5379 11.8109 49.3064 11.8109C46.0749 11.8109 43.1211 13.0817 40.8576 15.1821H17.475C22.5858 10.4057 28.7477 6.74236 35.5778 4.57581V7.21137C35.5778 8.93207 36.9726 10.3271 38.6935 10.3271H58.3435C60.0642 10.3271 61.4592 8.93207 61.4592 7.21137V3.94394C61.4592 3.87512 61.4569 3.80698 61.4526 3.73953C61.9823 3.87035 62.5097 4.01026 63.0323 4.15835C63.452 4.27736 63.8688 4.40205 64.2835 4.53219V15.1821Z" fill="#534D6B"/>
<path d="M82.9239 11.4568L95.2677 21.2303C96.1301 21.913 96.633 22.9528 96.633 24.0525V78.1011C96.633 78.8561 95.7615 79.2776 95.1696 78.8091L82.8256 69.0359C81.9632 68.3529 81.4603 67.3134 81.4603 66.2134V12.165C81.4603 11.4098 82.3318 10.9883 82.9239 11.4568Z" fill="#303C74"/>
<path d="M84.0584 14.1013L93.7112 21.8004C94.5675 22.4834 95.0665 23.5193 95.0665 24.615V75.0235C95.0665 75.78 94.1918 76.2011 93.6004 75.7294L83.9473 68.0305C83.0908 67.3475 82.592 66.3114 82.592 65.216V14.8075C82.592 14.0509 83.4667 13.6296 84.0584 14.1013Z" fill="#5D67EB"/>
<path d="M65.7474 -2.28467L78.091 7.48877C78.9534 8.1715 79.4565 9.21106 79.4565 10.311V64.3596C79.4565 65.1146 78.5848 65.5362 77.9929 65.0676L65.6491 55.2944C64.7864 54.6114 64.2836 53.5719 64.2836 52.4717V-1.5765C64.2836 -2.3317 65.1553 -2.75324 65.7474 -2.28467Z" fill="#303C74"/>
<path d="M66.8814 0.359311L76.5344 8.05819C77.3907 8.74139 77.8897 9.7773 77.8897 10.8727V61.2814C77.8897 62.038 77.0148 62.4591 76.4236 61.9873L66.7705 54.2885C65.914 53.6055 65.4153 52.5694 65.4153 51.4739V1.06545C65.4153 0.308899 66.2897 -0.112426 66.8814 0.359311Z" fill="#5D67EB"/>
</g>
<mask id="mask1_1_2" style="mask-type:luminance" maskUnits="userSpaceOnUse" x="2" y="2" width="96" height="96">
<path d="M97.6462 50.0001C97.6462 76.3142 76.3142 97.6462 49.9999 97.6462C23.6855 97.6462 2.35352 76.3142 2.35352 50.0001C2.35352 23.6858 23.6855 2.3537 49.9999 2.3537C76.3142 2.3537 97.6462 23.6858 97.6462 50.0001Z" fill="white"/>
</mask>
<g mask="url(#mask1_1_2)">
<mask id="mask2_1_2" style="mask-type:luminance" maskUnits="userSpaceOnUse" x="65" y="0" width="31" height="76">
<path d="M65.4153 1.0657V51.4742C65.4153 52.5696 65.914 53.6058 66.7705 54.2887L76.4236 61.9876C77.0148 62.4593 77.8897 62.0382 77.8897 61.2817V10.873C77.8897 9.77755 77.3907 8.74163 76.5344 8.05844L66.8814 0.359557C66.2897 -0.112183 65.4153 0.309142 65.4153 1.0657ZM84.0584 14.1011L93.7113 21.8002C94.5675 22.4832 95.0665 23.5191 95.0665 24.6148V75.0232C95.0665 75.7798 94.1919 76.2009 93.6004 75.7291L83.9474 68.0303C83.0909 67.3473 82.5921 66.3112 82.5921 65.2157V14.8073C82.5921 14.0507 83.4668 13.6294 84.0584 14.1011Z" fill="white"/>
</mask>
<g mask="url(#mask2_1_2)">
<path d="M65.4154 35.4429V34.9651C65.444 34.9728 65.4726 34.981 65.5015 34.9898L65.4154 35.4429Z" fill="#5A94D5"/>
<path d="M67.7263 39.7657C67.6491 39.7205 67.5712 39.6757 67.493 39.6317H67.7613C67.7483 39.6762 67.7367 39.7209 67.7263 39.7657Z" fill="#5A94D5"/>
<path d="M71.1661 42.5092C70.159 41.4395 69.0011 40.5135 67.7258 39.7656C67.7363 39.7208 67.7479 39.6761 67.7608 39.6316H69.2823L68.9841 38.0624C69.1872 37.9449 69.405 37.8548 69.6314 37.7939L69.2823 39.6316H71.7219C71.7862 39.9523 71.9088 40.2587 72.0832 40.5348C71.7741 40.8024 71.5222 41.1453 71.3592 41.5508C71.2324 41.8651 71.1702 42.1895 71.1661 42.5092Z" fill="#5A94D5"/>
<path d="M72.0834 40.5349C71.909 40.2588 71.7863 39.9524 71.722 39.6317H72.2703L71.9476 37.9325C72.1366 37.5501 72.4082 37.2307 72.7314 36.9879L72.2703 39.4141H76.973C76.9716 39.4257 76.9702 39.4375 76.9689 39.4491C76.3952 39.6246 75.8841 39.9923 75.5378 40.5088C75.3281 40.3326 75.0871 40.1859 74.8191 40.0777C74.4934 39.9467 74.1573 39.8845 73.8266 39.8845C73.1852 39.8845 72.5647 40.1182 72.0834 40.5349Z" fill="#5A94D5"/>
<path d="M73.8248 45.204C73.5988 45.204 73.3701 45.1749 73.1441 45.1147C72.5774 44.1764 71.9133 43.3031 71.1663 42.5093C71.1703 42.1895 71.2326 41.8652 71.3593 41.5509C71.5224 41.1454 71.7743 40.8025 72.0834 40.5349C72.5647 40.1182 73.1852 39.8844 73.8266 39.8844C74.1573 39.8844 74.4934 39.9467 74.8191 40.0777C75.0871 40.1858 75.3281 40.3326 75.5377 40.5088C75.4364 40.6599 75.3492 40.8236 75.2788 40.999C75.0124 41.6601 75.0308 42.3653 75.2761 42.979C75.0274 43.2988 74.8184 43.6584 74.6595 44.0527C74.5148 44.4122 74.4201 44.7795 74.3724 45.1467C74.1934 45.1844 74.0099 45.204 73.8248 45.204Z" fill="#5A94D5"/>
<path d="M75.2761 42.979C75.0309 42.3653 75.0125 41.6601 75.2789 40.9989C75.3493 40.8236 75.4365 40.6598 75.5378 40.5088C75.8842 39.9923 76.3952 39.6246 76.9689 39.449C77.0105 39.4363 77.0523 39.4247 77.0943 39.414H77.8899V41.3521C76.8672 41.5651 75.933 42.1343 75.2761 42.979Z" fill="#5A94D5"/>
<path d="M77.8899 50.0857C77.6346 50.0323 77.3802 49.956 77.1299 49.8549C75.205 49.0797 74.1166 47.1133 74.3724 45.1468C74.4201 44.7796 74.5148 44.4123 74.6595 44.0528C74.8185 43.6585 75.0274 43.2989 75.2761 42.9791C75.933 42.1345 76.8671 41.5653 77.8899 41.3522V50.0857Z" fill="#5A94D5"/>
<path d="M84.5141 49.7798C84.0826 49.7798 83.6442 49.6989 83.2195 49.5279C82.9953 49.4375 82.7859 49.3264 82.5922 49.1976V44.6872C82.9256 44.5886 83.2383 44.4251 83.5107 44.2054L82.84 47.734H84.9282C84.9261 47.739 84.9238 47.7443 84.9218 47.7493C84.6536 48.4156 84.5741 49.1113 84.6583 49.7768C84.6102 49.7789 84.5623 49.7798 84.5141 49.7798Z" fill="#5A94D5"/>
<path d="M88.073 53.2918C87.7718 53.2448 87.4715 53.163 87.1765 53.0442C85.7583 52.4732 84.8378 51.1934 84.6586 49.777C84.5743 49.1116 84.6538 48.4159 84.922 47.7495C84.9241 47.7445 84.9264 47.7393 84.9284 47.7343H88.6444L88.1695 45.2343C88.3439 45.2114 88.5204 45.1996 88.698 45.1996C88.8388 45.1996 88.9803 45.2068 89.1218 45.2218L88.6444 47.7343H92.1022L91.9168 48.7098C90.3785 48.7838 88.9487 49.7327 88.3355 51.2549C88.0659 51.9245 87.9869 52.6236 88.073 53.2918Z" fill="#5A94D5"/>
<path d="M92.1088 56.8453C91.6025 56.8453 91.0881 56.7503 90.5898 56.5496C89.1746 55.9797 88.2549 54.7044 88.0728 53.2917C87.9867 52.6235 88.0657 51.9244 88.3353 51.2548C88.9486 49.7326 90.3783 48.7837 91.9166 48.7096L91.275 52.0861H95.0667V55.5725C94.299 56.3833 93.2244 56.8453 92.1088 56.8453Z" fill="#5A94D5"/>
<path d="M82.5922 44.6875V39.5871C82.6726 39.611 82.7527 39.6389 82.8322 39.671C83.4132 39.9049 83.8666 40.321 84.1525 40.8268L83.5107 44.2057C83.2383 44.4254 82.9256 44.5889 82.5922 44.6875Z" fill="#5A94D5"/>
<path d="M88.6444 47.734H82.8402L83.5109 44.2054L84.1528 40.8265L85.7424 32.461L88.1695 45.2341L88.6444 47.734Z" fill="#5A94D5"/>
<path d="M92.1022 47.734H88.6444L89.1218 45.2216L90.5039 37.9481L92.2328 47.0465L92.1022 47.734Z" fill="#5A94D5"/>
<path d="M95.0668 52.0863H91.2751L91.9168 48.7098L92.1021 47.7343L92.2327 47.0468L94.7745 33.6707C94.8742 33.9444 94.9716 34.2194 95.0668 34.4956V52.0863Z" fill="#5A94D5"/>
<path d="M69.2824 39.6318H67.4927C66.829 39.258 66.1352 38.9321 65.4154 38.6584V35.4432L65.5015 34.9901L66.9508 27.3612L68.9842 38.0626L69.2824 39.6318Z" fill="#5A94D5"/>
<path d="M72.2703 39.6318H69.2825L69.6316 37.7942L70.7763 31.7694L71.9476 37.9327L72.2703 39.6318Z" fill="#5A94D5"/>
<path d="M77.8899 39.4144H72.2704L72.7315 36.9882L75.4061 22.9112L77.8899 35.9825V39.4144Z" fill="#5A94D5"/>
<path d="M47.389 95.6777H101.829V60.465L47.389 20.8782V95.6777Z" fill="#38383E"/>
</g>
</g>
<mask id="mask3_1_2" style="mask-type:luminance" maskUnits="userSpaceOnUse" x="2" y="2" width="96" height="96">
<path d="M97.6462 50.0001C97.6462 76.3142 76.3142 97.6462 49.9999 97.6462C23.6855 97.6462 2.35352 76.3142 2.35352 50.0001C2.35352 23.6858 23.6855 2.3537 49.9999 2.3537C76.3142 2.3537 97.6462 23.6858 97.6462 50.0001Z" fill="white"/>
</mask>
<g mask="url(#mask3_1_2)">
<path d="M75.3546 98.483H25.2806V53.0736C25.2806 44.5589 32.1834 37.6559 40.6986 37.6559H59.937C68.452 37.6559 75.3546 44.5589 75.3546 53.0736V98.483Z" fill="#282445"/>
<path d="M74.4568 98.483H26.1787V54.7024C26.1787 46.4929 32.8337 39.8377 41.0434 39.8377H59.5921C67.8017 39.8377 74.4568 46.4929 74.4568 54.7024V98.483Z" fill="#303C74"/>
<path d="M23.5979 98.4832H-26.4761V53.0738C-26.4761 44.5591 -19.5734 37.6561 -11.0584 37.6561H8.18026C16.6953 37.6561 23.5979 44.5591 23.5979 53.0738V98.4832Z" fill="#282445"/>
<path d="M22.6998 98.483H-25.5782V54.7024C-25.5782 46.4929 -18.9231 39.8377 -10.7133 39.8377H7.83513C16.0448 39.8377 22.6998 46.4929 22.6998 54.7024V98.483Z" fill="#303C74"/>
<path d="M68.6419 76.4075L71.525 82.9657L66.3238 78.6176L64.3733 81.6248C64.3733 81.6248 67.7459 86.1756 71.769 90.849C75.7918 95.5221 81.0336 94.2216 81.0336 94.2216C81.0336 94.2216 81.0704 88.8414 79.8921 83.0711C78.7138 77.301 77.1734 72.1975 77.1734 72.1975L68.6419 76.4075Z" fill="#FFADAD"/>
<path d="M69.7582 81.5048C70.4972 82.0038 71.2091 82.5357 71.9109 83.0795C72.6147 83.6207 73.302 84.182 73.9864 84.7468C74.6655 85.3178 75.3412 85.8931 76.0003 86.4877C76.6614 87.0805 77.3128 87.6851 77.9363 88.3229C77.1968 87.8241 76.4847 87.2924 75.7829 86.7487C75.0793 86.2073 74.3918 85.646 73.7077 85.0809C73.029 84.5092 72.3538 83.9339 71.6942 83.3393C71.0333 82.7465 70.3821 82.1421 69.7582 81.5048Z" fill="#282445"/>
<path d="M31.5012 76.4075L28.6181 82.9657L33.8193 78.6176L35.7698 81.6248C35.7698 81.6248 32.3973 86.1756 28.3744 90.849C24.3516 95.5221 19.1095 94.2216 19.1095 94.2216C19.1095 94.2216 19.0729 88.8414 20.2513 83.0711C21.4298 77.301 22.97 72.1975 22.97 72.1975L31.5012 76.4075Z" fill="#FFADAD"/>
<path d="M30.385 81.5048C29.7611 82.1421 29.1099 82.7465 28.4488 83.3393C27.7897 83.9339 27.114 84.5092 26.4353 85.0809C25.7514 85.646 25.0639 86.2073 24.3603 86.7487C23.6582 87.2924 22.9464 87.8241 22.2069 88.3229C22.8306 87.6851 23.4818 87.0805 24.1427 86.4877C24.802 85.8931 25.4777 85.3178 26.1569 84.7468C26.8412 84.182 27.5285 83.6207 28.2323 83.0795C28.9344 82.5357 29.6457 82.0038 30.385 81.5048Z" fill="#282445"/>
<path d="M63.7208 84.7159H36.3562L34.1763 96.2254H65.9529L63.7208 84.7159Z" fill="#282445"/>
<path d="M54.4675 46.5899L53.782 41.7235L50.0386 40.9508L46.2946 41.7235L45.6094 46.5899L50.2907 61.7117L54.4675 46.5899Z" fill="#FFADAD"/>
<path d="M68.7927 53.0332C63.9263 49.6744 54.4677 46.5901 54.4677 46.5901L50.2908 60.0784L45.6095 46.5901C45.6095 46.5901 36.1507 49.6744 31.2843 53.0332C26.4179 56.3917 20.2491 72.5671 20.2491 72.5671C20.2491 72.5671 21.6884 74.4863 24.4303 76.0628C27.1719 77.6391 30.736 78.0504 30.736 78.0504L33.752 70.9909L36.3562 84.7156C36.3562 84.7156 41.7963 86.9031 50.5509 86.9031C59.3057 86.9031 63.7208 84.7156 63.7208 84.7156L66.3254 70.9909L69.341 78.0504C69.341 78.0504 72.905 77.6391 75.6469 76.0628C78.3885 74.4863 79.8278 72.5671 79.8278 72.5671C79.8278 72.5671 73.6591 56.3917 68.7927 53.0332Z" fill="#5D67EB"/>
<path d="M35.8873 86.3454C35.898 86.3504 41.2336 88.9027 50.3657 88.9028C59.4988 88.9028 64.0464 86.2361 64.0598 86.228L63.9496 86.0404C63.9496 86.0404 63.9337 86.0497 63.8992 86.0687C63.3818 86.3534 58.8879 88.685 50.3657 88.6853C45.82 88.6853 42.2214 88.05 39.7603 87.4152C38.5297 87.0979 37.5837 86.7808 36.946 86.5432C36.6268 86.4244 36.3852 86.3257 36.2235 86.2567C36.1424 86.222 36.0817 86.1951 36.0411 86.1766C36.0007 86.1585 35.9814 86.1492 35.9814 86.1492L35.8873 86.3454Z" fill="#F4F4F4"/>
<path d="M62.2079 25.6118C62.2079 33.2337 56.4319 39.4126 49.3067 39.4126C42.1818 39.4126 36.4058 33.2337 36.4058 25.6118C36.4058 17.9897 42.1818 11.8105 49.3067 11.8105C56.4319 11.8105 62.2079 17.9897 62.2079 25.6118Z" fill="#282445"/>
<path d="M60.4052 28.0561C60.4052 34.1857 57.3372 43.5067 49.3065 43.5067C41.276 43.5067 38.208 34.1857 38.208 28.0561C38.208 21.9264 43.1771 16.9573 49.3065 16.9573C55.4362 16.9573 60.4052 21.9264 60.4052 28.0561Z" fill="#FFADAD"/>
<path d="M37.9723 31.8513C40.8777 31.8513 39.8318 21.9141 39.8318 21.9141H37.1006L37.9723 31.8513Z" fill="#282445"/>
<path d="M60.6407 31.8513C57.7348 31.8513 58.7812 21.9141 58.7812 21.9141H61.5124L60.6407 31.8513Z" fill="#282445"/>
<path d="M35.3465 31.7611C35.543 32.9735 36.3041 34.0823 37.3818 34.7266C37.7191 34.9286 38.0961 35.0887 38.4952 35.1055C39.3955 35.143 40.1993 34.4112 40.4625 33.5769C40.7262 32.7425 40.5552 31.8433 40.2718 31.0234C39.9052 29.9634 39.2138 28.8593 38.0754 28.6349C36.24 28.2729 35.1031 30.2593 35.3465 31.7611Z" fill="#FFADAD"/>
</g>
<mask id="mask4_1_2" style="mask-type:luminance" maskUnits="userSpaceOnUse" x="2" y="2" width="96" height="96">
<path d="M97.6462 50.0001C97.6462 76.3142 76.3142 97.6462 49.9999 97.6462C23.6855 97.6462 2.35352 76.3142 2.35352 50.0001C2.35352 23.6858 23.6855 2.3537 49.9999 2.3537C76.3142 2.3537 97.6462 23.6858 97.6462 50.0001Z" fill="white"/>
</mask>
<g mask="url(#mask4_1_2)">
<mask id="mask5_1_2" style="mask-type:luminance" maskUnits="userSpaceOnUse" x="35" y="29" width="5" height="6">
<path d="M38.6333 34.2122C38.1926 34.2122 37.6339 34.0852 37.057 33.6246C35.7706 32.5971 35.9368 30.828 35.9368 30.828C36.0624 30.5032 36.1982 30.175 36.4242 29.9041C36.6505 29.6331 36.9832 29.4235 37.3414 29.4203C37.3441 29.4203 37.3468 29.4203 37.3495 29.4203C37.588 29.4203 37.8174 29.51 38.0159 29.6345C38.7598 30.0996 39.075 30.9793 39.3423 31.7962C39.3635 31.8603 39.3844 31.9289 39.3662 31.9943C39.3496 32.0538 39.3035 32.1013 39.2588 32.1458C39.0353 32.3686 38.8118 32.5916 38.5881 32.8144C38.4777 32.9248 38.3584 33.0606 38.3861 33.2099C38.4005 33.288 38.4538 33.3532 38.5088 33.4116C38.7827 33.7025 39.1441 33.916 39.5388 34.02C39.5388 34.02 39.1752 34.2122 38.6333 34.2122Z" fill="white"/>
</mask>
<g mask="url(#mask5_1_2)">
<path d="M35.7704 34.2125H39.5386V29.4206H35.7704V34.2125Z" fill="#FC8D8D"/>
</g>
</g>
<mask id="mask6_1_2" style="mask-type:luminance" maskUnits="userSpaceOnUse" x="2" y="2" width="96" height="96">
<path d="M97.6462 50.0001C97.6462 76.3142 76.3142 97.6462 49.9999 97.6462C23.6855 97.6462 2.35352 76.3142 2.35352 50.0001C2.35352 23.6858 23.6855 2.3537 49.9999 2.3537C76.3142 2.3537 97.6462 23.6858 97.6462 50.0001Z" fill="white"/>
</mask>
<g mask="url(#mask6_1_2)">
<path d="M35.937 30.8282C36.0247 30.4769 36.1396 30.1214 36.3713 29.8111C36.6027 29.5107 36.9648 29.2581 37.3992 29.2604C37.6114 29.2613 37.8144 29.3217 37.9932 29.4123C38.1726 29.5027 38.3334 29.6174 38.4797 29.7505C38.7715 30.0181 38.9796 30.3528 39.1438 30.691C39.3037 31.0338 39.4198 31.3851 39.5281 31.7322C39.5408 31.7767 39.5603 31.8337 39.5649 31.9118C39.5733 31.9877 39.5424 32.0972 39.4979 32.1562C39.4064 32.2775 39.3491 32.31 39.2821 32.3797C39.1515 32.5046 39.0182 32.6271 38.884 32.7486C38.754 32.8719 38.5978 32.9932 38.5365 33.0972C38.5067 33.1522 38.4992 33.1831 38.5233 33.2389C38.5483 33.2943 38.6123 33.3641 38.6689 33.4272C38.9005 33.6841 39.2022 33.8833 39.539 34.0202C39.1772 33.9721 38.8247 33.8145 38.5294 33.5755C38.457 33.5128 38.3857 33.4588 38.3173 33.3584C38.243 33.2596 38.2371 33.0874 38.2903 32.9814C38.3375 32.8698 38.4077 32.7915 38.4713 32.7202L38.6553 32.5192C38.7772 32.3854 38.9001 32.2525 39.0252 32.1222C39.082 32.0606 39.1672 31.9779 39.1801 31.9509L39.1804 31.9379C39.1788 31.9255 39.1699 31.8955 39.1549 31.8544C39.0366 31.5153 38.9214 31.1791 38.7693 30.8689C38.6255 30.555 38.444 30.2652 38.2094 30.034C37.98 29.8002 37.6854 29.6154 37.3852 29.5827C37.086 29.5536 36.7622 29.706 36.5239 29.9445C36.2775 30.1829 36.1087 30.5087 35.937 30.8282Z" fill="#282445"/>
<path d="M63.2664 31.7616C63.0697 32.974 62.3089 34.0828 61.2311 34.7271C60.8936 34.9291 60.5168 35.0892 60.1178 35.106C59.2174 35.1435 58.4137 34.4117 58.1502 33.5774C57.8867 32.743 58.0577 31.8438 58.3412 31.0239C58.7075 29.9639 59.3989 28.8598 60.5375 28.6354C62.3729 28.2734 63.5099 30.2598 63.2664 31.7616Z" fill="#FFADAD"/>
<path d="M59.9798 34.2122C59.4378 34.2122 59.0742 34.0201 59.0742 34.0201C59.469 33.9161 59.8303 33.7026 60.104 33.4116C60.1592 33.3532 60.2123 33.2881 60.2269 33.2099C60.2546 33.0607 60.1353 32.9249 60.0247 32.8145C59.8012 32.5917 59.5778 32.3686 59.354 32.1458C59.3095 32.1013 59.2632 32.0538 59.2468 31.9943C59.2284 31.9289 59.2496 31.8603 59.2707 31.7963C59.538 30.9793 59.853 30.0997 60.5969 29.6345C60.7956 29.51 61.025 29.4203 61.2635 29.4203C61.2662 29.4203 61.2689 29.4203 61.2717 29.4203C61.6296 29.4235 61.9623 29.6331 62.1888 29.9041C62.4148 30.1751 62.5502 30.5033 62.676 30.8281C62.676 30.8281 62.8425 32.5971 61.556 33.6247C60.9791 34.0853 60.4204 34.2122 59.9798 34.2122Z" fill="#FC8D8D"/>
<path d="M62.6762 30.8282C62.504 30.5087 62.3357 30.1829 62.0893 29.9445C61.8508 29.706 61.5272 29.5536 61.2278 29.5827C60.9278 29.6154 60.6332 29.8002 60.4038 30.034C60.1692 30.2652 59.9877 30.555 59.8437 30.8689C59.6918 31.1791 59.5766 31.5153 59.4583 31.8544C59.4433 31.8955 59.4344 31.9255 59.4329 31.9379V31.9509C59.4458 31.9779 59.5312 32.0606 59.588 32.1222C59.7131 32.2525 59.836 32.3854 59.9577 32.5192L60.1417 32.7202C60.2055 32.7915 60.2757 32.8698 60.3227 32.9814C60.3761 33.0874 60.3702 33.2596 60.2959 33.3584C60.2273 33.4588 60.156 33.5128 60.0838 33.5755C59.7885 33.8145 59.436 33.9721 59.0742 34.0202C59.4108 33.8833 59.7122 33.6841 59.9443 33.4272C60.0007 33.3641 60.0649 33.2943 60.0897 33.2389C60.114 33.1831 60.1065 33.1522 60.0767 33.0972C60.0152 32.9932 59.8592 32.8719 59.7293 32.7486C59.595 32.6271 59.4617 32.5046 59.3311 32.3797C59.2641 32.31 59.2066 32.2775 59.1151 32.1562C59.0706 32.0972 59.0397 31.9877 59.0483 31.9118C59.0529 31.8337 59.0722 31.7767 59.0851 31.7322C59.1935 31.3851 59.3095 31.0338 59.4692 30.691C59.6336 30.3528 59.8417 30.0181 60.1335 29.7505C60.2796 29.6174 60.4402 29.5027 60.6198 29.4123C60.7988 29.3217 61.0018 29.2613 61.214 29.2604C61.6482 29.2581 62.0105 29.5107 62.2419 29.8111C62.4734 30.1214 62.5883 30.4769 62.6762 30.8282Z" fill="#282445"/>
<path d="M38.2358 22.5534C38.2358 22.5534 40.7737 23.5866 44.4348 22.3662C48.0958 21.1459 48.4635 17.4976 48.4635 17.4976C48.4635 17.4976 49.3314 19.9117 51.366 20.4795C53.4006 21.0473 55.3877 19.4386 55.3877 19.4386C55.3877 19.4386 55.4351 21.6624 57.0439 22.7507C58.6526 23.8389 60.4033 23.0347 60.4033 23.0347L55.2932 15.7008H40.9091L38.2358 22.5534Z" fill="#282445"/>
<path d="M43.0139 29.2341C43.0893 28.8207 43.3323 28.4421 43.6735 28.1605C44.0128 27.8732 44.4759 27.7167 44.9286 27.7108C45.384 27.7046 45.8666 27.8732 46.1921 28.1891C46.5214 28.4973 46.7222 28.9075 46.7467 29.3265C46.4724 29.0158 46.1887 28.7646 45.8846 28.6C45.5841 28.4296 45.2659 28.3651 44.9343 28.3633C44.5988 28.371 44.2701 28.4346 43.9524 28.5893C43.6315 28.7385 43.3226 28.9581 43.0139 29.2341Z" fill="#282445"/>
<path d="M55.7794 29.2341C55.4708 28.9581 55.1621 28.7385 54.8412 28.5893C54.5234 28.4346 54.1946 28.371 53.8593 28.3633C53.5277 28.3651 53.2093 28.4296 52.9088 28.6C52.6047 28.7646 52.3208 29.0158 52.0466 29.3265C52.0714 28.9075 52.2722 28.4973 52.6015 28.1891C52.9267 27.8732 53.4094 27.7046 53.8645 27.7108C54.3172 27.7167 54.7803 27.8732 55.1201 28.1605C55.4612 28.4421 55.704 28.8207 55.7794 29.2341Z" fill="#282445"/>
<path d="M40.9929 27.1881C41.3459 26.6216 41.7826 26.1133 42.2607 25.6393C42.7495 25.1771 43.2957 24.7587 43.9237 24.461C44.2317 24.3018 44.5667 24.1827 44.9058 24.0871C45.2477 23.9954 45.6033 23.9681 45.9533 23.9849C46.3036 24.0058 46.6483 24.071 46.9772 24.1787C47.3056 24.2854 47.6223 24.4301 47.8994 24.6422L47.8732 24.7019C47.2044 24.6345 46.5707 24.5997 45.9506 24.6377C45.3372 24.6849 44.7185 24.7108 44.1309 24.9402C43.5431 25.1607 42.9909 25.4994 42.4733 25.8871C41.9566 26.2782 41.4767 26.73 41.0465 27.2253L40.9929 27.1881Z" fill="#282445"/>
<path d="M57.8805 27.2253C57.4501 26.73 56.9702 26.2782 56.4537 25.8871C55.9356 25.4994 55.3837 25.1607 54.7959 24.9402C54.2084 24.7108 53.5894 24.6849 52.9762 24.6377C52.3564 24.5997 51.7225 24.6345 51.0536 24.7019L51.0275 24.6422C51.3046 24.4301 51.6209 24.2854 51.9496 24.1787C52.2787 24.071 52.623 24.0058 52.9735 23.9849C53.3232 23.9681 53.6792 23.9954 54.021 24.0871C54.3601 24.1827 54.6951 24.3018 55.0033 24.461C55.6311 24.7587 56.1775 25.1771 56.6659 25.6393C57.1442 26.1133 57.5809 26.6216 57.9339 27.1881L57.8805 27.2253Z" fill="#282445"/>
<path d="M50.1907 28.128C50.3749 28.6731 50.5144 29.2316 50.6263 29.7962C50.7372 30.3611 50.8178 30.9336 50.8505 31.5144C50.8796 32.0906 50.8875 32.6646 50.8732 33.2385C50.863 33.8127 50.8323 34.3841 50.7869 34.9581L50.7703 35.1666L50.5771 35.128C49.7069 34.9553 48.8382 34.7725 47.9785 34.5336C48.87 34.5715 49.7528 34.6649 50.6338 34.7689L50.4237 34.939L50.4446 33.2319C50.4469 32.6634 50.4546 32.0942 50.4469 31.528C50.429 30.4038 50.3018 29.2702 50.1907 28.128Z" fill="#282445"/>
<path d="M57.7611 33.8591V32.7827C57.7611 32.7827 54.1998 31.2596 49.5914 31.2596C44.983 31.2596 41.2629 32.7827 41.2629 32.7827V33.7466C42.5637 33.2538 45.8372 32.1945 49.9519 32.1945C53.6842 32.1945 56.4338 33.2295 57.7611 33.8591Z" fill="#5D67EB"/>
<path d="M49.9519 32.1943C45.837 32.1943 42.5637 33.2536 41.2629 33.7465V38.9183C43.0402 41.5878 45.6624 43.507 49.3064 43.507C53.2429 43.507 55.9864 41.2666 57.7611 38.261V33.8589C56.4338 33.2293 53.6842 32.1943 49.9519 32.1943Z" fill="#F4F4F4"/>
<path d="M41.263 32.7825L39.5659 28.8948L39.6034 29.7572L41.263 33.7465V32.7825Z" fill="#282445"/>
<path d="M58.9129 28.6245L57.7611 32.7827V33.8591L58.9744 29.7322L58.9129 28.6245Z" fill="#282445"/>
<path d="M55.768 35.4996C55.2938 35.269 54.8032 35.0776 54.3033 34.9172C53.8052 34.7519 53.2994 34.6104 52.7861 34.5045C51.7629 34.2801 50.7177 34.162 49.6717 34.1564C49.5739 34.1541 49.4757 34.1529 49.3778 34.1529C48.4289 34.1529 47.482 34.2554 46.5467 34.4191C46.0318 34.5143 45.5206 34.6345 45.0179 34.7855C44.5139 34.9318 44.0177 35.1082 43.54 35.3317C44.4601 34.8098 45.4822 34.488 46.5142 34.2558C47.5231 34.0435 48.5557 33.9388 49.5875 33.9388C49.6163 33.9388 49.6449 33.939 49.6738 33.939C50.7345 33.9617 51.7963 34.0805 52.8243 34.3415C53.85 34.6015 54.8575 34.9631 55.768 35.4996Z" fill="#AAA3B7"/>
<path d="M55.768 37.3183C55.2938 37.0877 54.8032 36.8963 54.3033 36.7359C53.8052 36.5706 53.2994 36.4291 52.7861 36.3232C51.7629 36.0988 50.7177 35.9805 49.6717 35.975C49.5734 35.9728 49.4748 35.9716 49.3765 35.9716C48.428 35.9716 47.4816 36.0741 46.5467 36.2378C46.0318 36.333 45.5206 36.4531 45.0179 36.6042C44.5139 36.7504 44.0177 36.9269 43.54 37.1502C44.4601 36.6285 45.4822 36.3064 46.5142 36.0745C47.5231 35.8622 48.5557 35.7575 49.5875 35.7575C49.6163 35.7575 49.6449 35.7575 49.6738 35.7577C50.7345 35.7804 51.7963 35.8992 52.8243 36.1601C53.85 36.4202 54.8575 36.7818 55.768 37.3183Z" fill="#AAA3B7"/>
<path d="M55.768 39.1372C55.2938 38.9067 54.8032 38.7152 54.3033 38.5549C53.8052 38.3895 53.2994 38.248 52.7861 38.1422C51.7629 37.9178 50.7177 37.7995 49.6717 37.794C49.5734 37.7917 49.4751 37.7906 49.3767 37.7906C48.4282 37.7906 47.4816 37.893 46.5467 38.0568C46.0318 38.152 45.5206 38.2719 45.0179 38.4229C44.5139 38.5694 44.0177 38.7459 43.54 38.9694C44.4601 38.4474 45.4822 38.1254 46.5142 37.8933C47.5231 37.6811 48.5557 37.5764 49.5875 37.5764C49.6163 37.5764 49.6449 37.5764 49.6738 37.5766C50.7345 37.5991 51.7963 37.7179 52.8243 37.9791C53.85 38.2392 54.8575 38.6008 55.768 39.1372Z" fill="#AAA3B7"/>
<path d="M30.772 56.146C31.5403 59.2645 32.1795 62.4095 32.7868 65.5599L33.2256 67.9259L33.6383 70.2941C33.7784 71.0825 33.9181 71.8713 34.0689 72.6581C34.2118 73.4469 34.374 74.2311 34.5566 75.0129C34.0269 73.4946 33.6483 71.9281 33.3051 70.3595C32.9703 68.7867 32.6642 67.2141 32.3591 65.6394C31.7656 62.4874 31.2044 59.3296 30.772 56.146Z" fill="#282445"/>
<path d="M69.1144 56.146C68.6822 59.3296 68.1208 62.4874 67.5275 65.6394C67.2225 67.2141 66.9161 68.7867 66.5815 70.3595C66.2384 71.9281 65.8597 73.4946 65.3301 75.0129C65.5125 74.2311 65.6746 73.4469 65.8175 72.6581C65.9683 71.8713 66.1082 71.0825 66.2483 70.2941L66.6608 67.9259L67.0998 65.5599C67.7072 62.4095 68.3461 59.2645 69.1144 56.146Z" fill="#282445"/>
<path d="M50.2907 60.0787C50.5708 64.4427 50.7191 68.8099 50.8349 73.1782C50.8858 75.3625 50.931 77.5467 50.9508 79.7317C50.9769 81.9166 50.9748 84.1025 50.9446 86.2886C50.8056 84.1066 50.6943 81.9239 50.6114 79.7403C50.5222 77.557 50.4586 75.3731 50.4002 73.1891C50.2982 68.8206 50.2285 64.4514 50.2907 60.0787Z" fill="#282445"/>
<path d="M34.0979 83.9498C34.0979 83.9498 37.8736 83.8642 42.6789 86.8672C47.4842 89.8708 48.1708 96.8213 48.1708 96.8213H55.3855C55.3855 96.8213 56.0716 89.8708 60.8771 86.8672C65.6824 83.8642 69.4582 83.9498 69.4582 83.9498L66.62 80.2602C66.62 80.2602 60.0986 83.0059 51.689 83.0059C43.2797 83.0059 35.986 80.8607 35.986 80.8607L34.0979 83.9498Z" fill="#282445"/>
<path d="M51.6889 101.97C48.3718 101.97 45.6824 99.2809 45.6824 95.9632C45.6824 92.6461 48.3718 89.9567 51.6889 89.9567C55.0066 89.9567 57.6955 92.6461 57.6955 95.9632C57.6955 99.2809 55.0066 101.97 51.6889 101.97Z" fill="#F4F4F4"/>
<path d="M51.689 116.189C40.5187 116.189 31.4637 107.134 31.4637 95.9632C31.4637 84.7932 40.5187 75.7379 51.689 75.7379C62.8592 75.7379 71.9145 84.7932 71.9145 95.9632C71.9145 107.134 62.8592 116.189 51.689 116.189ZM51.689 72.3656C38.6563 72.3656 28.0913 82.9305 28.0913 95.9632C28.0913 108.996 38.6563 119.561 51.689 119.561C64.7217 119.561 75.2869 108.996 75.2869 95.9632C75.2869 82.9305 64.7217 72.3656 51.689 72.3656Z" fill="#282445"/>
<path d="M51.6891 100.463C49.2043 100.463 47.1902 98.4485 47.1902 95.9635C47.1902 93.4789 49.2043 91.4646 51.6891 91.4646C54.1741 91.4646 56.1882 93.4789 56.1882 95.9635C56.1882 98.4485 54.1741 100.463 51.6891 100.463Z" fill="#282445"/>
<path d="M40.2223 75.8025C44.3648 78.1235 45.4718 80.6982 45.0891 81.0809C44.3855 81.7843 41.5178 78.8313 39.8035 77.9025C38.0893 76.974 36.8751 76.724 36.8751 76.724C36.8751 76.724 39.6249 78.1167 41.8748 81.2595C44.1247 84.4022 43.1247 85.295 42.2319 85.4738C41.3393 85.6523 33.3751 81.5811 32.661 80.7239C31.9467 79.8667 33.3022 78.9185 33.3022 78.9185C33.3022 78.9185 33.0067 77.9618 33.471 77.4619C33.9352 76.9618 34.5537 76.974 34.5537 76.974C34.5537 76.974 34.3579 76.364 34.7168 75.9418C35.0756 75.5195 35.9108 75.6883 35.9108 75.6883C35.9108 75.6883 35.5896 74.8793 36.1967 74.415C36.8038 73.9508 40.2223 75.8025 40.2223 75.8025Z" fill="#FFADAD"/>
<path d="M34.5538 76.9739C35.4246 77.437 36.2659 77.9528 37.0908 78.4945C37.9128 79.0403 38.712 79.6226 39.4738 80.2554C40.2272 80.8998 40.9222 81.6118 41.5441 82.3813C42.1598 83.1549 42.7251 83.9732 43.1598 84.8597C42.9043 84.4384 42.6288 84.0311 42.3329 83.6389C42.0424 83.243 41.7365 82.8592 41.4155 82.4885C41.0907 82.1215 40.7632 81.7572 40.4173 81.4103C40.0698 81.0647 39.7105 80.7342 39.3335 80.4212C38.5914 79.7814 37.7947 79.2049 36.9968 78.6319C36.1944 78.0636 35.3783 77.514 34.5538 76.9739Z" fill="#282445"/>
<path d="M33.3345 78.9559C34.1742 79.3591 34.9934 79.8031 35.8008 80.2682C36.6078 80.7341 37.3964 81.2326 38.1654 81.7627C38.9265 82.306 39.6554 82.8888 40.357 83.5037C41.0561 84.1203 41.7329 84.7633 42.3566 85.4556C42.0141 85.1399 41.67 84.8276 41.3168 84.5253C40.9677 84.2186 40.6136 83.9179 40.2536 83.6249C39.5345 83.0385 38.8091 82.4566 38.0464 81.9322C37.293 81.3918 36.5061 80.8978 35.7193 80.4043C35.3257 80.1572 34.9293 79.9144 34.5303 79.6757L33.3345 78.9559Z" fill="#282445"/>
<path d="M33.1083 79.0538C32.7985 79.3346 32.5707 79.7066 32.5564 80.0925C32.5586 80.1375 32.5555 80.1954 32.5607 80.2292C32.5668 80.2656 32.5827 80.3055 32.6045 80.3451C32.6483 80.4236 32.7092 80.5013 32.7758 80.5747C32.91 80.7223 33.0683 80.8538 33.2273 80.9842C33.5491 81.2415 33.8928 81.4775 34.2366 81.713L35.281 82.4117C34.8933 82.2477 34.5167 82.0596 34.151 81.8507C33.7851 81.6424 33.4292 81.4146 33.0937 81.1523C32.9254 81.0219 32.7649 80.8793 32.6184 80.7155C32.5459 80.6326 32.4762 80.5442 32.4237 80.4368C32.3978 80.3832 32.3756 80.3239 32.3672 80.2562C32.3606 80.1858 32.3694 80.1386 32.3701 80.0791C32.4221 79.6183 32.7415 79.2524 33.1083 79.0538Z" fill="#282445"/>
<path d="M62.0967 75.8025C57.9542 78.1235 56.8472 80.6982 57.2301 81.0809C57.9335 81.7843 60.8012 78.8313 62.5156 77.9025C64.2299 76.974 65.4441 76.724 65.4441 76.724C65.4441 76.724 62.6941 78.1167 60.4442 81.2595C58.1943 84.4022 59.1943 85.295 60.0871 85.4738C60.9797 85.6523 68.9439 81.5811 69.658 80.7239C70.3725 79.8667 69.0168 78.9185 69.0168 78.9185C69.0168 78.9185 69.3123 77.9618 68.8481 77.4619C68.3838 76.9618 67.7653 76.974 67.7653 76.974C67.7653 76.974 67.9614 76.364 67.6025 75.9418C67.2436 75.5195 66.4083 75.6883 66.4083 75.6883C66.4083 75.6883 66.7294 74.8793 66.1223 74.415C65.5152 73.9508 62.0967 75.8025 62.0967 75.8025Z" fill="#FFADAD"/>
<path d="M67.7654 76.9739C66.9412 77.514 66.1249 78.0636 65.3227 78.6319C64.5246 79.2049 63.7278 79.7814 62.9856 80.4212C62.6088 80.7342 62.2495 81.0647 61.902 81.4103C61.5563 81.7572 61.2285 82.1215 60.9037 82.4885C60.5828 82.8592 60.2771 83.243 59.9864 83.6389C59.6907 84.0311 59.4149 84.4384 59.1594 84.8597C59.5941 83.9732 60.1595 83.1549 60.7752 82.3813C61.3971 81.6118 62.0921 80.8998 62.8454 80.2554C63.6072 79.6226 64.4065 79.0403 65.2284 78.4945C66.0534 77.9528 66.8946 77.437 67.7654 76.9739Z" fill="#282445"/>
<path d="M68.985 78.9559L67.7889 79.6757C67.3899 79.9144 66.9935 80.1572 66.6002 80.4043C65.8134 80.8978 65.0262 81.3918 64.2728 81.9322C63.5101 82.4566 62.7849 83.0385 62.0658 83.6249C61.7056 83.9179 61.3515 84.2186 61.0024 84.5253C60.6492 84.8276 60.3052 85.1399 59.9626 85.4556C60.5863 84.7633 61.2632 84.1203 61.9625 83.5037C62.6639 82.8888 63.3927 82.306 64.1538 81.7627C64.9228 81.2326 65.7114 80.7341 66.5184 80.2682C67.3258 79.8031 68.1451 79.3591 68.985 78.9559Z" fill="#282445"/>
<path d="M69.2112 79.0538C69.5778 79.2524 69.8972 79.6183 69.9494 80.0791C69.9501 80.1386 69.9589 80.1858 69.9521 80.2562C69.9437 80.3239 69.9217 80.3832 69.8956 80.4368C69.8431 80.5442 69.7734 80.6326 69.7009 80.7155C69.5544 80.8793 69.3941 81.0219 69.2256 81.1523C68.8903 81.4146 68.5344 81.6424 68.1683 81.8507C67.8026 82.0596 67.426 82.2477 67.0383 82.4117L68.0827 81.713C68.4267 81.4775 68.7702 81.2415 69.092 80.9842C69.251 80.8538 69.4095 80.7223 69.5438 80.5747C69.6101 80.5013 69.6709 80.4236 69.7148 80.3451C69.7366 80.3055 69.7525 80.2656 69.7586 80.2292C69.7638 80.1954 69.7609 80.1375 69.7629 80.0925C69.7486 79.7066 69.5208 79.3346 69.2112 79.0538Z" fill="#282445"/>
<path d="M43.1068 47.6067C42.8027 48.1886 42.4911 48.7659 42.1781 49.3426L41.238 51.0715L40.2839 52.7926L39.3211 54.5086L39.1344 54.2283L42.2083 53.799L45.2849 53.3884L45.8384 53.3146L45.4771 53.7402C44.6238 54.7452 43.7677 55.7478 42.9047 56.7442L42.8383 56.4464C44.088 57.0351 45.3351 57.63 46.5771 58.235L48.4372 59.1497C49.0564 59.4563 49.676 59.7624 50.2908 60.0786C49.6505 59.8183 49.0143 59.5483 48.3782 59.2784L46.4719 58.4642C45.2034 57.9166 43.9394 57.3585 42.6784 56.7946L42.45 56.6926L42.6121 56.4968C43.4523 55.4807 44.2992 54.4706 45.1489 53.4627L45.341 53.8145L42.2635 54.2169L39.1834 54.6003L38.8 54.648L38.9963 54.3203L40.0077 52.6323L41.0277 50.9495L42.0613 49.2749C42.4063 48.7169 42.7527 48.1597 43.1068 47.6067Z" fill="#282445"/>
<path d="M57.4815 47.6067C57.8356 48.1597 58.1819 48.7169 58.5272 49.2749L59.5606 50.9495L60.5808 52.6323L61.592 54.3203L61.7884 54.648L61.4048 54.6003L58.3248 54.2169L55.2472 53.8145L55.4394 53.4627C56.2891 54.4706 57.1365 55.4807 57.9764 56.4968L58.1383 56.6926L57.9098 56.7946C56.6488 57.3585 55.3851 57.9166 54.1164 58.4642L52.2101 59.2784C51.5739 59.5483 50.938 59.8183 50.2975 60.0786C50.9125 59.7624 51.5319 59.4563 52.1511 59.1497L54.0112 58.235C55.2531 57.63 56.5003 57.0351 57.7499 56.4464L57.6836 56.7442C56.8205 55.7478 55.9645 54.7452 55.1112 53.7402L54.7501 53.3146L55.3036 53.3884L58.38 53.799L61.4541 54.2283L61.2672 54.5086L60.3044 52.7926L59.3505 51.0715L58.4102 49.3426C58.0972 48.7659 57.7856 48.1886 57.4815 47.6067Z" fill="#282445"/>
<path d="M53.3669 62.9698H64.3053V65.5118H53.3669V62.9698Z" fill="#282445"/>
<path d="M58.3437 10.3271H38.6937C36.9728 10.3271 35.578 8.93204 35.578 7.21133V3.94391C35.578 2.22298 36.9728 0.827972 38.6937 0.827972H58.3437C60.0644 0.827972 61.4594 2.22298 61.4594 3.94391V7.21133C61.4594 8.93204 60.0644 10.3271 58.3437 10.3271Z" fill="#303C74"/>
</g>
<mask id="mask7_1_2" style="mask-type:luminance" maskUnits="userSpaceOnUse" x="2" y="2" width="96" height="96">
<path d="M97.6462 50.0001C97.6462 76.3142 76.3142 97.6462 49.9999 97.6462C23.6855 97.6462 2.35352 76.3142 2.35352 50.0001C2.35352 23.6858 23.6855 2.3537 49.9999 2.3537C76.3142 2.3537 97.6462 23.6858 97.6462 50.0001Z" fill="white"/>
</mask>
<g mask="url(#mask7_1_2)">
<mask id="mask8_1_2" style="mask-type:luminance" maskUnits="userSpaceOnUse" x="38" y="2" width="21" height="8">
<path d="M56.2658 9.32246H40.7713C39.4144 9.32246 38.3145 8.22248 38.3145 6.86563V4.28912C38.3145 4.11605 38.3324 3.94707 38.3665 3.78422C41.5807 2.97747 44.9234 2.49779 48.3593 2.3815C48.4517 2.37832 48.5421 2.37559 48.6346 2.3731C49.0877 2.36038 49.5435 2.35379 49.9998 2.35379C52.8698 2.35379 55.6823 2.60794 58.4128 3.09422C58.6099 3.44785 58.7224 3.85531 58.7224 4.28912V6.86563C58.7224 8.22248 57.6224 9.32246 56.2658 9.32246Z" fill="white"/>
</mask>
<g mask="url(#mask8_1_2)">
<path d="M38.3145 9.32246H58.7223V2.35388H38.3145V9.32246Z" fill="#252C63"/>
</g>
</g>
<mask id="mask9_1_2" style="mask-type:luminance" maskUnits="userSpaceOnUse" x="2" y="2" width="96" height="96">
<path d="M97.6462 50.0001C97.6462 76.3142 76.3142 97.6462 49.9999 97.6462C23.6855 97.6462 2.35352 76.3142 2.35352 50.0001C2.35352 23.6858 23.6855 2.3537 49.9999 2.3537C76.3142 2.3537 97.6462 23.6858 97.6462 50.0001Z" fill="white"/>
</mask>
<g mask="url(#mask9_1_2)">
<path d="M48.7249 7.84896C48.3068 7.84896 47.9677 7.50987 47.9677 7.09173V-0.135864H49.4819V7.09173C49.4819 7.50987 49.143 7.84896 48.7249 7.84896Z" fill="#5D67EB"/>
</g>
<path d="M99.7358 52.1714C99.7202 52.5339 99.7009 52.8953 99.6777 53.2557L99.8948 53.2698C99.918 52.9078 99.9375 52.5448 99.9532 52.1807L99.7358 52.1714ZM99.5959 54.3384C99.5646 54.6998 99.5296 55.0602 99.4908 55.4193L99.707 55.4427C99.7461 55.082 99.7813 54.7202 99.8126 54.3573L99.5959 54.3384ZM99.3622 56.4977C99.3152 56.8573 99.2646 57.2157 99.21 57.5727L99.4251 57.6056C99.4799 57.2468 99.5307 56.887 99.578 56.5257L99.3622 56.4977ZM99.0345 58.6445C98.972 59.0015 98.9057 59.3575 98.8355 59.712L99.049 59.7542C99.1194 59.3981 99.186 59.0408 99.2489 58.682L99.0345 58.6445ZM98.6132 60.7749C98.535 61.129 98.4533 61.4815 98.3676 61.8327L98.5791 61.8842C98.6649 61.5315 98.7472 61.1774 98.8258 60.8217L98.6132 60.7749ZM98.0987 62.8849C98.0051 63.2349 97.9079 63.5838 97.8069 63.9309L98.0158 63.9915C98.1173 63.6429 98.215 63.2929 98.309 62.941L98.0987 62.8849ZM97.4921 64.9702C97.3828 65.3172 97.2699 65.6625 97.1534 66.0061L97.3594 66.0761C97.4764 65.7308 97.59 65.384 97.6997 65.0356L97.4921 64.9702ZM96.7918 67.0341C96.6674 67.3757 96.5393 67.7157 96.4078 68.0536L96.6106 68.1327C96.7428 67.7931 96.8713 67.4518 96.9962 67.1086L96.7918 67.0341ZM96.0014 69.0643C95.8622 69.3998 95.7193 69.7335 95.5731 70.0655L95.7723 70.1532C95.9192 69.82 96.0625 69.4848 96.2024 69.1477L96.0014 69.0643ZM95.1229 71.0567C94.9692 71.3856 94.812 71.7126 94.6512 72.0376L94.8463 72.1342C95.0078 71.8076 95.1656 71.4794 95.3201 71.1489L95.1229 71.0567ZM94.1581 73.0079C93.9902 73.3295 93.8188 73.6493 93.6441 73.9668L93.8347 74.0718C94.0102 73.7527 94.1824 73.4317 94.3511 73.1085L94.1581 73.0079ZM93.1092 74.9142C92.9273 75.2281 92.7422 75.5397 92.5537 75.8493L92.7397 75.9624C92.9289 75.6514 93.1149 75.3385 93.2975 75.0232L93.1092 74.9142ZM91.9781 76.7718C91.7828 77.0776 91.5843 77.3808 91.3826 77.6817L91.5634 77.8028C91.766 77.5007 91.9654 77.1959 92.1614 76.889L91.9781 76.7718ZM90.7676 78.5782C90.5593 78.8748 90.3478 79.1689 90.1332 79.4608L90.3085 79.5898C90.5241 79.2966 90.7364 79.0011 90.9456 78.7031L90.7676 78.5782ZM89.48 80.3293C89.259 80.6164 89.0351 80.9012 88.8079 81.1833L88.9776 81.3196C89.2056 81.0364 89.4305 80.7504 89.6524 80.462L89.48 80.3293ZM88.1177 82.0223C87.8847 82.2996 87.6487 82.5742 87.4095 82.8461L87.573 82.9899C87.8131 82.7166 88.0502 82.4407 88.2844 82.1624L88.1177 82.0223ZM86.6838 83.6542C86.439 83.9209 86.1914 84.185 85.9409 84.4462L86.0979 84.5968C86.3495 84.3344 86.5982 84.0692 86.8442 83.8014L86.6838 83.6542ZM85.181 85.2218C84.925 85.4776 84.6661 85.7306 84.4046 85.9807L84.555 86.1381C84.8178 85.8869 85.0776 85.6327 85.3347 85.3758L85.181 85.2218ZM83.612 86.7225C83.3453 86.9668 83.076 87.2082 82.8039 87.4468L82.9472 87.6105C83.2204 87.3708 83.4911 87.1283 83.7591 86.8831L83.612 86.7225ZM81.9801 88.1534C81.703 88.3857 81.4236 88.6151 81.1415 88.8418L81.2776 89.0114C81.561 88.7838 81.8418 88.5535 82.12 88.3201L81.9801 88.1534ZM80.2882 89.5115C80.0014 89.7316 79.7125 89.9487 79.4208 90.1627L79.5496 90.338C79.8424 90.1232 80.1326 89.9052 80.4206 89.6842L80.2882 89.5115ZM78.5396 90.7946C78.2436 91.0019 77.9454 91.2062 77.6449 91.4074L77.766 91.5881C78.0678 91.3863 78.3672 91.1811 78.6645 90.9728L78.5396 90.7946ZM76.7376 92.0001C76.433 92.1943 76.1264 92.3853 75.8175 92.573L75.9306 92.759C76.2408 92.5704 76.5488 92.3788 76.8545 92.1837L76.7376 92.0001ZM74.8854 93.1258C74.5731 93.3064 74.2585 93.4837 73.9419 93.6577L74.0466 93.8485C74.3646 93.6736 74.6805 93.4955 74.9944 93.3141L74.8854 93.1258ZM72.987 94.169C72.667 94.3359 72.3454 94.4992 72.0215 94.6593L72.1178 94.8544C72.4431 94.6936 72.7663 94.5294 73.0877 94.3621L72.987 94.169ZM71.0456 95.1282C70.719 95.2808 70.3905 95.4297 70.0601 95.5756L70.148 95.7745C70.4798 95.6283 70.8098 95.4786 71.1378 95.3253L71.0456 95.1282ZM69.0653 96.001C68.7325 96.139 68.398 96.2737 68.0616 96.4048L68.1406 96.6074C68.4784 96.4759 68.8145 96.3408 69.1486 96.2019L69.0653 96.001ZM67.0457 96.7878C66.7059 96.9115 66.3645 97.0317 66.0213 97.1482L66.0913 97.3542C66.4361 97.2372 66.7788 97.1164 67.1202 96.9922L67.0457 96.7878ZM64.9895 97.4862C64.6447 97.5949 64.2983 97.6998 63.9504 97.8014L64.0113 98.0104C64.3606 97.9084 64.7085 97.803 65.0549 97.6937L64.9895 97.4862ZM62.9045 98.0935C62.5554 98.1871 62.2047 98.2768 61.8527 98.3628L61.9042 98.5741C62.2579 98.4878 62.6101 98.3976 62.9608 98.3038L62.9045 98.0935ZM60.7949 98.6089C60.442 98.6868 60.0879 98.761 59.7322 98.8316L59.7745 99.0451C60.1317 98.9743 60.4874 98.8995 60.842 98.8212L60.7949 98.6089ZM58.6647 99.0311C58.309 99.0935 57.9518 99.1521 57.5934 99.2071L57.6263 99.4222C57.9863 99.367 58.3449 99.3079 58.7024 99.2453L58.6647 99.0311ZM56.5182 99.3594C56.16 99.4063 55.8007 99.4494 55.44 99.4884L55.4636 99.7049C55.8257 99.6656 56.1868 99.6222 56.5466 99.5752L56.5182 99.3594ZM54.3593 99.5941C53.9995 99.6254 53.6387 99.6527 53.2766 99.6763L53.2906 99.8935C53.6543 99.8699 54.0168 99.8424 54.3782 99.811L54.3593 99.5941ZM52.1922 99.7349C51.8322 99.7506 51.4713 99.7624 51.1093 99.7704L51.1142 99.9877C51.4776 99.9798 51.84 99.968 52.2015 99.9525L52.1922 99.7349ZM50.0234 99.7824H49.9998C49.6448 99.7824 49.2907 99.7787 48.9375 99.7713L48.933 99.9888C49.2877 99.9964 49.6434 100 50 100H50.0234V99.7824ZM47.8521 99.7369C47.4896 99.7215 47.1282 99.7022 46.7678 99.679L46.7539 99.8964C47.1157 99.9195 47.4789 99.9389 47.8428 99.9543L47.8521 99.7369ZM45.6849 99.5979C45.3235 99.5669 44.963 99.5321 44.604 99.4932L44.5808 99.7097C44.9415 99.7486 45.3033 99.7835 45.6662 99.8148L45.6849 99.5979ZM43.5258 99.3654C43.166 99.3186 42.8076 99.268 42.4504 99.2137L42.4177 99.4287C42.7765 99.4833 43.1365 99.5341 43.4976 99.5809L43.5258 99.3654ZM41.3788 99.0385C41.0215 98.9763 40.6656 98.91 40.3111 98.8401L40.269 99.0535C40.625 99.124 40.9824 99.1903 41.3413 99.253L41.3788 99.0385ZM39.2481 98.6183C38.894 98.5404 38.5413 98.4587 38.1902 98.3733L38.1386 98.5847C38.4913 98.6703 38.8456 98.7526 39.2013 98.8308L39.2481 98.6183ZM37.1379 98.1048C36.7877 98.0115 36.4388 97.9143 36.0918 97.8136L36.0311 98.0226C36.3797 98.1237 36.73 98.2213 37.0818 98.3152L37.1379 98.1048ZM35.0522 97.4993C34.7052 97.3901 34.3597 97.2774 34.0161 97.1609L33.9463 97.3669C34.2916 97.4842 34.6384 97.5972 34.987 97.7069L35.0522 97.4993ZM32.9879 96.8C32.6463 96.6758 32.3062 96.5479 31.9683 96.4164L31.8895 96.6192C32.229 96.7511 32.5704 96.8795 32.9136 97.0044L32.9879 96.8ZM30.9573 96.0105C30.6217 95.8716 30.288 95.7289 29.9562 95.5826L29.8683 95.7818C30.2017 95.9285 30.5369 96.0718 30.8742 96.2115L30.9573 96.0105ZM28.9646 95.1329C28.6354 94.9794 28.3084 94.8222 27.9834 94.6616L27.8871 94.8567C28.2134 95.018 28.5419 95.1758 28.8726 95.33L28.9646 95.1329ZM27.0129 94.169C26.6913 94.0011 26.3715 93.8301 26.0537 93.6555L25.949 93.846C26.2679 94.0215 26.589 94.1935 26.9122 94.3621L27.0129 94.169ZM25.1061 93.121C24.7923 92.9393 24.4804 92.7543 24.1708 92.5659L24.0577 92.7519C24.3687 92.9409 24.6819 93.1267 24.9974 93.3093L25.1061 93.121ZM23.2478 91.9908C22.9421 91.7957 22.6389 91.5972 22.3377 91.3958L22.2167 91.5766C22.519 91.7789 22.8238 91.9781 23.1306 92.1741L23.2478 91.9908ZM21.441 90.7812C21.1444 90.5729 20.85 90.3616 20.5582 90.1473L20.4294 90.3226C20.7224 90.5379 21.0181 90.75 21.3161 90.9592L21.441 90.7812ZM19.6892 89.4943C19.4019 89.2736 19.1173 89.0495 18.835 88.8227L18.6987 88.9923C18.9822 89.2201 19.2681 89.445 19.5568 89.6669L19.6892 89.4943ZM17.9955 88.1329C17.7182 87.8999 17.4436 87.6641 17.1715 87.4251L17.028 87.5887C17.3012 87.8285 17.5772 88.0654 17.8556 88.2996L17.9955 88.1329ZM16.3629 86.6998C16.0963 86.4552 15.8322 86.2075 15.5707 85.957L15.4201 86.1142C15.6827 86.3658 15.948 86.6143 16.216 86.8601L16.3629 86.6998ZM14.7947 85.1975C14.5388 84.9418 14.2858 84.6831 14.0354 84.4217L13.8783 84.572C14.1296 84.8346 14.3838 85.0944 14.6408 85.3515L14.7947 85.1975ZM13.2933 83.6294C13.0488 83.3628 12.8073 83.0934 12.5687 82.8213L12.4051 82.9649C12.6448 83.2381 12.8874 83.5086 13.1329 83.7764L13.2933 83.6294ZM11.8617 81.998C11.6292 81.7211 11.3996 81.4418 11.173 81.1597L11.0033 81.296C11.2309 81.5792 11.4615 81.8599 11.6951 82.1379L11.8617 81.998ZM10.5027 80.3068C10.2825 80.0202 10.0653 79.7311 9.85124 79.4397L9.67583 79.5684C9.8909 79.8612 10.109 80.1515 10.3301 80.4395L10.5027 80.3068ZM9.21874 78.5586C9.01131 78.2629 8.80689 77.9649 8.60578 77.6645L8.42496 77.7855C8.62697 78.0874 8.83217 78.3867 9.04058 78.6838L9.21874 78.5586ZM8.01241 76.7573C7.81801 76.453 7.62691 76.1463 7.43908 75.8375L7.25313 75.9506C7.44185 76.2608 7.63384 76.5688 7.82901 76.8743L8.01241 76.7573ZM6.886 74.9058C6.70519 74.5933 6.52767 74.2789 6.35351 73.9623L6.16274 74.0672C6.33779 74.3852 6.51604 74.7009 6.69765 75.0148L6.886 74.9058ZM5.84175 73.0077C5.67479 72.6879 5.51119 72.3661 5.35113 72.0424L5.15602 72.1389C5.31688 72.464 5.48118 72.7872 5.64887 73.1083L5.84175 73.0077ZM4.88179 71.0669C4.729 70.7403 4.57969 70.4119 4.43392 70.0814L4.23482 70.1693C4.38132 70.5011 4.53125 70.8312 4.68465 71.1591L4.88179 71.0669ZM4.00788 69.0868C3.86965 68.7543 3.73499 68.4198 3.60376 68.0834L3.40102 68.1627C3.53278 68.5004 3.66808 68.8363 3.80694 69.1704L4.00788 69.0868ZM3.2203 67.0675C3.09636 66.7279 2.97605 66.3865 2.85931 66.0436L2.6533 66.1135C2.7705 66.4581 2.89142 66.801 3.01589 67.1422L3.2203 67.0675ZM2.52091 65.0117C2.41198 64.667 2.30676 64.3206 2.20525 63.9726L1.99632 64.0337C2.09834 64.3831 2.204 64.731 2.31341 65.0772L2.52091 65.0117ZM1.91247 62.9272C1.81887 62.5781 1.7289 62.2274 1.64275 61.8754L1.43144 61.9269C1.51793 62.2806 1.60825 62.6328 1.70228 62.9835L1.91247 62.9272ZM1.39621 60.8179C1.31803 60.4649 1.2436 60.1108 1.17299 59.7551L0.959516 59.7976C1.03049 60.1547 1.10528 60.5106 1.1838 60.8649L1.39621 60.8179ZM0.973098 58.6879C0.910456 58.332 0.851631 57.9749 0.796553 57.6165L0.581488 57.6495C0.636747 58.0095 0.695846 58.3681 0.758737 58.7256L0.973098 58.6879ZM0.643493 56.5415C0.596478 56.1834 0.55337 55.8238 0.513962 55.4634L0.29767 55.487C0.337145 55.849 0.380526 56.2099 0.427814 56.5697L0.643493 56.5415ZM0.407849 54.3827C0.376438 54.023 0.348955 53.662 0.325266 53.3L0.108157 53.3141C0.131937 53.6777 0.159624 54.0402 0.191103 54.4016L0.407849 54.3827ZM0.265987 52.2157C0.250292 51.8557 0.2383 51.4948 0.230237 51.133L0.0126961 51.1378C0.0208499 51.5012 0.0328422 51.8637 0.0486274 52.2253L0.265987 52.2157ZM0.217632 50.0469V50.0001C0.217632 49.6528 0.221197 49.3065 0.228284 48.961L0.0107429 48.9567C0.00354298 49.3035 0 49.6515 0 50.0001L9.08004e-05 50.0471L0.217632 50.0469ZM0.262171 47.8756C0.277343 47.5131 0.296421 47.1517 0.319406 46.7913L0.102207 46.7774C0.0791534 47.1395 0.0600747 47.5024 0.0447209 47.8665L0.262171 47.8756ZM0.400059 45.7083C0.430925 45.347 0.465607 44.9868 0.504128 44.6274L0.287813 44.6043C0.249043 44.965 0.21427 45.3268 0.183222 45.6899L0.400059 45.7083ZM0.631796 43.5491C0.678288 43.1895 0.728665 42.8309 0.78288 42.4738L0.567724 42.4411C0.513258 42.8 0.462677 43.16 0.415935 43.5211L0.631796 43.5491ZM0.957403 41.402C1.01959 41.0448 1.08559 40.6889 1.15532 40.3343L0.941868 40.2923C0.871777 40.6484 0.805502 41.0057 0.743042 41.3646L0.957403 41.402ZM1.3767 39.2711C1.4544 38.9171 1.53594 38.5643 1.6212 38.2132L1.40979 38.1619C1.32416 38.5146 1.24229 38.8687 1.16411 39.2244L1.3767 39.2711ZM1.88905 37.1607C1.98231 36.8105 2.07927 36.4616 2.17988 36.1143L1.97095 36.0539C1.86979 36.4025 1.77247 36.7528 1.67878 37.1048L1.88905 37.1607ZM2.49368 35.0748C2.60254 34.7277 2.71522 34.3823 2.83153 34.0384L2.62544 33.9687C2.50858 34.3141 2.39547 34.6609 2.28609 35.0096L2.49368 35.0748ZM3.19209 33.0102C3.31612 32.6684 3.44388 32.3284 3.57518 31.9902L3.37229 31.9116C3.24045 32.2512 3.11217 32.5927 2.98759 32.9359L3.19209 33.0102ZM3.98047 30.9792C4.1194 30.6436 4.2619 30.3097 4.40792 29.9776L4.20875 29.8902C4.0621 30.2236 3.91898 30.5588 3.77944 30.8961L3.98047 30.9792ZM4.85713 28.986C5.01062 28.6569 5.16756 28.3298 5.32797 28.0046L5.13279 27.9083C4.97177 28.2349 4.81399 28.5635 4.65989 28.894L4.85713 28.986ZM5.8201 27.0339C5.98779 26.712 6.15884 26.3922 6.33336 26.0745L6.1426 25.9698C5.96739 26.2889 5.79553 26.61 5.62714 26.9335L5.8201 27.0339ZM6.86738 25.1267C7.0489 24.8126 7.23371 24.5007 7.42188 24.1909L7.23582 24.078C7.04694 24.389 6.86125 24.7024 6.67893 25.0179L6.86738 25.1267ZM7.99651 23.2677C8.19152 22.9619 8.38973 22.6585 8.59122 22.3573L8.41031 22.2365C8.20803 22.5388 8.00893 22.8436 7.81304 23.1507L7.99651 23.2677ZM9.20543 21.4604C9.41348 21.1636 9.62464 20.8692 9.839 20.5771L9.6635 20.4483C9.44825 20.7418 9.23621 21.0373 9.02718 21.3355L9.20543 21.4604ZM10.4914 19.7079C10.7121 19.4206 10.9358 19.1358 11.1626 18.8535L10.9929 18.7172C10.7652 19.0006 10.5405 19.2868 10.3189 19.5755L10.4914 19.7079ZM11.852 18.0136C12.0849 17.7362 12.3206 17.4614 12.5594 17.1893L12.3958 17.0458C12.156 17.319 11.9192 17.5952 11.6854 17.8739L11.852 18.0136ZM13.2844 16.3805C13.529 16.1134 13.7764 15.8493 14.0267 15.5876L13.8695 15.4373C13.618 15.7001 13.3696 15.9653 13.124 16.2333L13.2844 16.3805ZM14.7858 14.8113C15.0417 14.5553 15.3002 14.3021 15.5615 14.0518L15.411 13.8946C15.1485 14.1461 14.8888 14.4004 14.632 14.6576L14.7858 14.8113ZM16.3534 13.3093C16.6198 13.0647 16.8892 12.8231 17.1611 12.5841L17.0173 12.4206C16.7443 12.6607 16.474 12.9032 16.2062 13.149L16.3534 13.3093ZM17.9839 11.8769C18.2608 11.6443 18.5402 11.4144 18.822 11.1878L18.6858 11.0181C18.4025 11.2459 18.122 11.4767 17.844 11.7104L17.9839 11.8769ZM19.6747 10.517C19.9611 10.2967 20.2502 10.0794 20.5414 9.8652L20.4126 9.68986C20.1198 9.90495 19.8298 10.1232 19.542 10.3447L19.6747 10.517ZM21.4222 9.2322C21.7177 9.02461 22.0156 8.8202 22.3161 8.61897L22.1948 8.43817C21.8932 8.64031 21.5941 8.84564 21.297 9.05414L21.4222 9.2322ZM23.223 8.02503C23.5274 7.83061 23.8338 7.63937 24.1425 7.45131L24.0293 7.26553C23.7193 7.45427 23.4113 7.64641 23.1058 7.84174L23.223 8.02503ZM25.0741 6.89781C25.3864 6.71679 25.7008 6.53918 26.0171 6.36475L25.9122 6.17418C25.5942 6.3493 25.2785 6.52782 24.9649 6.70953L25.0741 6.89781ZM26.9715 5.85258C27.2913 5.68564 27.6129 5.52188 27.9366 5.36153L27.8401 5.16666C27.515 5.32746 27.1918 5.4919 26.8707 5.65974L26.9715 5.85258ZM28.9121 4.89161C29.2385 4.73875 29.5669 4.58953 29.8971 4.44349L29.8092 4.2443C29.4774 4.39102 29.1476 4.54115 28.8196 4.69469L28.9121 4.89161ZM30.8915 4.01694C31.2242 3.87862 31.5586 3.74371 31.8947 3.61243L31.8157 3.40961C31.4779 3.54157 31.142 3.67693 30.8079 3.81593L30.8915 4.01694ZM32.9106 3.22837C33.2502 3.10436 33.5913 2.98375 33.9345 2.86701L33.8643 2.66101C33.5198 2.77843 33.1768 2.89926 32.8359 3.02396L32.9106 3.22837ZM34.9661 2.52791C35.3107 2.41888 35.657 2.3135 36.005 2.21175L35.9439 2.00302C35.5946 2.105 35.2466 2.21107 34.9005 2.32054L34.9661 2.52791ZM37.0504 1.91854C37.3995 1.82474 37.75 1.73479 38.1023 1.64848L38.0503 1.43703C37.6966 1.52379 37.3446 1.61419 36.9939 1.70845L37.0504 1.91854ZM39.1595 1.40137C39.5123 1.32301 39.8666 1.24829 40.222 1.17765L40.1796 0.964157C39.8225 1.03525 39.4666 1.1102 39.1123 1.18901L39.1595 1.40137ZM41.2893 0.977097C41.645 0.914413 42.0022 0.855362 42.3606 0.800163L42.3275 0.585075C41.9675 0.640495 41.6089 0.699776 41.2514 0.762917L41.2893 0.977097ZM43.4354 0.646637C43.7936 0.599396 44.1529 0.556 44.5136 0.516479L44.4897 0.30027C44.1277 0.340019 43.7668 0.383621 43.407 0.430862L43.4354 0.646637ZM45.594 0.409958C45.954 0.378387 46.3147 0.350685 46.6767 0.326843L46.6624 0.109711C46.299 0.133781 45.9365 0.161484 45.5752 0.193283L45.594 0.409958ZM47.761 0.267097C48.121 0.251198 48.4819 0.239174 48.8437 0.230766L48.8387 0.0133972C48.4753 0.0215759 48.1131 0.0336151 47.7515 0.0497437L47.761 0.267097ZM49.9296 0.217812C49.953 0.217812 49.9764 0.217812 50 0.217812C50.3393 0.217812 50.6778 0.220993 51.0155 0.227806L51.0198 0.010231C50.6807 0.00341797 50.3407 0 50 0C49.9764 0 49.9529 0 49.9294 0.000228882L49.9296 0.217812ZM52.1009 0.2612C52.4634 0.276192 52.8251 0.295265 53.1854 0.317978L53.1992 0.100845C52.8371 0.0779037 52.4742 0.0588303 52.1101 0.0438461L52.1009 0.2612ZM54.2685 0.398148C54.6297 0.42881 54.9903 0.463333 55.3494 0.501724L55.3725 0.285278C55.0116 0.246887 54.6498 0.212135 54.2869 0.181252L54.2685 0.398148ZM56.4278 0.628914C56.7875 0.675247 57.1459 0.725441 57.5032 0.779495L57.5357 0.564178C57.1771 0.510124 56.8168 0.45948 56.4557 0.412926L56.4278 0.628914ZM58.5752 0.953476C58.9325 1.01548 59.2884 1.08134 59.643 1.15085L59.685 0.937355C59.3289 0.867393 58.9711 0.8013 58.6123 0.739075L58.5752 0.953476ZM60.7061 1.37162C61.0602 1.4493 61.4132 1.53061 61.7643 1.61578L61.8156 1.40432C61.4627 1.31892 61.1086 1.23716 60.7527 1.15926L60.7061 1.37162ZM62.8168 1.8831C63.1673 1.97623 63.5161 2.07298 63.8632 2.17337L63.9238 1.96441C63.575 1.86356 63.2247 1.76636 62.8727 1.67278L62.8168 1.8831ZM64.903 2.48679C65.2502 2.59559 65.5957 2.70802 65.9396 2.82408L66.0091 2.61808C65.6638 2.50134 65.3168 2.38846 64.9681 2.27921L64.903 2.48679ZM66.968 3.18407C67.3098 3.30808 67.6498 3.43573 67.988 3.56679L68.0668 3.36396C67.727 3.23222 67.3854 3.10413 67.0423 2.97966L66.968 3.18407ZM68.9994 3.97175C69.3351 4.11053 69.669 4.25271 70.001 4.39852L70.0885 4.19933C69.755 4.05283 69.4196 3.90997 69.0823 3.77051L68.9994 3.97175ZM70.9929 4.84731C71.3222 5.00063 71.6495 5.15734 71.9747 5.31769L72.0708 5.1226C71.7442 4.96156 71.4156 4.80416 71.0849 4.65017L70.9929 4.84731ZM72.9455 5.80942C73.2675 5.97704 73.5873 6.14784 73.9053 6.32204L74.0098 6.13148C73.6907 5.95637 73.3693 5.78466 73.0459 5.61636L72.9455 5.80942ZM74.8533 6.85579C75.1674 7.03726 75.4795 7.22192 75.7893 7.40997L75.9022 7.22372C75.591 7.03499 75.2776 6.84943 74.9621 6.66727L74.8533 6.85579ZM76.7128 7.98415C77.0185 8.17902 77.3222 8.37708 77.6234 8.57831L77.7442 8.39751C77.4417 8.19514 77.1368 7.99641 76.8298 7.80064L76.7128 7.98415ZM78.5207 9.19223C78.8176 9.40005 79.1122 9.61105 79.4042 9.82523L79.5328 9.64989C79.2396 9.43458 78.9436 9.22266 78.6454 9.01394L78.5207 9.19223ZM80.2737 10.4773C80.5612 10.6978 80.846 10.9213 81.1286 11.1482L81.2649 10.9783C80.981 10.7508 80.6948 10.5261 80.4061 10.3047L80.2737 10.4773ZM81.9687 11.8373C82.246 12.0699 82.5211 12.3057 82.7934 12.5441L82.9367 12.3806C82.6633 12.141 82.3871 11.9041 82.1084 11.6704L81.9687 11.8373ZM83.6024 13.2689C83.8695 13.5133 84.1339 13.7604 84.3956 14.0107L84.5459 13.8533C84.2831 13.6021 84.0176 13.3539 83.7494 13.1083L83.6024 13.2689ZM85.1723 14.7695C85.4283 15.0253 85.6818 15.2837 85.9323 15.5449L86.0892 15.3941C85.8376 15.1318 85.5832 14.8724 85.3261 14.6155L85.1723 14.7695ZM86.6752 16.3365C86.9198 16.6029 87.1617 16.8718 87.4004 17.1437L87.564 16.9999C87.3241 16.7271 87.0811 16.4568 86.8353 16.1891L86.6752 16.3365ZM88.1081 17.9663C88.341 18.243 88.5708 18.5223 88.7977 18.804L88.9671 18.6677C88.7393 18.3847 88.5086 18.1042 88.2746 17.8262L88.1081 17.9663ZM89.4689 19.6564C89.6894 19.9428 89.9068 20.2317 90.1212 20.5228L90.2965 20.3941C90.0812 20.1013 89.8627 19.8113 89.6412 19.5237L89.4689 19.6564ZM90.7544 21.4032C90.9622 21.6989 91.1668 21.9967 91.3683 22.2969L91.5489 22.1756C91.3465 21.8742 91.1412 21.5749 90.9325 21.278L90.7544 21.4032ZM91.9625 23.2036C92.1571 23.5077 92.3486 23.8141 92.5366 24.1228L92.7224 24.0097C92.5335 23.6996 92.3413 23.3919 92.1458 23.0864L91.9625 23.2036ZM93.0906 25.0542C93.2716 25.3663 93.4495 25.6806 93.6241 25.997L93.8147 25.8919C93.6393 25.5741 93.4608 25.2584 93.2789 24.945L93.0906 25.0542ZM94.1367 26.9512C94.3039 27.2707 94.4677 27.5924 94.6282 27.916L94.8231 27.8195C94.6621 27.4942 94.4974 27.1713 94.3296 26.8503L94.1367 26.9512ZM95.0984 28.8911C95.2515 29.2177 95.4011 29.5459 95.5472 29.8761L95.7461 29.788C95.5994 29.4564 95.4493 29.1266 95.2955 28.7988L95.0984 28.8911ZM95.9742 30.8702C96.1127 31.2027 96.2476 31.5373 96.3792 31.8734L96.582 31.7942C96.4498 31.4564 96.3142 31.1205 96.1752 30.7866L95.9742 30.8702ZM96.7637 32.8889C96.8879 33.2285 97.0085 33.5696 97.1257 33.9126L97.3315 33.8424C97.2141 33.4978 97.0928 33.1551 96.9681 32.8142L96.7637 32.8889ZM97.465 34.9442C97.5743 35.2887 97.6799 35.6351 97.7816 35.9828L97.9906 35.9217C97.8882 35.5724 97.7821 35.2244 97.6724 34.8783L97.465 34.9442ZM98.0753 37.0283C98.1694 37.3771 98.2595 37.7278 98.3461 38.0799L98.5575 38.0279C98.4705 37.6742 98.3799 37.3222 98.2856 36.9717L98.0753 37.0283ZM98.5936 39.1371C98.6722 39.4899 98.7469 39.844 98.8178 40.1994L99.0313 40.1569C98.96 39.7999 98.885 39.4442 98.806 39.0899L98.5936 39.1371ZM99.0188 41.2667C99.0817 41.6223 99.141 41.9794 99.1962 42.3378L99.4113 42.3046C99.3559 41.9446 99.2963 41.586 99.2332 41.2287L99.0188 41.2667ZM99.3504 43.4128C99.3976 43.771 99.4413 44.13 99.481 44.4907L99.6972 44.4669C99.6573 44.1048 99.6136 43.7439 99.5662 43.3842L99.3504 43.4128ZM99.588 45.5712C99.6198 45.9309 99.6477 46.2918 99.6716 46.6539L99.8887 46.6396C99.8646 46.2759 99.8367 45.9134 99.8049 45.5521L99.588 45.5712ZM99.7317 47.7382C99.7479 48.0991 99.7604 48.4609 99.7688 48.8236L99.9861 48.8186C99.9777 48.4543 99.9655 48.0909 99.9493 47.7284L99.7317 47.7382ZM99.7822 49.9095C99.7822 49.9397 99.7824 49.9699 99.7824 50.0001C99.7824 50.363 99.7785 50.7249 99.7708 51.086L99.9882 51.0905C99.9961 50.728 100 50.3646 100 50.0001C100 49.9697 100 49.9395 99.9998 49.909L99.7822 49.9095Z" fill="#303C74"/>
</g>
<defs>
<clipPath id="clip0_1_2">
<rect width="100" height="100" fill="white"/>
</clipPath>
</defs>
</svg>
