<svg width="24" height="24" viewBox="0 0 24 24" fill="none" xmlns="http://www.w3.org/2000/svg">
<circle cx="12" cy="12" r="12" fill="#03DAC5" fill-opacity="0.1"/>
<path d="M12 18.6667C15.6734 18.6667 18.6667 15.6733 18.6667 12C18.6667 8.32666 15.6734 5.33333 12 5.33333C8.32669 5.33333 5.33336 8.32666 5.33336 12C5.33336 15.6733 8.32669 18.6667 12 18.6667ZM12.5 14.6667C12.5 14.94 12.2734 15.1667 12 15.1667C11.7267 15.1667 11.5 14.94 11.5 14.6667L11.5 11.3333C11.5 11.06 11.7267 10.8333 12 10.8333C12.2734 10.8333 12.5 11.06 12.5 11.3333L12.5 14.6667ZM11.3867 9.08C11.42 8.99333 11.4667 8.92666 11.5267 8.86C11.5934 8.8 11.6667 8.75333 11.7467 8.72C11.8267 8.68666 11.9134 8.66666 12 8.66666C12.0867 8.66666 12.1734 8.68666 12.2534 8.72C12.3334 8.75333 12.4067 8.8 12.4734 8.86C12.5334 8.92666 12.58 8.99333 12.6134 9.08C12.6467 9.16 12.6667 9.24666 12.6667 9.33333C12.6667 9.42 12.6467 9.50666 12.6134 9.58666C12.58 9.66666 12.5334 9.74 12.4734 9.80666C12.4067 9.86666 12.3334 9.91333 12.2534 9.94666C12.0934 10.0133 11.9067 10.0133 11.7467 9.94666C11.6667 9.91333 11.5934 9.86666 11.5267 9.80666C11.4667 9.74 11.42 9.66666 11.3867 9.58666C11.3534 9.50666 11.3334 9.42 11.3334 9.33333C11.3334 9.24666 11.3534 9.16 11.3867 9.08Z" fill="#03DAC5"/>
</svg>
