<svg width="22" height="22" viewBox="0 0 22 22" fill="none" xmlns="http://www.w3.org/2000/svg">
<path d="M7.79168 17.4167H7.33335C3.66668 17.4167 1.83335 16.5 1.83335 11.9167V7.33337C1.83335 3.66671 3.66668 1.83337 7.33335 1.83337H14.6667C18.3334 1.83337 20.1667 3.66671 20.1667 7.33337V11.9167C20.1667 15.5834 18.3334 17.4167 14.6667 17.4167H14.2084C13.9242 17.4167 13.6492 17.5542 13.475 17.7834L12.1 19.6167C11.495 20.4234 10.505 20.4234 9.90002 19.6167L8.52502 17.7834C8.37835 17.5817 8.03918 17.4167 7.79168 17.4167Z" stroke="#9B9B9B" stroke-width="1.5" stroke-miterlimit="10" stroke-linecap="round" stroke-linejoin="round"/>
<path d="M14.6634 10.0833H14.6717" stroke="#9B9B9B" stroke-width="2" stroke-linecap="round" stroke-linejoin="round"/>
<path d="M10.9959 10.0833H11.0041" stroke="#9B9B9B" stroke-width="2" stroke-linecap="round" stroke-linejoin="round"/>
<path d="M7.32831 10.0833H7.33655" stroke="#9B9B9B" stroke-width="2" stroke-linecap="round" stroke-linejoin="round"/>
</svg>
