<svg width="24" height="24" viewBox="0 0 24 24" fill="none" xmlns="http://www.w3.org/2000/svg">
<path d="M16.0483 21.6C15.8274 21.6 15.6483 21.4211 15.6483 21.2V2.80039C15.6483 2.5793 15.8274 2.40039 16.0483 2.40039C16.2692 2.40039 16.4483 2.5793 16.4483 2.80039V21.2C16.4483 21.4211 16.2692 21.6 16.0483 21.6Z" fill="black"/>
<path d="M16.0468 3.51367V20.4897L8.02283 15.1137H5.91482C4.19482 15.1137 2.79883 13.7217 2.79883 12.0017C2.79883 11.1417 3.14683 10.3617 3.71082 9.80166C4.27483 9.23767 5.05483 8.88967 5.91482 8.88967H8.02283L16.0468 3.51367Z" fill="black"/>
<path d="M16.0465 20.8895C15.9686 20.8895 15.891 20.8668 15.8238 20.8219L7.90078 15.5133H5.91445C3.97578 15.5133 2.39844 13.9379 2.39844 12.0016C2.39844 11.0594 2.76426 10.177 3.42852 9.51761C4.09121 8.85511 4.97441 8.48949 5.91445 8.48949H7.90078L15.8238 3.18089C15.9467 3.09847 16.1047 3.09105 16.2348 3.16058C16.365 3.23011 16.4465 3.36566 16.4465 3.51332V20.4895C16.4465 20.6371 16.365 20.7727 16.2348 20.8422C16.1758 20.8739 16.1111 20.8895 16.0465 20.8895ZM5.91445 9.28949C5.18809 9.28949 4.50586 9.57191 3.99316 10.0844C3.48027 10.5934 3.19844 11.2743 3.19844 12.0016C3.19844 13.4969 4.4168 14.7133 5.91445 14.7133H8.02246C8.10176 14.7133 8.1793 14.7368 8.24512 14.7809L15.6465 19.7399V4.26293L8.24512 9.22191C8.1793 9.26605 8.10176 9.28949 8.02246 9.28949H5.91445Z" fill="black"/>
<path d="M8.02283 8.88867V15.1127H5.91482C4.19482 15.1127 2.79883 13.7207 2.79883 12.0007C2.79883 11.1407 3.14683 10.3607 3.71084 9.80066C4.27483 9.23667 5.05483 8.88867 5.91482 8.88867H8.02283Z" fill="black"/>
<path d="M8.02246 15.5125H5.91426C3.97559 15.5125 2.39844 13.9371 2.39844 12.0004C2.39844 11.0578 2.76426 10.1758 3.42852 9.51641C4.09121 8.85391 4.97441 8.48828 5.91426 8.48828H8.02246C8.24336 8.48828 8.42246 8.66719 8.42246 8.88828V15.1125C8.42246 15.3336 8.24336 15.5125 8.02246 15.5125ZM5.91426 9.28828C5.18809 9.28828 4.50586 9.5707 3.99316 10.0832C3.48027 10.5922 3.19844 11.2727 3.19844 12.0004C3.19844 13.4957 4.4168 14.7125 5.91426 14.7125H7.62246V9.28828H5.91426Z" fill="black"/>
<path d="M16.0484 15.1672C15.8275 15.1672 15.6484 14.9883 15.6484 14.7672C15.6484 14.5461 15.8275 14.3672 16.0484 14.3672C17.3537 14.3672 18.4156 13.3051 18.4156 12C18.4156 10.6965 17.3537 9.63594 16.0484 9.63594C15.8275 9.63594 15.6484 9.45703 15.6484 9.23594C15.6484 9.01484 15.8275 8.83594 16.0484 8.83594C17.7949 8.83594 19.2156 10.2555 19.2156 12C19.2156 13.7465 17.7949 15.1672 16.0484 15.1672Z" fill="black"/>
<path d="M21.1998 12.3996H20.0738C19.8529 12.3996 19.6738 12.2207 19.6738 11.9996C19.6738 11.7785 19.8529 11.5996 20.0738 11.5996H21.1998C21.4207 11.5996 21.5998 11.7785 21.5998 11.9996C21.5998 12.2207 21.4207 12.3996 21.1998 12.3996Z" fill="black"/>
<path d="M19.6922 16.0438C19.5899 16.0438 19.4873 16.0047 19.4092 15.9266L18.6131 15.1301C18.4571 14.9738 18.4571 14.7207 18.6133 14.5645C18.7696 14.4082 19.0229 14.4082 19.1791 14.5645L19.9752 15.3609C20.1313 15.5172 20.1313 15.7703 19.975 15.9266C19.8969 16.0047 19.7946 16.0438 19.6922 16.0438Z" fill="black"/>
<path d="M18.8961 9.55313C18.7938 9.55313 18.6914 9.51406 18.6133 9.43594C18.4571 9.27969 18.4571 9.02656 18.6133 8.87031L19.4094 8.07422C19.5657 7.91797 19.8188 7.91797 19.975 8.07422C20.1313 8.23047 20.1313 8.48359 19.975 8.63984L19.1789 9.43594C19.1008 9.51406 18.9985 9.55313 18.8961 9.55313Z" fill="black"/>
<path d="M19.7675 10.8598C19.6105 10.8598 19.4616 10.7668 19.3978 10.6129C19.3132 10.4086 19.4101 10.1746 19.6142 10.0902L20.6544 9.65937C20.8591 9.575 21.0925 9.67187 21.1771 9.87578C21.2616 10.0801 21.1648 10.3141 20.9607 10.3984L19.9204 10.8293C19.8702 10.85 19.8185 10.8598 19.7675 10.8598Z" fill="black"/>
<path d="M20.8073 14.3716C20.7564 14.3716 20.7046 14.3619 20.6544 14.3412L19.6142 13.9103C19.4101 13.8259 19.3132 13.592 19.3978 13.3877C19.4821 13.1838 19.7153 13.0865 19.9204 13.1713L20.9607 13.6021C21.1648 13.6865 21.2616 13.9205 21.1771 14.1248C21.1132 14.2787 20.9644 14.3716 20.8073 14.3716Z" fill="black"/>
<path d="M7.5418 18.9573C5.86992 18.9573 4.50977 17.5972 4.50977 15.9253C4.50977 15.5616 4.575 15.2034 4.70352 14.8609C4.78125 14.6542 5.01211 14.5499 5.21836 14.6269C5.4252 14.7046 5.53008 14.9351 5.45234 15.1421C5.35781 15.3945 5.30977 15.6577 5.30977 15.9253C5.30977 17.1562 6.31113 18.1573 7.5418 18.1573C8.5748 18.1573 9.48906 17.4273 9.71563 16.4214C9.76406 16.2058 9.98008 16.0706 10.1937 16.1191C10.4092 16.1675 10.5445 16.3816 10.4961 16.5972C10.1881 17.9648 8.94551 18.9573 7.5418 18.9573Z" fill="black"/>
<path d="M8.02305 15.5125C7.80215 15.5125 7.62305 15.3336 7.62305 15.1125V8.88828C7.62305 8.66719 7.80215 8.48828 8.02305 8.48828C8.24395 8.48828 8.42305 8.66719 8.42305 8.88828V15.1125C8.42305 15.3336 8.24395 15.5125 8.02305 15.5125Z" fill="black"/>
</svg>
