<svg width="20" height="20" viewBox="0 0 20 20" fill="none" xmlns="http://www.w3.org/2000/svg">
<path d="M10 12.9167C11.8417 12.9167 13.3333 11.4251 13.3333 9.58341V5.00008C13.3333 3.15841 11.8417 1.66675 10 1.66675C8.15833 1.66675 6.66667 3.15841 6.66667 5.00008V9.58341C6.66667 11.4251 8.15833 12.9167 10 12.9167Z" stroke="#959595" stroke-width="1.5" stroke-linecap="round" stroke-linejoin="round"/>
<path d="M3.625 8.04175V9.45842C3.625 12.9751 6.48333 15.8334 10 15.8334C13.5167 15.8334 16.375 12.9751 16.375 9.45842V8.04175" stroke="#959595" stroke-width="1.5" stroke-linecap="round" stroke-linejoin="round"/>
<path d="M8.84167 5.35835C9.59167 5.08335 10.4083 5.08335 11.1583 5.35835" stroke="#959595" stroke-width="1.5" stroke-linecap="round" stroke-linejoin="round"/>
<path d="M9.33333 7.1251C9.775 7.00843 10.2333 7.00843 10.675 7.1251" stroke="#959595" stroke-width="1.5" stroke-linecap="round" stroke-linejoin="round"/>
<path d="M10 15.8333V18.3333" stroke="#959595" stroke-width="1.5" stroke-linecap="round" stroke-linejoin="round"/>
</svg>
