<svg width="18" height="18" viewBox="0 0 18 18" fill="none" xmlns="http://www.w3.org/2000/svg">
<path d="M9 9.25269L8.45674 9.82434V16.8412C8.45674 17.215 8.56956 17.5771 8.77636 17.8821C8.88298 18.0394 9.11702 18.0394 9.22368 17.8821C9.43048 17.5771 9.5433 17.215 9.5433 16.8412V9.82434L9 9.25269Z" fill="#161925"/>
<path d="M8.45674 7.67798V9.82418C8.63547 9.84182 8.81667 9.82418 9 9.82418C9.18333 9.82418 9.36453 9.84182 9.54326 9.82418V7.67798H8.45674Z" fill="#161925"/>
<path d="M9 0V8.76459C11.4203 8.76459 13.3823 6.80255 13.3823 4.38229C13.3823 1.96204 11.4203 0 9 0Z" fill="#D65F1B"/>
<path d="M12.2958 4.38229C12.2958 1.96204 10.8202 0 9 0C6.57974 0 4.61771 1.96204 4.61771 4.38229C4.61771 6.80255 6.57974 8.76459 9 8.76459C10.8202 8.76459 12.2958 6.80255 12.2958 4.38229Z" fill="#DE6C2A"/>
</svg>
