<?xml version="1.0" standalone="no"?>
<!DOCTYPE svg PUBLIC "-//W3C//DTD SVG 20010904//EN"
 "http://www.w3.org/TR/2001/REC-SVG-20010904/DTD/svg10.dtd">
<svg version="1.0" xmlns="http://www.w3.org/2000/svg"
 width="20.000000pt" height="22.000000pt" viewBox="0 0 20.000000 22.000000"
 preserveAspectRatio="xMidYMid meet">

<g transform="translate(0.000000,22.000000) scale(0.100000,-0.100000)"
fill="#000000" stroke="none">
<path d="M40 185 c0 -13 -7 -25 -15 -29 -11 -4 -15 -22 -15 -76 l0 -70 90 0
90 0 0 70 c0 54 -4 72 -15 76 -8 4 -15 16 -15 29 0 21 -4 23 -60 23 -56 0 -60
-2 -60 -23z m47 -21 c-9 -10 -38 16 -31 28 4 6 13 4 22 -6 9 -8 13 -19 9 -22z
m44 3 c-16 -16 -26 0 -10 19 9 11 15 12 17 4 2 -6 -1 -17 -7 -23z m-41 -87 l0
-60 -30 0 -30 0 0 60 0 60 30 0 30 0 0 -60z m80 0 l0 -60 -30 0 -30 0 0 60 0
60 30 0 30 0 0 -60z"/>
</g>
</svg>
