<svg width="26" height="26" viewBox="0 0 26 26" fill="none" xmlns="http://www.w3.org/2000/svg">
<path d="M13.0001 1.22641C6.50015 1.22641 1.22656 6.49508 1.22656 13.0049C1.22656 19.5 6.50015 24.7736 13.0001 24.7736C19.5052 24.7736 24.7737 19.5 24.7737 13.0049C24.7737 6.49508 19.5052 1.22641 13.0001 1.22641ZM21.6194 11.5823C21.3006 11.3762 20.9621 11.1751 20.6137 10.9936C18.4995 9.87509 15.8602 9.21284 13.0001 9.21284C10.1402 9.21284 7.4911 9.88 5.37685 11.0034C5.02845 11.18 4.6949 11.3811 4.37608 11.5872C5.053 7.42717 8.6538 4.2581 13.0001 4.2581C17.3466 4.2581 20.9425 7.42717 21.6194 11.5823ZM15.7162 10.9619V12.4616C15.7162 12.6786 15.5403 12.8545 15.3234 12.8545H10.6777C10.4607 12.8545 10.2848 12.6786 10.2848 12.4616V10.9619C10.2848 10.7449 10.4607 10.569 10.6777 10.569H15.3234C15.5403 10.569 15.7162 10.7449 15.7162 10.9619ZM10.0709 2.9357C10.9466 2.68125 11.8559 2.54244 12.7741 2.52307C12.9192 2.51271 13.066 2.64679 13.0694 2.80632C13.0728 2.966 12.9459 3.09822 12.7862 3.1016C11.9186 3.11987 11.0592 3.25095 10.2321 3.49127C10.2053 3.49917 10.1782 3.50276 10.1514 3.50276C10.026 3.50276 9.9104 3.42063 9.87351 3.29428C9.82895 3.1408 9.9171 2.98034 10.0709 2.9357ZM2.83252 12.5621C2.82569 12.5621 2.81851 12.5619 2.8118 12.5613C2.65239 12.55 2.53226 12.4118 2.54352 12.2523C2.78497 8.84985 4.68077 5.76783 7.61494 4.00785C7.75279 3.92518 7.92993 3.97018 8.01197 4.10711C8.09413 4.24403 8.04969 4.42183 7.91256 4.50393C5.13995 6.16689 3.34848 9.07888 3.12056 12.2933C3.10966 12.4457 2.98283 12.5621 2.83252 12.5621ZM4.27308 13.3924C4.56735 13.4219 4.85682 13.466 5.14139 13.5298C8.7029 14.2657 11.4696 17.1747 11.9995 20.8098C12.0436 21.1042 12.073 21.3985 12.0878 21.6978C7.81495 21.2562 4.46435 17.7291 4.27308 13.3924ZM13.0005 16.1964C12.3714 16.1964 11.859 15.6841 11.859 15.055C11.859 14.4258 12.3714 13.9135 13.0005 13.9135C13.6296 13.9135 14.142 14.4258 14.142 15.055C14.142 15.6841 13.6296 16.1964 13.0005 16.1964ZM13.9127 21.6978C13.9225 21.3985 13.9519 21.1042 13.9961 20.8098C14.5308 17.1747 17.2976 14.2706 20.8542 13.5298C21.1387 13.466 21.4282 13.4219 21.7225 13.3924C21.5361 17.734 18.1855 21.2562 13.9127 21.6978Z" fill="#6200EE"/>
</svg>
