<svg width="10" height="10" viewBox="0 0 10 10" fill="none" xmlns="http://www.w3.org/2000/svg">
<path d="M5 4.8C6.10457 4.8 7 3.90457 7 2.8C7 1.69543 6.10457 0.800003 5 0.800003C3.89543 0.800003 3 1.69543 3 2.8C3 3.90457 3.89543 4.8 5 4.8Z" fill="black"/>
<path d="M5.42407 5.2H4.57607C4.07862 5.20157 3.58635 5.30111 3.12737 5.49293C2.66839 5.68475 2.25169 5.96509 1.90106 6.31796C1.55042 6.67082 1.27272 7.08929 1.08381 7.54948C0.894907 8.00966 0.79849 8.50255 0.800068 9C0.800068 9.05304 0.821139 9.10391 0.858647 9.14142C0.896154 9.17893 0.947025 9.2 1.00007 9.2H9.00007C9.05558 9.19494 9.1071 9.16901 9.14423 9.12743C9.18135 9.08585 9.20131 9.03172 9.20007 8.976C9.19795 7.97519 8.79945 7.01598 8.09177 6.3083C7.38409 5.60062 6.42488 5.20211 5.42407 5.2Z" fill="black"/>
</svg>
