<svg width="20" height="20" viewBox="0 0 20 20" fill="none" xmlns="http://www.w3.org/2000/svg">
<path d="M15.0586 7.09167L7.92522 3.52501C3.13355 1.12501 1.16689 3.09167 3.56689 7.88334L4.29189 9.33334C4.50022 9.75834 4.50022 10.25 4.29189 10.675L3.56689 12.1167C1.16689 16.9083 3.12522 18.875 7.92522 16.475L15.0586 12.9083C18.2586 11.3083 18.2586 8.69167 15.0586 7.09167ZM12.3669 10.625H7.86689C7.52522 10.625 7.24189 10.3417 7.24189 10C7.24189 9.65834 7.52522 9.37501 7.86689 9.37501H12.3669C12.7086 9.37501 12.9919 9.65834 12.9919 10C12.9919 10.3417 12.7086 10.625 12.3669 10.625Z" fill="#6200EE"/>
</svg>
