<svg width="28" height="28" viewBox="0 0 28 28" fill="none" xmlns="http://www.w3.org/2000/svg">
<path d="M25.2707 26.5847H23.3593C23.4968 26.4403 23.5829 26.2459 23.5829 26.0295V24.0341H19.5596V26.0295C19.5596 26.2459 19.6445 26.4403 19.7813 26.5847H8.2158C8.35298 26.4403 8.43847 26.2459 8.43847 26.0295V24.0341H4.41515V26.0295C4.41515 26.2459 4.50004 26.4403 4.63689 26.5847H2.53454C2.38428 26.5847 2.2627 26.7063 2.2627 26.8565C2.2627 27.0068 2.38428 27.1284 2.53454 27.1284H25.2707C25.421 27.1284 25.5426 27.0068 25.5426 26.8565C25.5426 26.7063 25.421 26.5847 25.2707 26.5847Z" fill="#161925"/>
<path d="M1.39915 26.5847H0.960321C0.810063 26.5847 0.688477 26.7063 0.688477 26.8565C0.688477 27.0068 0.810063 27.1284 0.960321 27.1284H1.39915C1.54941 27.1284 1.67099 27.0068 1.67099 26.8565C1.67099 26.7063 1.54941 26.5847 1.39915 26.5847Z" fill="#161925"/>
<path d="M27.0394 26.5847H26.3383C26.188 26.5847 26.0664 26.7063 26.0664 26.8565C26.0664 27.0068 26.188 27.1284 26.3383 27.1284H27.0394C27.1896 27.1284 27.3112 27.0068 27.3112 26.8565C27.3112 26.7063 27.1896 26.5847 27.0394 26.5847Z" fill="#161925"/>
<path d="M25.0346 13.541H23.6373C23.1779 13.541 22.7674 13.7285 22.4711 14.0248C22.4629 14.033 22.4548 14.0412 22.4521 14.0493C22.2726 13.2501 21.9763 12.266 21.4816 11.3988C20.1114 11.3281 18.8365 10.76 17.8606 9.78678C17.8144 9.74057 17.7682 9.69435 17.7274 9.64542C14.8078 9.38988 11.8936 9.43611 8.97942 9.77591C7.95728 9.89823 7.04933 10.4773 6.53826 11.3662C6.0326 12.2415 5.73089 13.2392 5.54874 14.0466C5.54058 14.0384 5.53517 14.033 5.52701 14.0248C5.23339 13.7285 4.82291 13.541 4.36078 13.541H2.96622C2.68352 13.541 2.44971 13.7747 2.44971 14.0575V15.1938C2.44971 15.4792 2.68352 15.713 2.96622 15.713H5.19264C4.81746 16.0718 3.56702 17.3957 3.56702 19.0594V22.6831C3.56702 23.1289 3.9258 23.4904 4.37439 23.4904H23.6264C24.0695 23.4904 24.4338 23.1289 24.4338 22.6831V19.0594C24.4338 17.3957 23.1833 16.0718 22.8054 15.713H25.0346C25.3173 15.713 25.5511 15.4792 25.5511 15.1938V14.0575C25.5511 13.7747 25.3173 13.541 25.0346 13.541ZM7.58486 11.9724C7.90021 11.426 8.47379 11.0536 9.12079 10.9775C10.7382 10.7872 12.3802 10.692 13.9977 10.692C15.6178 10.692 17.2598 10.7872 18.88 10.9775C19.5216 11.0536 20.0979 11.426 20.4159 11.9751C21.226 13.3751 21.4435 15.2291 21.4816 15.6233H6.51377C6.55187 15.2345 6.76932 13.3779 7.58486 11.9724ZM8.91962 19.6493C8.46291 19.6493 7.7534 19.633 6.82371 19.739C6.62255 19.7608 6.44309 19.7662 6.28546 19.758C5.70912 19.7309 5.25788 19.1926 5.25788 18.5375C5.25788 18.2167 5.31224 17.8959 5.45088 17.6186C5.81515 16.9145 6.38873 17.1674 7.69088 17.5833C8.57165 17.866 9.03378 18.4831 9.27031 18.9697C9.41709 19.2742 9.22678 19.6493 8.91962 19.6493ZM10.9721 17.9367H13.4377C13.6715 17.9367 13.859 18.127 13.859 18.358V19.285C13.859 19.5161 13.6715 19.7064 13.4377 19.7064H11.8963C11.5239 19.7064 11.1895 19.5569 10.9449 19.3122C10.7002 19.0676 10.5507 18.7305 10.5507 18.358C10.5507 18.127 10.7382 17.9367 10.9721 17.9367ZM17.1456 21.5794C17.0994 21.7833 16.9934 21.9681 16.8493 22.1122C16.6481 22.3161 16.3681 22.4384 16.061 22.4384H11.9371C11.4097 22.4384 10.9666 22.0714 10.8524 21.5794C10.8198 21.4462 10.9177 21.3239 11.0509 21.3239H16.9472C17.0804 21.3239 17.1755 21.4489 17.1456 21.5794ZM17.5751 19.3122C17.3332 19.5569 16.9961 19.7064 16.6237 19.7064H15.0823C14.8486 19.7064 14.661 19.5161 14.661 19.285V18.358C14.661 18.127 14.8486 17.9367 15.0823 17.9367H17.548C17.7818 17.9367 17.9693 18.127 17.9693 18.358C17.9693 18.7305 17.8198 19.0676 17.5751 19.3122ZM23.0692 17.6186C23.2078 17.8959 23.2621 18.2167 23.2621 18.5375C23.2621 19.1926 22.8109 19.7309 22.2346 19.758C22.0769 19.7662 21.8975 19.7608 21.6963 19.739C20.7693 19.633 20.0571 19.6493 19.6031 19.6493C19.2932 19.6493 19.1029 19.2742 19.2497 18.9697C19.4862 18.4831 19.9511 17.866 20.8292 17.5833C22.1313 17.1674 22.7049 16.9145 23.0692 17.6186Z" fill="#161925"/>
<path d="M21.5 2C19.0142 2 17 4.01488 17 6.5C17 8.9858 19.0142 11 21.5 11C23.9844 11 26 8.9858 26 6.5C26 4.01488 23.9844 2 21.5 2ZM19.25 6.87507H18.125V6.12515H19.25V6.87507ZM21.8751 9.875H21.1249V8.75H21.8751V9.875ZM23.066 8.64673L20.9535 6.72635L21.1249 3.125H21.8751L22.0251 6.28243L23.6467 8.06577L23.066 8.64673ZM23.75 6.87507V6.12515H24.875V6.87507H23.75Z" fill="#161925"/>
</svg>
