<svg width="18" height="18" viewBox="0 0 18 18" fill="none" xmlns="http://www.w3.org/2000/svg">
<path d="M13.5 17.25H4.5C3.225 17.25 2.25 16.275 2.25 15V9C2.25 8.55 2.55 8.25 3 8.25C3.45 8.25 3.75 8.55 3.75 9V15C3.75 15.45 4.05 15.75 4.5 15.75H13.5C13.95 15.75 14.25 15.45 14.25 15V9C14.25 8.55 14.55 8.25 15 8.25C15.45 8.25 15.75 8.55 15.75 9V15C15.75 16.275 14.775 17.25 13.5 17.25Z" fill="#161925"/>
<path d="M12 5.25C11.775 5.25 11.625 5.175 11.475 5.025L9 2.55L6.525 5.025C6.225 5.325 5.775 5.325 5.475 5.025C5.175 4.725 5.175 4.275 5.475 3.975L8.475 0.975C8.775 0.675 9.225 0.675 9.525 0.975L12.525 3.975C12.825 4.275 12.825 4.725 12.525 5.025C12.375 5.175 12.225 5.25 12 5.25Z" fill="#161925"/>
<path d="M9 12C8.55 12 8.25 11.7 8.25 11.25V1.5C8.25 1.05 8.55 0.75 9 0.75C9.45 0.75 9.75 1.05 9.75 1.5V11.25C9.75 11.7 9.45 12 9 12Z" fill="#161925"/>
</svg>
