<svg width="18" height="18" viewBox="0 0 18 18" fill="none" xmlns="http://www.w3.org/2000/svg">
<g clip-path="url(#clip0_1_3005)">
<path d="M8.99984 5.57074C7.10868 5.57074 5.57019 7.10923 5.57019 9.00025C5.57019 10.8914 7.10868 12.4299 8.99984 12.4299C10.8909 12.4299 12.4293 10.8914 12.4293 9.00025C12.4293 7.10923 10.8909 5.57074 8.99984 5.57074ZM11.036 8.35439L8.57906 10.8113C8.47593 10.9145 8.34066 10.9661 8.20553 10.9661C8.0704 10.9661 7.93527 10.9146 7.83213 10.8113L6.89322 9.87242C6.68695 9.66629 6.68695 9.3319 6.89322 9.12563C7.09935 8.91936 7.43374 8.91936 7.64001 9.12563L8.20553 9.69115L10.2892 7.6076C10.4953 7.40133 10.8297 7.40133 11.036 7.6076C11.2423 7.81373 11.2423 8.14813 11.036 8.35439Z" fill="#C32F10"/>
<path d="M16.646 4.88382L16.6455 4.86981C16.6376 4.69691 16.6324 4.51399 16.6293 4.31047C16.6146 3.318 15.8256 2.49704 14.833 2.44156C12.7635 2.32607 11.1625 1.65124 9.79456 0.317912L9.78288 0.306789C9.3367 -0.102314 8.66365 -0.102314 8.21734 0.306789L8.20566 0.317912C6.83773 1.65124 5.23675 2.32607 3.16721 2.4417C2.17473 2.49704 1.38564 3.318 1.37095 4.31061C1.36793 4.51276 1.36257 4.69568 1.35475 4.86981L1.35392 4.90236C1.31368 7.01269 1.2637 9.6391 2.14233 12.023C2.62545 13.3339 3.35714 14.4735 4.31693 15.4102C5.41006 16.477 6.84185 17.3239 8.57247 17.9273C8.62877 17.9469 8.68727 17.9629 8.74687 17.9748C8.83092 17.9916 8.91551 17.9999 9.00011 17.9999C9.0847 17.9999 9.16944 17.9916 9.25334 17.9748C9.31294 17.9629 9.37186 17.9468 9.42844 17.927C11.157 17.3225 12.5873 16.4752 13.6794 15.4086C14.6388 14.4716 15.3705 13.3317 15.854 12.0205C16.736 9.62949 16.6861 6.99813 16.646 4.88382ZM8.99983 13.4861C6.52627 13.4861 4.51399 11.4738 4.51399 9.00025C4.51399 6.52668 6.52627 4.5144 8.99983 4.5144C11.4733 4.5144 13.4857 6.52668 13.4857 9.00025C13.4857 11.4738 11.4733 13.4861 8.99983 13.4861Z" fill="#C32F10"/>
</g>
<defs>
<clipPath id="clip0_1_3005">
<rect width="18" height="18" fill="white"/>
</clipPath>
</defs>
</svg>
