<svg width="55" height="52" viewBox="0 0 55 52" fill="none" xmlns="http://www.w3.org/2000/svg">
<path d="M0 22.9139L12.7444 35.6036L17.0704 39.913L26.2811 30.742L27.629 29.3991L34.1378 22.9169L24.1257 22.9169C24.1257 22.8505 24.1257 22.7841 24.1287 22.7147C24.235 14.3344 31.105 7.57157 39.5628 7.57157C42.4287 7.57157 45.1093 8.34713 47.4104 9.69909C49.2259 10.7644 50.8015 12.1918 52.0401 13.8787C53.901 16.4136 55 19.537 55 22.9169C55 19.4133 54.2107 16.0968 52.796 13.1273C51.8761 11.1959 50.6952 9.41542 49.2957 7.82506C45.0698 3.02983 38.8646 0 31.946 0C19.2137 0 8.89193 10.2604 8.89193 22.9169H0L0 22.9139Z" fill="#02DAC5"/>
<path d="M21.481 44.3061L27.1579 49.9584C29.8902 52.6805 34.3255 52.6805 37.0578 49.9584L45.889 41.1647L50.3273 36.7436C53.2599 32.902 54.9964 28.1098 54.9964 22.9132C54.9964 19.5333 53.8975 16.4099 52.0365 13.875C50.8009 12.1881 49.2223 10.7637 47.4069 9.6954C45.1057 8.34344 42.4251 7.56787 39.5593 7.56787C31.1015 7.56787 24.2314 14.3307 24.1252 22.711C24.2314 18.5103 27.6892 15.1394 31.9424 15.1394C34.6625 15.1394 37.0547 16.5186 38.4573 18.6129C39.283 19.8442 39.7627 21.3229 39.7627 22.9132C39.7627 24.8597 39.0432 26.6371 37.8562 27.9981C37.8531 28.0012 37.8531 28.0012 37.8501 28.0042C37.6103 28.2788 37.3522 28.5353 37.076 28.7737L30.4913 35.3313L22.1306 43.6573L21.481 44.3061Z" fill="#6200ED"/>
</svg>
