<svg width="18" height="18" viewBox="0 0 18 18" fill="none" xmlns="http://www.w3.org/2000/svg">
<circle cx="9" cy="9" r="9" fill="#149339"/>
<path d="M9.865 4.75507L10.745 6.51507C10.865 6.76007 11.185 6.99507 11.455 7.04007L13.05 7.30507C14.07 7.47507 14.31 8.21507 13.575 8.94507L12.335 10.1851C12.125 10.3951 12.01 10.8001 12.075 11.0901L12.43 12.6251C12.71 13.8401 12.065 14.3101 10.99 13.6751L9.495 12.7901C9.225 12.6301 8.78 12.6301 8.505 12.7901L7.01 13.6751C5.94 14.3101 5.29 13.8351 5.57 12.6251L5.925 11.0901C5.99 10.8001 5.875 10.3951 5.665 10.1851L4.425 8.94507C3.695 8.21507 3.93 7.47507 4.95 7.30507L6.545 7.04007C6.81 6.99507 7.13 6.76007 7.25 6.51507L8.13 4.75507C8.61 3.80007 9.39 3.80007 9.865 4.75507Z" fill="white"/>
</svg>
