<svg width="96" height="96" viewBox="0 0 96 96" fill="none" xmlns="http://www.w3.org/2000/svg">
<g clip-path="url(#clip0_2511_15127)">
<path d="M87.4849 52.6333C87.4849 76.5842 68.0669 96 44.1167 96C38.2412 96 32.6404 94.8318 27.5317 92.7144C13.5688 86.9304 3.28418 74.0625 1.15796 58.5938C0.887695 56.6455 0.75 54.6555 0.75 52.6333C0.75 28.6809 20.1658 9.26514 44.1167 9.26514C68.0669 9.26514 87.4849 28.6809 87.4849 52.6333Z" fill="#6200EE"/>
<path d="M44.1165 9.26514C41.8232 9.26514 39.5725 9.44458 37.376 9.78735C58.1262 13.0254 74.0044 30.9734 74.0044 52.6333C74.0044 74.2903 58.1277 92.2376 37.3789 95.4771C39.5747 95.8198 41.824 96 44.1157 96C68.0667 96 87.4846 76.5842 87.4846 52.6333C87.4846 28.6809 68.0667 9.26514 44.1165 9.26514Z" fill="#4E02BA"/>
<path d="M92.8989 49.4274L68.135 65.8256C66.3706 66.9945 64.2334 67.4582 62.1445 67.1242C60.0505 66.7909 57.9082 67.248 56.1394 68.4191L52.8252 70.6156L34.2656 43.2575L38.8191 23.5861C39.1729 22.0546 39.3479 20.5026 39.3479 18.9564C39.3479 14.9567 38.1782 11.0089 35.9348 7.62002C35.3833 6.78652 35.1196 5.8439 35.1196 4.91299C35.1196 3.32217 35.8916 1.76138 37.3184 0.816551C39.241 -0.457131 41.7891 -0.220558 43.4443 1.38491L46.3945 4.24209C49.7681 7.51528 52.3704 11.5004 54.0044 15.9081L55.604 20.2147L72.0769 9.33096C74.7078 7.58926 78.2666 8.35098 79.9468 11.0456C81.5669 13.6413 80.7349 17.0712 78.1824 18.7609C78.1516 18.7814 78.1494 18.8144 78.1597 18.8393C78.1743 18.8664 78.2051 18.8847 78.2395 18.87C78.8906 18.6195 79.5718 18.4979 80.2471 18.4979C81.3252 18.4979 82.3938 18.8085 83.3079 19.3996C83.9378 19.8068 84.4959 20.348 84.936 21.0131C85.7864 22.2978 86.0398 23.8043 85.7615 25.2047C85.325 27.4108 83.7217 28.5475 83.4067 28.7614C83.3533 28.7987 83.3386 28.8727 83.376 28.9284C83.376 28.9298 83.3782 28.932 83.3796 28.932C83.4148 28.9818 83.4866 28.9958 83.5378 28.9635C83.9868 28.8544 84.4439 28.8024 84.9009 28.8024C86.0164 28.8024 87.126 29.1195 88.0693 29.7209C88.7073 30.1288 89.2712 30.6679 89.7078 31.3285C91.4202 33.914 90.7127 37.3988 88.1243 39.112C88.0606 39.1552 87.9968 39.1984 87.9331 39.2394C87.8965 39.2687 87.8855 39.3156 87.9045 39.3485C87.9082 39.3566 87.917 39.3654 87.9251 39.369C87.9536 39.3918 87.999 39.3939 88.0364 39.3654C89.6441 38.8175 91.3938 39.0666 92.8015 39.9784C93.4497 40.3944 94.0247 40.9547 94.4795 41.6418C96.1926 44.2294 95.4844 47.7143 92.8989 49.4274Z" fill="#FDD7BD"/>
<path d="M53.062 75.8078L42.6148 82.7262L27.532 92.7142C13.5691 86.9296 3.28442 74.0639 1.1582 58.5936L18.6616 47.0023L29.3169 39.9454C30.5437 39.1324 32.199 39.4701 33.012 40.6991L53.8157 72.1105C54.6287 73.3395 54.291 74.9918 53.062 75.8078Z" fill="#03DAC5"/>
<path d="M53.0615 75.8077L42.6143 82.7262L18.6611 47.0023L29.3164 39.9454C30.5432 39.1324 32.1985 39.4701 33.0115 40.6991L53.8152 72.1097C54.6282 73.3395 54.2905 74.9918 53.0615 75.8077Z" fill="#0CC1B0"/>
<path d="M83.3079 19.3989L75.0674 23.8088C73.8984 24.4329 72.449 24.1069 71.6631 23.0427L78.1597 18.8394C78.1743 18.8665 78.2051 18.8848 78.2395 18.8701C78.8906 18.6196 79.5718 18.498 80.2471 18.498C81.3259 18.498 82.3938 18.8086 83.3079 19.3989Z" fill="#FAC5AA"/>
<path d="M88.0696 29.7212L80.0085 34.0315C78.8396 34.6577 77.3901 34.3325 76.6035 33.2683L83.1001 29.0642L83.3806 28.9324C83.4158 28.9822 83.4876 28.9961 83.5388 28.9639C83.9878 28.8547 84.4448 28.8027 84.9019 28.8027C86.0173 28.8027 87.127 29.1199 88.0696 29.7212Z" fill="#FAC5AA"/>
<path d="M92.802 39.9786L85.7019 43.7769C84.5344 44.4002 83.0857 44.075 82.2969 43.0108L87.9248 39.3692C87.9541 39.3919 87.9995 39.3941 88.0361 39.3648C89.6438 38.8177 91.3936 39.0667 92.802 39.9786Z" fill="#FAC5AA"/>
</g>
<defs>
<clipPath id="clip0_2511_15127">
<rect width="96" height="96" fill="white"/>
</clipPath>
</defs>
</svg>
