<svg width="18" height="18" viewBox="0 0 18 18" fill="none" xmlns="http://www.w3.org/2000/svg">
<g clip-path="url(#clip0_413_23210)">
<path d="M15.1605 5.64694V3.72431L15.6093 4.17319C15.939 4.50281 16.4733 4.50281 16.8024 4.17319C17.132 3.84356 17.132 3.30975 16.8024 2.98012L14.9135 1.09125C14.7577 0.936563 14.5406 0.84375 14.3167 0.84375C14.0928 0.84375 13.8752 0.936563 13.7193 1.09125L11.831 2.97956C11.5014 3.30919 11.5014 3.843 11.831 4.17263C12.1607 4.50225 12.6945 4.50225 13.0241 4.17263L13.473 3.72375V5.64638C13.473 6.61444 12.6855 7.40194 11.7174 7.40194C10.6284 7.40194 9.6536 7.89412 8.99997 8.66644C8.34635 7.89412 7.37097 7.40194 6.28254 7.40194C5.31447 7.40194 4.52697 6.61444 4.52697 5.64638V3.72431L4.97585 4.17319C5.14066 4.338 5.35666 4.42013 5.57266 4.42013C5.78866 4.42013 6.00466 4.338 6.16947 4.17319C6.4991 3.84356 6.4991 3.30975 6.16947 2.98012L4.2806 1.09125C4.12479 0.936 3.90766 0.84375 3.68322 0.84375C3.45935 0.84375 3.24166 0.936563 3.08585 1.09125L1.19754 2.98012C0.867911 3.30975 0.867911 3.84356 1.19754 4.17319C1.5266 4.50281 2.06097 4.50281 2.3906 4.17319L2.83947 3.72431V5.64694C2.83947 7.54537 4.3841 9.09 6.28254 9.09C7.31585 9.09 8.15622 9.93037 8.15622 10.9637V16.3125C8.15622 16.7782 8.53366 17.1562 8.99997 17.1562C9.46629 17.1562 9.84372 16.7782 9.84372 16.3125V10.9637C9.84372 9.93037 10.6841 9.09 11.7174 9.09C13.6158 9.09 15.1605 7.54537 15.1605 5.64694Z" fill="#161925"/>
</g>
<defs>
<clipPath id="clip0_413_23210">
<rect width="18" height="18" fill="white"/>
</clipPath>
</defs>
</svg>
