<svg width="22" height="22" viewBox="0 0 22 22" fill="none" xmlns="http://www.w3.org/2000/svg">
<path d="M20.1667 11V15.5833C20.1667 18.3333 18.3333 20.1666 15.5833 20.1666H6.41668C3.66668 20.1666 1.83334 18.3333 1.83334 15.5833V11C1.83334 8.50663 3.33668 6.76496 5.67418 6.47162C5.91251 6.43496 6.16001 6.41663 6.41668 6.41663H15.5833C15.8217 6.41663 16.0508 6.42578 16.2708 6.46245C18.6358 6.73745 20.1667 8.48829 20.1667 11Z" stroke="#9B9B9B" stroke-width="1.5" stroke-linecap="round" stroke-linejoin="round"/>
<path d="M16.2721 6.46254C16.0521 6.42587 15.823 6.41672 15.5846 6.41672H6.41798C6.16131 6.41672 5.91381 6.43505 5.67548 6.47172C5.80381 6.21505 5.98714 5.97672 6.20714 5.75672L9.18631 2.76837C10.4421 1.52171 12.4771 1.52171 13.733 2.76837L15.3371 4.39089C15.9238 4.96839 16.2355 5.70171 16.2721 6.46254Z" stroke="#9B9B9B" stroke-width="1.5" stroke-linecap="round" stroke-linejoin="round"/>
<path d="M20.1667 11.4584H17.4167C16.4083 11.4584 15.5833 12.2834 15.5833 13.2917C15.5833 14.3 16.4083 15.125 17.4167 15.125H20.1667" stroke="#9B9B9B" stroke-width="1.5" stroke-linecap="round" stroke-linejoin="round"/>
</svg>
